<svg width="300" height="300" viewBox="0 0 300 300" fill="none" xmlns="http://www.w3.org/2000/svg">
<path d="M211.601 278.422C195.395 278.422 180.259 273.839 167.419 265.898C177.504 254.772 185.272 241.508 189.962 226.866C196.158 230.992 203.598 233.397 211.601 233.397C233.188 233.397 250.689 215.896 250.689 194.309V150.717H295.713V194.309C295.713 240.763 258.054 278.422 211.601 278.422Z" fill="#3A3A3A"/>
<path d="M88.3995 21.5798C104.606 21.5798 119.741 26.163 132.581 34.1039C122.496 45.2291 114.728 58.4933 110.038 73.1351C103.842 69.0091 96.4016 66.6045 88.3995 66.6045C66.812 66.6045 49.3113 84.1052 49.3113 105.693L49.3113 149.284L4.28673 149.284L4.28673 105.693C4.28674 59.2387 41.9456 21.5797 88.3995 21.5798Z" fill="#3A3A3A"/>
<path d="M49.3114 132.708L49.3114 194.309C49.3114 215.896 66.8121 233.397 88.3996 233.397C109.988 233.397 127.488 215.896 127.488 194.309L127.488 150.717L172.513 150.717L172.513 194.309C172.513 240.763 134.854 278.422 88.3996 278.422C41.9457 278.422 4.28686 240.763 4.28686 194.309L4.28687 132.708L49.3114 132.708Z" fill="url(#paint0_linear_85_3493)"/>
<path d="M250.688 167.294L250.688 105.693C250.688 84.1051 233.188 66.6044 211.6 66.6044C190.012 66.6044 172.511 84.1052 172.511 105.693L172.511 156.784L127.487 156.784L127.487 105.693C127.487 59.2385 165.146 21.5796 211.6 21.5796C258.054 21.5796 295.713 59.2386 295.713 105.693L295.713 167.294L250.688 167.294Z" fill="url(#paint1_linear_85_3493)"/>
<defs>
<linearGradient id="paint0_linear_85_3493" x1="32.9315" y1="159.79" x2="65.0384" y2="195.416" gradientUnits="userSpaceOnUse">
<stop stop-color="#3A3A3A"/>
<stop offset="1" stop-color="#FF4274"/>
</linearGradient>
<linearGradient id="paint1_linear_85_3493" x1="267.068" y1="140.211" x2="234.961" y2="104.586" gradientUnits="userSpaceOnUse">
<stop stop-color="#3A3A3A"/>
<stop offset="1" stop-color="#FF4274"/>
</linearGradient>
</defs>
</svg>
