<?xml version="1.0" encoding="UTF-8"?>
<svg id="Layer_1" xmlns="http://www.w3.org/2000/svg" version="1.1" viewBox="0 0 1296.1 542.5">
  <!-- Generator: Adobe Illustrator 29.1.0, SVG Export Plug-In . SVG Version: 2.1.0 Build 142)  -->
  <defs>
    <style>
      .st0 {
        fill: #fff;
      }
    </style>
  </defs>
  <g>
    <path class="st0" d="M39.6,230.7c1.5.2,3.6.4,4.7.4.4,2.4.4,7.6.1,10.3-.3,2.6-1.1,7.1-3.1,10.3-3,4.8-7.9,7-12.9,6.5-5.6-.6-9.3-3.9-11.3-7.7-2.1-3.9-2.4-8-1.8-12,.4-3.5,1.4-7.5,2.1-8.8-.6-.2-2.8-1-3.6-1.2v-1c1.4.4,8.3,1.6,12.1,1.9l-.5.9c-1.4-.1-2.8,0-3.7,0-1.3.9-4.3,3.4-5.1,9.8-.8,6.9,3.8,12.1,10.2,12.9,6.5.8,15.4-3.8,16.5-12.3.1-1.1.2-3.4-.4-5.2-.5-.1-1.9-.3-3.9-.5l-2.1-.2c-1.2-.1-2.5-.2-3.2-.2-.2.8-.6,3.2-.9,4h-.9c.3-1.9.8-5,.9-6.4.2-1.9.6-5.7.6-6.3l.8.3c0,.3-.1,2.6,0,3.5.6.2,3.2.5,4.4.6l1.1.3Z"/>
    <path class="st0" d="M31.3,218.2c-2.2-.6-8.1-2.3-9.3-2.4-.4.8-1.3,2.9-1.6,3.9h-.9c.3-1.1,1.3-4.3,1.9-6.6.8-2.6,1.6-6.3,1.8-7l.8.4c-.2,1-.4,3-.8,4.7,1.2.5,6.6,2.1,9.7,2.9l1.4.4c5,1.4,12.3,3.5,13.2,3.5,1.3-4.5,1.2-7.9.6-9.6-1.1-1-2.9-1.9-4-2.6v-1c3.2,1.7,7.1,3.6,12.1,5.5l-.4.9c-.5-.1-3.4-1.2-4.4-1.4-.3.9-2.8,9-3.4,11-.5,1.9-1.4,5.4-1.6,6.5l-.8-.3c.1-.5.6-3.4.6-4.2-1.6-.6-9-2.7-12.8-3.8l-2.4-.8Z"/>
    <path class="st0" d="M50.5,201.5c-3.9,1.5-7,1.3-10.5-.2-7.4-3-11.5-11.9-7.3-22.2,1.6-3.9,3.6-6.8,7.3-9,3.4-2.1,7.6-2.1,11-.6,9.1,3.8,12.1,13.1,8.2,22.3-1.4,3.7-3.8,7.7-8.8,9.7ZM52,175.1c-7.9-3.2-15.8-.2-18.4,6-2.2,5.1-1,12.1,6.6,15.3,6.6,2.8,15.4.1,18.4-7,2.3-5.3-.6-11.7-6.6-14.2Z"/>
    <path class="st0" d="M55.7,163c-2.4-1.6-7.7-4.9-9.1-5.7-1,1-1.9,2.3-2.6,3.2l-.8-.3c.6-1.1,4.7-7.7,6.1-9.7,4.3-6.5,7.7-5.7,9.3-4.7,1,.6,1.7,1.2,2.6,2.9,1.1,2.5.9,5.2.6,6.6h.1c2.7-2.8,7.5-4.9,10.9-2.5,3.8,2.5,4.3,7.4,1.3,12-.3.4-1.1,1.5-1.9,2.7-.9,1.1-1.7,2.3-2.2,3-.4.8-2.6,4.1-3.2,5.2l-.6-.6c.4-.9,1.5-2.9,1.8-3.8-2.2-1.7-7.1-5-10.1-6.9l-2.3-1.4ZM58.8,160c.6-1.1,1.6-2.9,1.5-4.8-.1-1.8-1.2-3.6-2.9-4.8-2.9-1.8-6-1.4-7.8,1.3-.3.5-.6,1.1-.6,1.5.3.3,5,3.5,8,5.4l1.8,1.3ZM61.6,161.8c2.9,1.8,8,5,8.5,5.1,1.1-.4,2.1-1.5,2.5-2.2,2.1-3.1,1.2-5.6-1.1-7.1-2.2-1.4-5.6-1.7-8.3-.2-1.6.9-2.9,2.6-3.4,3.5l1.7,1Z"/>
    <path class="st0" d="M89.9,142.6c.9-1.2,1.6-2.4,2.3-3.5-2.1-.9-10.5-4.3-11.8-4.5-1,1.1-5,6.2-5.7,7.5.2.5,4.7,7.3,6.7,9.5.9-.5,1.8-1.5,2.7-2.3l.8.4c-.9.9-3.4,3.7-4.1,4.5-.6.8-2.4,2.9-2.9,3.7l-.5-.6c.6-1,1.3-2.1,1.8-3-1-2.8-12.2-23.2-13-24.6-.8.5-1.7,1.4-2.5,2.1l-.6-.5c.9-.9,3.1-3.4,3.6-3.9,1.1-1.3,3.7-4.4,4.4-5.3l.5.6c-.6.9-1.2,1.8-1.6,2.7,1.6.8,7.9,3.2,12.1,4.9,3.1,1.2,9.8,3.8,13.9,4.7,1-.8,1.8-1.5,2.8-2.3l.8.4c-.4.3-3.1,3.4-4.5,5-.8.9-3.7,4.4-4.3,5.3l-.6-.8ZM67.4,129.2h0c1.8,3.4,5.4,10,6.2,11.1l5.7-6.4c-2.7-1-9.8-3.8-11.9-4.8Z"/>
    <path class="st0" d="M89.1,119c-1.5-1.6-5.8-6.2-6.8-7-.8.4-2.7,1.8-3.5,2.5l-.6-.5c.8-.6,3.4-2.9,5.2-4.5,1.9-1.8,4.8-4.5,5.3-5.1l.4.8c-.6.8-2.1,2.4-3,3.6.8,1.1,4.7,5.3,6.8,7.6l1,1.1c3.6,3.8,8.9,9.4,9.5,10,3.5-3.2,5.2-6.3,5.6-8-.5-1.4-1.5-3.2-2.1-4.3l.5-.8c1.8,3.1,4.2,6.7,7.5,11l-.8.4c-.4-.4-2.3-2.8-3-3.6-.6.5-7.1,6.3-8.7,7.8-1.5,1.4-4.1,3.9-4.9,4.8l-.4-.8c.4-.4,2.3-2.5,2.7-3.2-1.1-1.4-6.3-7-9-10l-1.8-1.6Z"/>
    <path class="st0" d="M130.2,83.5c-.4-.6-1.6-2.2-2.1-2.6-1.6-1-6.3-1.3-10.6,1.6-6.1,4.1-6.8,11-3.2,16.2,4.4,6.4,13.4,8.2,20.5,3.5,2.5-1.7,5.2-4.1,6.6-7.1l.5,1.7c-.3,1.2-2.7,4.8-7.9,8.3-1.2.9-4.9,3.1-8.4,3.7-5.7.9-10.8-1.2-13.7-5.4-3.1-4.5-3.1-9.5-1.5-13.4,1.8-4.7,4.7-7.1,8-9.5,2.9-1.9,6.4-3.5,7.5-3.9-.1-.5-1.2-2.9-1.3-3.5l.6-.6c1.9,4,4.1,7.6,6.3,10.7l-1.2.3Z"/>
    <path class="st0" d="M144.2,92.9c-4-1.5-6.1-3.8-7.7-7.1-3.5-7.3-.5-16.7,9.5-21.4,3.9-1.8,7.3-2.7,11.6-1.8,3.9.8,7.1,3.6,8.8,6.9,4.2,9,.2,18-8.9,22.2-3.8,1.8-8.2,3.2-13.3,1.3ZM163,74.2c-3.7-7.8-11.7-10.8-17.7-7.9-5,2.4-8.9,8.3-5.3,15.9,3.1,6.6,11.4,10.5,18.5,7.1,5.3-2.6,7.4-9.3,4.5-15.2Z"/>
    <path class="st0" d="M199.1,73.5c.5-.2,3.4-1.4,4-1.7-.5-1.4-9.1-17.5-10.5-20.1h-.1c-.3,2.6-2.2,23.3-2.6,25.8-1.8-2.1-14.8-18.8-15.7-20.1h-.1c.9,6.2,1.8,17.4,3.6,22.3.8-.1,2.9-.4,3.6-.5l.4.8c-.5.1-5,1.4-5.7,1.6-1,.3-2.9,1-4.2,1.4v-.9c.6-.3,1.7-.9,2.6-1.3.1-2.7-1.6-22.7-1.9-26.1-1.1.2-3.5.5-3.9.6l-.4-.8c.5-.1,3.5-1,5.5-1.5,1.6-.5,4.7-1.5,5.6-1.9v.9c-1,.4-1.9,1.1-2.6,1.4,2.2,3.1,10.7,14.2,12.8,16.7.4-2.5,2.2-20.3,1.9-21.2-.8,0-2.1.2-2.7.2l-.4-.8c1.2-.3,3.9-1,5.2-1.4,1.2-.3,4.4-1.4,5.2-1.8v.9c-.4.2-2.2,1.1-2.9,1.5,2.1,4,11.1,20.6,12.6,22.7,1-.1,2.6-.3,3.4-.4l.4.8c-1.3.3-3.7,1-5.4,1.5-1.7.5-6,1.9-7,2.4l-.4-.8Z"/>
    <path class="st0" d="M218.6,54.3c.4,3.4,1.5,12.4,1.8,13.5,1,0,3.8,0,5.1-.1l.3.8c-1.3.1-5.7.5-7.6.8-1.9.2-5.7.8-6.8,1v-.9c.6-.1,3.2-.8,4.2-1.1,0-1.7-1.1-10.2-1.5-13.9l-.2-1.6c-.1-1.3-1.1-8.4-1.4-9.7-.8-.2-3.4-.1-4.3,0l-.2-.9c1.2-.1,6.9-.9,8.8-1.1,4.3-.5,7.6-.5,9.6,0,3.7,1.1,4.3,3.4,4.4,4.3.3,2.7-.5,4.9-1.9,6.6-2.3,2.9-6.4,4.5-7.8,4.9v-1c1.4-.5,6-2.5,5.2-8.4-.3-2.4-1.7-4.2-3.8-5-1.4-.4-3.5-.4-5.2-.2,0,1.2.6,6.7,1.1,10.2l.2,1.8Z"/>
    <path class="st0" d="M238.1,50.2c-.1-2.3-.4-8.4-.6-9.6-.9-.1-3.2-.3-4.3-.3v-.9c.9,0,4.3-.1,6.8-.2,2.7-.1,6.5-.4,7.3-.5v.9c-1.1.1-3.1.5-4.8.8-.1,1.3.1,7,.3,10.2v1.4c.3,5.2.8,12.9,1,13.7,4.8-.2,7.9-1.4,9.4-2.5.5-1.4,1-3.5,1.2-4.7l1-.2c-.6,3.6-1.2,7.8-1.4,13.2h-1v-4.8c-.9,0-9.4.2-11.6.3-1.9.1-5.6.3-6.7.5v-.9c.6-.1,3.5-.4,4.3-.8.1-1.7-.3-9.4-.4-13.3l-.4-2.4Z"/>
    <path class="st0" d="M265.6,53.1c-.2,5.2-.4,11.8-.3,12.7,1,.3,3.4.6,4.1.8l.2.9c-.9-.1-5-.3-7.5-.4-1.4,0-5-.1-6.3-.1l.2-.9c.6,0,3.4-.2,4.2-.4.2-1.6.5-9.1.8-13v-2.4c.1-1.3.4-8.8.3-10.2-.8-.2-3.4-.6-4.1-.8l-.2-.9c.8.1,4.4.3,7.6.4,2.1.1,5.4.1,6.2.1l-.2.9c-.8,0-2.8.3-4.2.4-.2.8-.4,5.4-.6,10.3v2.6Z"/>
    <path class="st0" d="M286.8,68.5c1.4.1,2.8.1,4.1.1-.4-2.2-1.9-11-2.4-12.2-1.4-.2-7.7-.9-9.2-.9-.3.5-3.6,7.7-4.4,10.6,1,.4,2.3.8,3.4,1.1v.9c-1.2-.2-4.8-.9-6-1.1-1.1-.1-3.7-.5-4.7-.5l.2-.9c1.2.1,2.4,0,3.5,0,1.8-2.3,13-22.4,13.7-23.8-.9-.3-2.2-.8-3-1v-.9c1.3.2,4.5.9,5.2,1,1.6.2,5.6.8,6.8.9l-.2.9h-3.1c.2,1.8,1.4,8.3,2.3,12.8.6,3.2,2.1,10.3,3.4,14,1.1.4,2.3.8,3.4,1.1v.9c-.4-.1-4.4-.9-6.5-1.2-1.2-.2-5.6-.8-6.7-.9l.3-.8ZM286.2,42.6h0c-1.8,3.4-5.5,9.7-6.1,11l8.3,1.4c-.4-2.7-1.8-10.2-2.3-12.4Z"/>
    <path class="st0" d="M305,43.6c2.2.5,5.7,1.6,8.8,2.4.4,1.5,5.1,13.5,5.5,14.4.6,1.4,4.4,10.6,5.3,12,1.3-4.2,5.4-17.6,5.3-19.8-.8-.4-2.6-1.3-3.7-1.7v-.9c.8.3,4.9,1.6,5.7,1.9.9.2,4,1.2,4.9,1.3l-.4.8c-.5-.1-1.9-.2-3-.3-.9,1.3-2.8,6.6-3.2,7.9-.6,1.7-6,17.6-6.6,19.2-.8-1.4-7.6-17-8.1-18.3-.3-.8-4.9-11.8-5.6-13.6-.3.8-6.1,20.9-6.1,22.4.5.3,3.2,1.5,4,1.8v.9c-.8-.3-4.7-1.6-5.7-1.9-1.1-.3-4.1-1.2-5.2-1.4l.3-.8c1.1.2,2.4.4,3.4.4,1.2-1.4,8.2-22.6,8.5-23.9-.9-.4-2.6-1.2-4-1.7v-1Z"/>
    <path class="st0" d="M362.3,75.1c.3-.6,1-2.5,1.2-3.1.1-1.9-2.1-6.2-6.7-8.3-6.6-3.1-13-.3-15.7,5.3-3.4,7-.3,15.8,7.4,19.4,2.7,1.3,6.2,2.4,9.5,2.1l-1.2,1.3c-1.2.3-5.5,0-11.3-2.6-1.3-.6-5.2-2.6-7.5-5.5-3.6-4.5-4.4-10-2.3-14.6,2.4-5,6.6-7.5,10.8-8.1,5-.8,8.5.3,12.2,2.1,3.1,1.5,6.3,3.8,7.1,4.5.4-.3,1.9-2.5,2.3-2.8l.9.2c-2.4,3.7-4.4,7.4-6.1,10.8l-.8-.5Z"/>
    <path class="st0" d="M368.4,83.7c2.1-3,5.5-8.4,6.1-9.5-.5-.5-2.5-2.2-3.1-2.8l.3-.8c.8.5,1.8,1.4,2.9,2.2s2.2,1.5,2.9,2.1c1.1.8,9,6.1,10.1,6.4.3-.3.9-.9,1.3-1.4l.9.4c-.6.5-4.5,5.5-5.4,6.5l-.5-.8c.1-.2,1.2-1.7,1.6-2.4,0-1.4-4.9-5.3-6.6-6.5-.4.4-5,6.8-6.3,8.8l-.4.6c2.9,1.9,6.3,3.9,7.4,4.1.5-.4,1-.8,1.3-1.2l.8.4c-.5.5-4.2,4.8-5.1,5.7l-.4-.6c.5-.6,1.1-1.5,1.6-2.2-.6-1.2-3.1-3.2-6.1-5.2l-.4.6c-1.4,2.1-6.2,9.5-6.7,10.5,3.4,2.3,6.7,4.1,8.9,4.3,1.2-1,2.1-1.8,2.7-2.5l.9.3c-.9.9-5.1,5.4-6.4,7l-.6-.6c.6-.9,1-1.5,1.3-2.1-.9-.9-8.2-6-10.4-7.5-1.2-.8-3.9-2.5-5.2-3.4l.6-.5c.5.3,2.7,1.5,3.8,1.8.5-.5,4.8-6.6,7.4-10.3l1.1-1.7Z"/>
    <path class="st0" d="M414.7,115.5c.5-.5,1.7-1.9,2.2-2.6.6-1.8,0-6.4-3.8-10-5.2-5-12.2-4.3-16.5.1-5.4,5.6-5.3,14.8.8,20.6,2.2,2.1,5.1,4.2,8.3,5l-1.6.9c-1.2-.1-5.2-1.7-9.7-6.1-1.1-1-4.1-4.1-5.3-7.5-1.9-5.4-1.1-10.8,2.5-14.5,3.8-4,8.7-5,12.8-4.2,4.9.9,8,3,10.8,5.8,2.5,2.4,4.8,5.5,5.3,6.5.5-.2,2.6-1.7,3-1.9l.8.5c-3.5,2.7-6.5,5.6-9.1,8.3l-.4-1Z"/>
    <path class="st0" d="M419,125.2c2.7-2.4,7.4-6.6,8.2-7.5-.3-.6-1.7-2.7-2.3-3.5l.5-.6c.6.8,1.4,1.7,2.3,2.8.9,1,1.7,2.1,2.3,2.7.9,1,6.9,8,7.9,8.7.4-.2,1.1-.5,1.6-1l.8.5c-.8.4-5.7,4-6.7,4.8l-.3-.9c.2-.2,1.6-1.3,2.2-1.8.4-1.3-3.2-6.3-4.7-7.9-.5.3-6.4,5.2-8.2,6.7l-.6.5c2.3,2.6,5,5.3,5.8,5.8.5-.2,1.1-.5,1.5-.9l.6.5c-.6.4-5.2,3.5-6.3,4.1l-.2-.8c.6-.5,1.5-1.2,2.1-1.7-.3-1.3-2.2-3.9-4.4-6.4l-.6.5c-1.8,1.6-8.3,7.4-9.1,8.2,2.6,3,5.3,5.6,7.3,6.3,1.3-.5,2.4-1.2,3.2-1.6l.8.5c-1.1.5-6.2,3.9-7.8,5l-.4-.8c.8-.8,1.4-1.2,1.8-1.6-.6-1-6.3-7.8-7.9-9.6-.9-1-3-3.4-4.1-4.4l.8-.4c.4.4,2.2,2.1,3.1,2.7.6-.3,6.3-5.1,9.5-7.9l1.4-1.2Z"/>
    <path class="st0" d="M436.2,143.7c1.2-.8,7.5-5.1,8-5.6-.2-.6-1.5-3-1.9-3.8l.6-.5,4.9,7c2.1,3.1,4.8,7,5.3,9.8.4,2.2,0,4.1-1.8,5.3-2.1,1.4-6.2,1.2-9.3-.4-.5.9-5.6,12-6.9,17.9l-1.2-1.3c-.5-3,3.7-18.5,4-19.6-1-1.2-1.9-2.5-2.3-3l-.9.5c-2.2,1.4-7.1,4.9-8.5,6.1.2.6,1.4,3,1.8,3.8l-.6.6c-.5-.9-2.7-4.2-3.7-5.7-.9-1.3-3.4-4.8-3.9-5.4l.8-.3c.3.4,1.9,2.4,2.8,3.1,1.1-.5,7.5-4.9,10.9-7.1l1.9-1.3ZM436.4,148.9c.8,1.2,1.8,2.5,3.4,3.6s4.5,2.4,7.8.2c2.1-1.4,3.4-5.1-.4-10.7-1.4.8-7.4,4.8-9.6,6.3l-1.1.6Z"/>
    <path class="st0" d="M454.9,173.3c2.6-1.4,7.8-4.3,8.7-4.9-3-5.6-5.3-7.8-6.4-8.4-1,.1-2.4.6-3.7,1.1l-.6-.6c1.7-.8,6.5-2.7,9.2-4.2l.3.9c-.4.3-1.5,1-2.2,1.4.2.6,3.2,6.8,5.8,11.7,2.7,5.2,6.3,11.1,6.7,11.7.5-.1,1.7-.4,2.5-.6l.6.9c-1,.2-8.7,3.4-9.7,3.8l-.2-1c1.4-.6,2.9-1.4,3.7-1.8.2-1.3-1.6-6.6-3.5-10.1-1,.4-6.3,3.1-8.8,4.4l-1.6.9c-3.1,1.6-9.1,5-11.9,6.6.2.8,1.6,4.1,1.9,4.9l-.6.5c-.4-.9-2.5-5.1-3.6-7-.9-1.6-3.2-5.8-3.8-6.8l.9-.2c.5.8,2.4,3.5,2.9,4.3,2.8-1.4,9-4.5,12-6.3l1.3-1Z"/>
    <path class="st0" d="M464.7,198.9c-4.8,2.2-10.8,4.9-11.5,5.4.2,1,1,3.4,1.2,4.1l-.6.5c-.3-.9-1.9-4.7-2.9-6.9-.5-1.2-2.2-4.5-2.7-5.6l.9-.2c.3.6,1.7,2.9,2.3,3.7,1.6-.5,8.3-3.6,11.9-5.1l2.2-1c1.2-.5,8-3.7,9.2-4.3-.2-.8-1-3.4-1.2-4.1l.6-.5c.2.8,1.6,4.1,2.9,7,.9,1.8,2.3,5,2.7,5.5h-.9c-.4-.5-1.5-2.3-2.3-3.5-.8.2-5.1,2.1-9.5,4l-2.3,1Z"/>
    <path class="st0" d="M470.4,209.5c3.5-1.2,9.5-3.2,10.6-3.7.1-.5-.5-3-.8-4.2l.8-.4c.3,1.4,1.5,5.2,2.1,6.7.5,1.6,3.8,11.3,4.2,12,.5,0,1.9-.2,2.9-.4l.4.9c-1.8.3-6.7,1.5-9.6,2.5v-1c.6-.2,2.3-.9,2.9-1.2.9-1.8-.6-8-1.3-10-.6,0-7.5,2.2-10.3,3l-.9.3c.6,1.8,2.4,6.8,3.2,7.9.6,0,1.6-.1,2.4-.2l.4.8c-1.9.3-5.8,1.3-8.7,2.2v-.9c.8-.2,2.1-.8,3.1-1.3.4-1.2-.9-6-1.6-8.1l-1.2.4c-3.1,1.1-9.8,3.4-10.8,3.9.2,1.5.6,3.5.9,4.3l-.8.4c-.3-1.4-1.3-4.5-2.2-7-.8-2.2-1.7-5-2.3-6.3h.9c.2.3,1.2,2.8,1.8,3.8.9-.2,7.1-2.2,11.4-3.6l2.3-.9Z"/>
    <path class="st0" d="M477,238.2c-5.1,1.1-11.6,2.5-12.3,2.8,0,1,.2,3.5.3,4.2l-.8.3c-.1-.9-.9-5-1.4-7.4-.3-1.3-1.1-4.9-1.4-6.1h.9c.2.6,1.1,3.2,1.4,4,1.6-.2,8.9-1.7,12.7-2.5l2.3-.5c1.3-.3,8.5-1.8,9.8-2.3,0-.9-.2-3.5-.3-4.2l.8-.3c.1.8.8,4.3,1.4,7.5.4,1.9,1.2,5.3,1.4,6h-.9c-.2-.8-1-2.6-1.4-4-.9,0-5.3,1-10.2,1.9l-2.3.5Z"/>
    <path class="st0" d="M487.9,270.7c.8-.1,2.6-.4,3.2-.6,1.6-1,4.1-5,3.5-10.1-.9-7.1-6.6-11.1-12.8-10.4-7.7.9-13.5,8-12.4,16.5.3,3,1.3,6.5,3.2,9.1l-1.7-.3c-.9-.9-2.9-4.7-3.7-10.8-.2-1.5-.5-5.8.6-9.2,1.9-5.4,6.1-9,11.1-9.6,5.4-.6,9.8,1.6,12.6,4.9,3.2,3.8,4.2,7.4,4.7,11.4.4,3.5.1,7.3,0,8.3.5.2,3.1.3,3.6.4l.3.9c-4.4-.1-8.5.2-12.3.5v-.9Z"/>
    <path class="st0" d="M470.1,292.9c.1,1.4.3,2.8.6,4,2.1-.8,10.5-3.8,11.7-4.4,0-1.4-.4-7.8-.6-9.3-.5-.2-8.2-2.3-11.3-2.6-.2,1-.4,2.4-.5,3.5l-.9.2c.1-1.3.1-4.9.1-6.1s-.1-3.7-.2-4.7h.9c.1,1.3.3,2.5.6,3.6,2.6,1.4,24.4,9,25.9,9.5.2-.9.3-2.2.4-3.1h.9c-.1,1.1-.1,4.4-.1,5.1,0,1.7.2,5.7.3,6.8h-.9c-.1-1.2-.3-2.3-.5-3.1-1.7.5-8,2.8-12.2,4.4-3,1.2-9.7,3.8-13.3,5.7-.2,1.2-.3,2.4-.5,3.6h-.9c.1-.3.1-4.4,0-6.6,0-1.2-.2-5.7-.3-6.8l.9.3ZM495.5,287.9h0c-3.6-1.3-10.6-3.8-11.9-4.1v8.4c2.6-.9,9.7-3.6,11.9-4.3Z"/>
    <path class="st0" d="M485.5,313.9c2.9,0,8.9-.1,9.7-.2,0-6.4-1.1-9.3-1.7-10.4-.9-.3-2.5-.5-3.8-.8l-.2-.9c1.9.1,6.9.6,10.1.5v.9c-.6,0-1.8.1-2.7.2-.1.6-.3,7.5-.3,12.9s.3,12.7.4,13.3c.4.1,1.7.4,2.5.5l.2,1c-.9-.2-9.1-1.1-10.3-1.2l.2-.9c1.6.1,3.2.1,4.1.1.8-1,1.6-6.6,1.6-10.4-1.1-.1-6.9-.2-9.7-.2h-1.8c-3.5,0-10.3.1-13.4.2-.1.8-.4,4.4-.5,5.2l-.9.2c.1-1,.1-5.6.1-7.8s-.1-6.6-.2-7.8l.9.2c.1.9.4,4.1.5,5.1,3.1.1,10,.2,13.4.1h1.8Z"/>
    <path class="st0" d="M482.7,340.6c-5.1,0-11.7,0-12.4.1-.2,1-.5,3.4-.5,4.1l-.9.2c.1-.9.2-5,.2-7.4s0-5-.1-6.2h.9c0,.8.3,3.5.5,4.3,1.6.2,8.9.2,12.8.2h2.3c1.3,0,8.7,0,10-.1.1-.8.4-3.4.5-4.1l.9-.2c-.1.8-.2,4.3-.2,7.5s0,5.4.1,6.1l-.9-.2c-.1-.8-.4-2.7-.5-4.1-.8-.1-5.3-.2-10.2-.2h-2.4Z"/>
    <path class="st0" d="M472.3,351.5c2.9-2.9,5.8-3.9,9.6-3.9,7.9,0,15.2,6.4,15.2,17.4s-.6,7.6-3.1,11c-2.3,3.1-6.2,4.9-9.8,4.9-9.7.1-16.1-7.4-16.1-17.1-.1-4.1.5-8.7,4.3-12.3ZM481.1,376.1c8.4,0,14.5-6,14.4-12.6,0-5.4-3.8-11.4-11.9-11.4s-14.1,5.8-14.1,13.6c.1,5.6,5.2,10.3,11.6,10.3Z"/>
    <path class="st0" d="M496.3,383c0,2.2,0,6,.1,9-1.4.9-11.5,8.7-12.2,9.3-1.1,1-8.9,7.1-10,8.4,4.4.1,18.3.3,20.3-.4.2-.8.5-2.9.6-4l.9-.2c-.1.8-.2,5-.2,5.8s0,4.1.1,5l-.9-.2c-.1-.5-.3-1.9-.5-3-1.5-.5-7.1-.8-8.3-.9-1.8-.1-18.4-.8-20-1,1.1-1.2,14.1-11.9,15.2-12.8.6-.5,9.8-7.9,11.5-9.2-.8-.1-21.5,0-22.9.4-.2.5-.5,3.6-.6,4.3h-.9c.1-.6.2-4.8.2-5.7s0-4.2-.1-5.4h.9c.1,1.2.2,2.5.5,3.4,1.6.6,23.8,1.5,25.1,1.5.2-.9.4-2.8.5-4.3h.8Z"/>
    <path class="st0" d="M268,428.6v37.4h-2.9c-3.6-10.3-8.9-18-16-23.4-7.1-5.3-14.8-8-23.3-8s-14.7,2.3-20.1,6.7c-5.3,4.4-9.1,10.7-11.4,18.7-2.3,8-3.4,16.2-3.4,24.6s1.2,19.2,3.7,26.7c2.5,7.7,6.4,13.3,11.8,16.9,5.4,3.6,11.9,5.4,19.4,5.4s5.3-.3,8-.9,5.5-1.3,8.3-2.4v-22.1c0-4.2-.3-6.9-.9-8.1s-1.8-2.4-3.6-3.4c-1.8-1-4-1.5-6.6-1.5h-2.8v-2.9h52.4v2.9c-4,.2-6.7.8-8.3,1.6-1.5.8-2.8,2.2-3.6,4-.4,1-.8,3.5-.8,7.3v22.1c-6.9,3-14.1,5.3-21.5,6.8-7.5,1.5-15.2,2.3-23.2,2.3s-18.7-1.4-25.4-4.1c-6.7-2.7-12.7-6.4-17.9-10.8-5.2-4.4-9.2-9.5-12.1-15-3.7-7.3-5.5-15.3-5.5-24.2,0-16,5.7-29.4,17.1-40.5,11.4-11,25.8-16.6,43-16.6s10.2.4,14.5,1.3c2.4.4,6.1,1.6,11.4,3.6,5.2,1.9,8.3,2.9,9.3,2.9,1.5,0,2.8-.5,4.1-1.6,1.3-1.1,2.5-3.1,3.5-6.1h2.8v.3Z"/>
    <path class="st0" d="M383.9,428.4v36.6h-3c-2.3-9.5-6.6-16.9-12.9-22-6.3-5.1-13.4-7.7-21.3-7.7s-12.8,1.9-18.3,5.7-9.6,8.8-12.2,14.8c-3.2,7.8-5,16.6-5,26.2s1.2,18.1,3.6,25.9c2.4,7.8,6.2,13.6,11.4,17.6,5.1,4,11.8,6,19.9,6s12.9-1.4,18.4-4.3c5.6-2.9,11.5-7.9,17.6-15v9.1c-6,6.2-12.2,10.6-18.6,13.4-6.5,2.8-14.1,4.2-22.6,4.2s-21.4-2.3-30.3-6.8c-8.9-4.5-15.6-11-20.5-19.5-4.8-8.4-7.1-17.4-7.1-27.1s2.7-19.6,8-28.7c5.3-9,12.4-16,21.5-21,9-5,18.6-7.5,28.8-7.5s15.4,1.6,23.7,4.9c4.9,1.8,7.9,2.8,9.2,2.8s3.1-.6,4.3-1.8c1.2-1.2,2.1-3.1,2.4-5.8h3Z"/>
    <path class="st0" d="M495.3,428.4v36.6h-3c-2.3-9.5-6.6-16.9-12.9-22-6.3-5.1-13.4-7.7-21.3-7.7s-12.8,1.9-18.3,5.7c-5.5,3.8-9.6,8.8-12.2,14.8-3.2,7.8-5,16.6-5,26.2s1.2,18.1,3.6,25.9c2.4,7.8,6.2,13.6,11.4,17.6,5.1,4,11.8,6,19.9,6s12.9-1.4,18.4-4.3c5.6-2.9,11.5-7.9,17.6-15v9.1c-6,6.2-12.2,10.6-18.6,13.4-6.5,2.8-14.1,4.2-22.6,4.2s-21.4-2.3-30.3-6.8c-8.9-4.5-15.6-11-20.5-19.5-4.8-8.4-7.1-17.4-7.1-27.1s2.7-19.6,8-28.7c5.3-9,12.4-16,21.5-21,9-5,18.6-7.5,28.8-7.5s15.4,1.6,23.7,4.9c4.9,1.8,7.9,2.8,9.2,2.8s3.1-.6,4.3-1.8c1.2-1.2,2.1-3.1,2.4-5.8h3Z"/>
    <path class="st0" d="M285.4,267.5c-61.4,56.7-111.4,132.1-111.4,132.1,0,0-3.8-27.7-28.5-55.6-24.7-28-60.9,1.2-75.3,15.6,37.7,8.5,68.4,89.4,80.8,123.6.1.2.4.4.8.5.2-18.5,7.1-34.5,20.5-47.4,12.4-12.1,28-18.6,46.3-19.6,2.9-6.6,27.9-61.6,78.6-120.2,87.4-101.4,144.3-109.7,144.3-109.7-36.8-4-108.4,36.8-156.1,80.7Z"/>
    <path class="st0" d="M173.4,532.7c-6.2-5.4-11.1-11.6-14.7-18.4-4.5-8.8-6.8-18.7-6.8-29.3v-1.9c-.5-.2-.8-.2-.8-.2,0,0-45.9-21-79.3-74.2-41.5-65-32.6-127.3-29-144,.6-2.9,1.2-7,1.2-7,0,0-7.4,11.9-22.5,9.2-11.6-2.1-17.1-12.7-17.1-12.7,0,0-1.2,3.9-1.6,6.4-3,17.2-12,91.1,34.1,169,53.9,90.9,142,108.3,142,108.3.1-.2.2-.3.4-.5-2.2-1.5-4-3-5.8-4.5Z"/>
  </g>
  <g>
    <path class="st0" d="M762.1,421.2c0-8.6-2.5-13.7-11.8-13.7h-5.8v33.2h6.6c8.9,0,11.1-5.5,11.1-15.2v-4.3Z"/>
    <path class="st0" d="M984.5,407.6h-5.8v75.7h5.7c11.4,0,14.3-6.3,14.3-18.8v-39.2c0-11-2-17.7-14.1-17.7Z"/>
    <path class="st0" d="M1104.7,249.4c-4.9,0-6.5,4.5-6.5,10.4v63.6c0,6.1,1.7,10.5,6.5,10.5s6.5-4.3,6.5-10.9v-63.5c0-6-1.6-10.1-6.5-10.1Z"/>
    <path class="st0" d="M753.8,249.8c-4.4,0-6.9,3.6-6.9,11.5v61.4c0,7.4,2.3,11.3,6.9,11.3s7-3.5,7-11.4v-61.5c0-7.5-1.9-11.3-7.1-11.3Z"/>
    <path class="st0" d="M1163.7,249.4c-4.9,0-6.5,4.5-6.5,10.4v63.6c0,6.1,1.7,10.5,6.5,10.5s6.5-4.3,6.5-10.9v-63.5c0-6-1.6-10.1-6.5-10.1Z"/>
    <path class="st0" d="M1025.1,0L387,.8c109.1,53,184,158.8,184,280.7s0,6.6,0,6.6v254.4l454.1-.6c149,0,271-121.9,271-271h0C1296.1,121.9,1174.1,0,1025.1,0ZM668.4,314.8h20.4v8.3c0,7.9,1.8,11.6,6.5,11.6s5.9-5.4,5.9-11.1c0-11.3-1.9-14.6-13-24.9-12.2-11.5-18.4-18.2-18.4-35.9s5.1-33,25.6-33,25,16.5,25,30.2v6.9h-19.6v-7.2c0-7.3-1.1-10.9-5.2-10.9s-5.1,3.7-5.1,10.5,1.2,10.8,10.1,18.6c15.9,13.9,21.6,21.7,21.6,41.5s-5.8,34.3-27.3,34.3-26.5-13.8-26.5-31.6v-7.2ZM643.6,231.7h20.8v120.1h-20.8v-120.1ZM677.7,468c0,11.8-2.2,24-17.9,24s-18-11.3-18-24.5v-46.3c0-14.7,6.2-22.4,18.1-22.4s17.4,10.7,17.4,22.5v3.4h-8.8v-3.9c0-7.5-1.1-14.1-8.8-14.1s-9,5.9-9,14.3v47c0,9.9,2.2,16.2,9.4,16.2s8.8-6.6,8.8-15.6v-3.5h8.9v3ZM722.3,490.9h-30.6v-90.8h30.3v8h-21.6v30.3h20.5v7.9h-20.5v36.6h23.2l-1.2,7.9ZM762.6,490.9c-1.1-5.7-1-21.1-1-27.4,0-11.9-1.7-15.5-10.9-15.5h-6.2v42.8h-8.6v-90.8h15c13.6,0,20,6,20,20.7v4.3c0,12-4,17.4-9.2,19.2,5.9,2.1,8.5,6.5,8.5,18.6s-.1,22.3.9,28.1h-8.5ZM753,353.7c-17.9,0-27.2-10.5-27.2-33.8v-56.6c0-23.2,11.5-33.3,28.1-33.3s28,10,28,33.9v55.7c0,23.8-10.1,34.1-29,34.1ZM817.8,408h-14.6v82.9h-8.6v-82.9h-14.7v-8h38v8ZM796.3,357.3h-15.2l23.3-125.5h15.1l-23.2,125.5ZM837.5,490.9h-8.6v-90.8h8.6v90.8ZM844.8,351.9h-20.8v-120.1h20.8v120.1ZM886.4,408h-22.1v30.9h20.8v8h-20.8v43.9h-8.6v-90.8h30.7v8ZM896.3,351.9h-44.5v-120.1h44.3v20.4h-23.5v26.3h22.3v20.3h-22.3v32.7h26.1l-2.5,20.3ZM907.8,490.9h-8.6v-90.8h8.6v90.8ZM900.5,320.7v-58.9c0-20.9,9.4-31.9,26.7-31.9s26.5,16.7,26.5,32.4v7.5h-20.9v-10.2c0-6.6-1.3-10-5.6-10s-5.7,3.2-5.7,10v63.5c0,6.4,1,10.8,5.7,10.8s5.8-3.7,5.8-11.3v-10h21v6.5c0,15.2-2.5,34.5-27.3,34.5s-26.3-10.8-26.3-32.9ZM956.5,490.9h-30.6v-90.8h30.3v8h-21.6v30.3h20.5v7.9h-20.5v36.6h23.2l-1.2,7.9ZM1007.5,462.6c0,14-2.1,28.2-22.4,28.2h-15v-90.8h15.8c19.7,0,21.7,12.6,21.7,26.5v36.1ZM1021.6,351.9h-51.2v-2.1c.1-23.4,5.4-35.2,17.6-54.8,10.9-17.8,12.9-22,12.9-34.1s-.6-12.1-5.5-12.1-5.9,4-5.9,11v7.8h-19.3v-7.2c0-13.7,3.9-30.4,26-30.4s25.7,14.1,25.7,31.3-3.8,24-15.8,43.3c-6,9.6-11.2,18.6-11.9,27.2h30l-2.6,19.8ZM1075.7,250c-13.4,29.2-21.1,63-24.1,101.8h-21.9c2.5-37.6,13.5-75.4,24.8-99.7h-29v-20.4h50.1v18.3ZM1132.3,319.5c0,18.6-6.1,33.9-28.1,33.9s-26.6-15.8-26.6-33.8v-57.3c0-19.9,9.4-32.2,27.3-32.2s27.5,13.5,27.5,32v57.4ZM1191.3,319.5c0,18.6-6.1,33.9-28.1,33.9s-26.6-15.8-26.6-33.8v-57.3c0-19.9,9.4-32.2,27.3-32.2s27.5,13.5,27.5,32v57.4ZM1222.5,351.9h-20.6v-95.3c-2.7,0-6.4-.2-9.1-.7v-16.6c6.2-.6,11.4-3.8,14.2-7.9h15.6v120.5Z"/>
  </g>
</svg>