<svg width="1525" height="305" viewBox="0 0 1525 305" fill="none" xmlns="http://www.w3.org/2000/svg">
<path d="M1148.82 249H1117.28L1188.15 52.0771H1222.48L1293.34 249H1261.8L1206.13 87.8464H1204.59L1148.82 249ZM1154.11 171.885H1256.42V196.885H1154.11V171.885Z" fill="white"/>
<path d="M1321.78 249V52.0771H1391.97C1407.29 52.0771 1419.99 54.8656 1430.05 60.4425C1440.11 66.0195 1447.65 73.6477 1452.65 83.3271C1457.65 92.9425 1460.15 103.776 1460.15 115.827C1460.15 127.943 1457.61 138.84 1452.55 148.519C1447.55 158.135 1439.99 165.763 1429.86 171.404C1419.79 176.981 1407.13 179.769 1391.88 179.769H1343.61V154.577H1389.18C1398.86 154.577 1406.72 152.91 1412.74 149.577C1418.77 146.18 1423.19 141.564 1426.01 135.731C1428.83 129.898 1430.24 123.263 1430.24 115.827C1430.24 108.391 1428.83 101.789 1426.01 96.0195C1423.19 90.2502 1418.74 85.731 1412.65 82.4618C1406.62 79.1925 1398.67 77.5579 1388.8 77.5579H1351.49V249H1321.78Z" fill="white"/>
<path d="M1524.69 52.0771V249H1494.98V52.0771H1524.69Z" fill="white"/>
<path d="M485.192 103.808C484.167 94.7053 479.936 87.654 472.5 82.654C465.064 77.5899 455.705 75.0578 444.423 75.0578C436.346 75.0578 429.359 76.3399 423.462 78.904C417.564 81.404 412.981 84.8655 409.712 89.2886C406.506 93.6476 404.904 98.6155 404.904 104.192C404.904 108.872 405.994 112.91 408.173 116.308C410.417 119.705 413.333 122.558 416.923 124.866C420.577 127.109 424.487 129 428.654 130.539C432.821 132.013 436.827 133.231 440.673 134.192L459.904 139.192C466.186 140.731 472.628 142.814 479.231 145.442C485.833 148.071 491.955 151.532 497.596 155.827C503.237 160.122 507.789 165.442 511.25 171.789C514.776 178.135 516.539 185.731 516.539 194.577C516.539 205.731 513.654 215.635 507.885 224.289C502.18 232.942 493.878 239.769 482.981 244.769C472.148 249.769 459.039 252.269 443.654 252.269C428.91 252.269 416.154 249.93 405.385 245.25C394.615 240.571 386.186 233.936 380.096 225.346C374.006 216.692 370.641 206.436 370 194.577H399.808C400.385 201.692 402.692 207.622 406.731 212.366C410.833 217.045 416.058 220.539 422.404 222.846C428.814 225.09 435.833 226.212 443.462 226.212C451.859 226.212 459.327 224.898 465.866 222.269C472.468 219.577 477.66 215.859 481.442 211.116C485.225 206.308 487.116 200.699 487.116 194.289C487.116 188.455 485.449 183.68 482.116 179.962C478.846 176.244 474.391 173.167 468.75 170.731C463.173 168.295 456.859 166.148 449.808 164.289L426.539 157.942C410.769 153.648 398.269 147.333 389.038 139C379.872 130.667 375.288 119.641 375.288 105.923C375.288 94.5771 378.365 84.6732 384.519 76.2117C390.673 67.7501 399.006 61.1796 409.519 56.5002C420.032 51.7566 431.891 49.3848 445.096 49.3848C458.43 49.3848 470.192 51.7245 480.385 56.404C490.641 61.0835 498.718 67.5258 504.616 75.7309C510.513 83.8719 513.59 93.2309 513.846 103.808H485.192Z" fill="white"/>
<path d="M643.294 187.75V101.308H672.14V249H643.871V223.423H642.332C638.935 231.308 633.486 237.878 625.986 243.135C618.55 248.327 609.287 250.923 598.197 250.923C588.71 250.923 580.313 248.84 573.005 244.673C565.761 240.442 560.056 234.192 555.89 225.923C551.787 217.654 549.736 207.43 549.736 195.25V101.308H578.486V191.789C578.486 201.853 581.274 209.866 586.851 215.827C592.428 221.789 599.672 224.769 608.582 224.769C613.967 224.769 619.319 223.423 624.64 220.731C630.024 218.039 634.479 213.968 638.005 208.519C641.595 203.071 643.358 196.148 643.294 187.75Z" fill="white"/>
<path d="M710.77 304.385V101.308H738.847V125.25H741.25C742.917 122.173 745.321 118.616 748.462 114.577C751.603 110.539 755.962 107.013 761.539 104C767.116 100.923 774.488 99.3848 783.654 99.3848C795.577 99.3848 806.219 102.398 815.578 108.423C824.937 114.449 832.276 123.135 837.597 134.481C842.981 145.827 845.674 159.481 845.674 175.442C845.674 191.404 843.013 205.09 837.693 216.5C832.372 227.846 825.065 236.596 815.77 242.75C806.475 248.84 795.866 251.885 783.943 251.885C774.969 251.885 767.629 250.378 761.924 247.366C756.283 244.353 751.859 240.827 748.654 236.789C745.449 232.75 742.981 229.16 741.25 226.019H739.52V304.385H710.77ZM738.943 175.154C738.943 185.539 740.449 194.641 743.462 202.462C746.475 210.282 750.834 216.404 756.539 220.827C762.244 225.186 769.231 227.366 777.501 227.366C786.09 227.366 793.27 225.09 799.039 220.539C804.808 215.923 809.167 209.673 812.116 201.789C815.129 193.904 816.635 185.026 816.635 175.154C816.635 165.41 815.161 156.66 812.212 148.904C809.328 141.148 804.969 135.026 799.135 130.539C793.366 126.051 786.154 123.808 777.501 123.808C769.167 123.808 762.116 125.955 756.347 130.25C750.642 134.545 746.315 140.539 743.366 148.231C740.417 155.923 738.943 164.898 738.943 175.154Z" fill="white"/>
<path d="M941.539 251.981C926.988 251.981 914.456 248.872 903.943 242.654C893.494 236.372 885.417 227.558 879.712 216.212C874.071 204.801 871.251 191.436 871.251 176.116C871.251 160.987 874.071 147.654 879.712 136.116C885.417 124.577 893.366 115.571 903.558 109.096C913.815 102.622 925.802 99.3848 939.52 99.3848C947.853 99.3848 955.93 100.763 963.751 103.519C971.571 106.276 978.591 110.603 984.809 116.5C991.026 122.398 995.93 130.058 999.52 139.481C1003.11 148.84 1004.9 160.218 1004.9 173.616V183.808H887.501V162.269H976.732C976.732 154.705 975.193 148.007 972.116 142.173C969.039 136.276 964.712 131.628 959.135 128.231C953.623 124.833 947.148 123.135 939.712 123.135C931.635 123.135 924.584 125.122 918.558 129.096C912.597 133.007 907.982 138.135 904.712 144.481C901.507 150.763 899.905 157.59 899.905 164.962V181.789C899.905 191.66 901.635 200.058 905.097 206.981C908.622 213.904 913.526 219.192 919.808 222.846C926.09 226.436 933.43 228.231 941.828 228.231C947.276 228.231 952.244 227.462 956.732 225.923C961.219 224.321 965.097 221.949 968.366 218.808C971.635 215.667 974.135 211.789 975.866 207.173L1003.08 212.077C1000.9 220.09 996.988 227.109 991.347 233.135C985.77 239.096 978.751 243.744 970.289 247.077C961.892 250.346 952.308 251.981 941.539 251.981Z" fill="white"/>
<path d="M1036.8 249V101.308H1064.59V124.769H1066.13C1068.82 116.821 1073.57 110.571 1080.36 106.019C1087.22 101.404 1094.98 99.0963 1103.63 99.0963C1105.43 99.0963 1107.54 99.1604 1109.98 99.2886C1112.48 99.4168 1114.43 99.5771 1115.84 99.7694V127.269C1114.69 126.949 1112.64 126.596 1109.69 126.212C1106.74 125.763 1103.79 125.539 1100.84 125.539C1094.05 125.539 1087.99 126.981 1082.67 129.866C1077.41 132.686 1073.25 136.628 1070.17 141.692C1067.09 146.692 1065.55 152.398 1065.55 158.808V249H1036.8Z" fill="white"/>
<path d="M211.601 278.959C195.395 278.959 180.259 274.376 167.419 266.435C177.504 255.31 185.272 242.046 189.962 227.404C196.158 231.53 203.598 233.935 211.601 233.935C233.188 233.935 250.689 216.434 250.689 194.846V151.255H295.713V194.846C295.713 241.3 258.054 278.959 211.601 278.959Z" fill="white"/>
<path d="M88.3992 22.1169C104.605 22.1169 119.741 26.7001 132.581 34.641C122.496 45.7662 114.727 59.0305 110.038 73.6722C103.842 69.5462 96.4014 67.1416 88.3992 67.1416C66.8117 67.1416 49.3111 84.6423 49.3111 106.23L49.3111 149.821L4.28648 149.821L4.28649 106.23C4.28649 59.7759 41.9453 22.1169 88.3992 22.1169Z" fill="white"/>
<path d="M49.3114 133.245L49.3114 194.846C49.3114 216.434 66.8121 233.935 88.3996 233.935C109.988 233.935 127.488 216.434 127.488 194.846L127.488 151.255L172.513 151.255L172.513 194.846C172.513 241.301 134.854 278.959 88.3996 278.959C41.9457 278.959 4.28686 241.3 4.28686 194.846L4.28687 133.245L49.3114 133.245Z" fill="white"/>
<path d="M250.688 167.831L250.688 106.23C250.688 84.6422 233.188 67.1415 211.6 67.1415C190.012 67.1415 172.511 84.6423 172.511 106.23L172.511 157.321L127.487 157.321L127.487 106.23C127.487 59.7756 165.146 22.1167 211.6 22.1168C258.054 22.1168 295.713 59.7758 295.713 106.23L295.713 167.831L250.688 167.831Z" fill="white"/>
</svg>
