<svg width="1525" height="304" viewBox="0 0 1525 304" fill="none" xmlns="http://www.w3.org/2000/svg">
<path d="M1148.82 248.46H1117.28L1188.15 51.5371H1222.48L1293.34 248.46H1261.8L1206.13 87.3063H1204.59L1148.82 248.46ZM1154.11 171.345H1256.42V196.345H1154.11V171.345Z" fill="#121212"/>
<path d="M1321.78 248.46V51.5371H1391.97C1407.29 51.5371 1419.99 54.3256 1430.05 59.9025C1440.11 65.4794 1447.65 73.1076 1452.65 82.7871C1457.65 92.4025 1460.15 103.236 1460.15 115.287C1460.15 127.402 1457.61 138.3 1452.55 147.979C1447.55 157.595 1439.99 165.223 1429.86 170.864C1419.79 176.441 1407.13 179.229 1391.88 179.229H1343.61V154.037H1389.18C1398.86 154.037 1406.72 152.37 1412.74 149.037C1418.77 145.64 1423.19 141.024 1426.01 135.191C1428.83 129.358 1430.24 122.723 1430.24 115.287C1430.24 107.851 1428.83 101.249 1426.01 95.4794C1423.19 89.7102 1418.74 85.191 1412.65 81.9217C1406.62 78.6525 1398.67 77.0179 1388.8 77.0179H1351.49V248.46H1321.78Z" fill="#121212"/>
<path d="M1524.69 51.5371V248.46H1494.98V51.5371H1524.69Z" fill="#121212"/>
<path d="M485.192 103.269C484.167 94.1662 479.936 87.1149 472.5 82.1149C465.064 77.0508 455.705 74.5188 444.423 74.5188C436.346 74.5188 429.359 75.8008 423.462 78.3649C417.564 80.8649 412.981 84.3265 409.712 88.7496C406.506 93.1085 404.904 98.0765 404.904 103.653C404.904 108.333 405.994 112.371 408.173 115.769C410.417 119.166 413.333 122.019 416.923 124.326C420.577 126.57 424.487 128.461 428.654 130C432.821 131.474 436.827 132.692 440.673 133.653L459.904 138.653C466.186 140.192 472.628 142.275 479.231 144.903C485.833 147.532 491.955 150.993 497.596 155.288C503.237 159.583 507.789 164.903 511.25 171.25C514.776 177.596 516.539 185.192 516.539 194.038C516.539 205.192 513.654 215.096 507.885 223.75C502.18 232.403 493.878 239.23 482.981 244.23C472.148 249.23 459.039 251.73 443.654 251.73C428.91 251.73 416.154 249.391 405.385 244.711C394.615 240.032 386.186 233.397 380.096 224.807C374.006 216.153 370.641 205.897 370 194.038H399.808C400.385 201.153 402.692 207.083 406.731 211.826C410.833 216.506 416.058 220 422.404 222.307C428.814 224.551 435.833 225.673 443.462 225.673C451.859 225.673 459.327 224.359 465.866 221.73C472.468 219.038 477.66 215.32 481.442 210.576C485.225 205.769 487.116 200.16 487.116 193.75C487.116 187.916 485.449 183.141 482.116 179.423C478.846 175.705 474.391 172.628 468.75 170.192C463.173 167.756 456.859 165.609 449.808 163.75L426.539 157.403C410.769 153.109 398.269 146.794 389.038 138.461C379.872 130.128 375.288 119.102 375.288 105.384C375.288 94.038 378.365 84.1342 384.519 75.6726C390.673 67.2111 399.006 60.6406 409.519 55.9611C420.032 51.2175 431.891 48.8457 445.096 48.8457C458.43 48.8457 470.192 51.1854 480.385 55.8649C490.641 60.5444 498.718 66.9867 504.616 75.1919C510.513 83.3329 513.59 92.6918 513.846 103.269H485.192Z" fill="#121212"/>
<path d="M643.294 187.211V100.769H672.14V248.461H643.871V222.884H642.332C638.935 230.769 633.486 237.339 625.986 242.596C618.55 247.788 609.287 250.384 598.197 250.384C588.71 250.384 580.313 248.301 573.005 244.134C565.761 239.903 560.056 233.653 555.89 225.384C551.787 217.115 549.736 206.891 549.736 194.711V100.769H578.486V191.25C578.486 201.314 581.274 209.326 586.851 215.288C592.428 221.25 599.672 224.23 608.582 224.23C613.967 224.23 619.319 222.884 624.64 220.192C630.024 217.5 634.479 213.429 638.005 207.98C641.595 202.532 643.358 195.609 643.294 187.211Z" fill="#121212"/>
<path d="M710.77 303.846V100.769H738.847V124.711H741.25C742.917 121.634 745.321 118.076 748.462 114.038C751.603 110 755.962 106.474 761.539 103.461C767.116 100.384 774.488 98.8457 783.654 98.8457C795.577 98.8457 806.219 101.859 815.577 107.884C824.936 113.91 832.276 122.596 837.597 133.942C842.981 145.288 845.674 158.942 845.674 174.903C845.674 190.865 843.013 204.551 837.693 215.961C832.372 227.307 825.065 236.057 815.77 242.211C806.475 248.301 795.866 251.346 783.943 251.346C774.968 251.346 767.629 249.839 761.924 246.826C756.283 243.814 751.859 240.288 748.654 236.25C745.449 232.211 742.981 228.621 741.25 225.48H739.52V303.846H710.77ZM738.943 174.615C738.943 185 740.449 194.102 743.462 201.923C746.475 209.743 750.834 215.865 756.539 220.288C762.244 224.647 769.231 226.826 777.501 226.826C786.09 226.826 793.27 224.551 799.039 220C804.808 215.384 809.167 209.134 812.116 201.25C815.129 193.365 816.635 184.487 816.635 174.615C816.635 164.871 815.161 156.121 812.212 148.365C809.327 140.609 804.968 134.487 799.135 130C793.366 125.512 786.154 123.269 777.501 123.269C769.167 123.269 762.116 125.416 756.347 129.711C750.641 134.006 746.315 140 743.366 147.692C740.417 155.384 738.943 164.359 738.943 174.615Z" fill="#121212"/>
<path d="M941.539 251.442C926.988 251.442 914.456 248.333 903.943 242.115C893.494 235.833 885.417 227.019 879.712 215.673C874.071 204.262 871.251 190.897 871.251 175.576C871.251 160.448 874.071 147.115 879.712 135.576C885.417 124.038 893.366 115.032 903.558 108.557C913.815 102.083 925.802 98.8457 939.52 98.8457C947.853 98.8457 955.93 100.224 963.751 102.98C971.571 105.737 978.59 110.064 984.808 115.961C991.026 121.859 995.93 129.519 999.52 138.942C1003.11 148.301 1004.9 159.679 1004.9 173.076V183.269H887.501V161.73H976.732C976.732 154.166 975.193 147.468 972.116 141.634C969.039 135.737 964.712 131.089 959.135 127.692C953.622 124.294 947.148 122.596 939.712 122.596C931.635 122.596 924.584 124.583 918.558 128.557C912.597 132.467 907.981 137.596 904.712 143.942C901.507 150.224 899.904 157.051 899.904 164.423V181.25C899.904 191.121 901.635 199.519 905.097 206.442C908.622 213.365 913.526 218.653 919.808 222.307C926.09 225.897 933.43 227.692 941.828 227.692C947.276 227.692 952.244 226.923 956.732 225.384C961.219 223.782 965.097 221.41 968.366 218.269C971.635 215.128 974.135 211.25 975.866 206.634L1003.08 211.538C1000.9 219.551 996.988 226.57 991.347 232.596C985.77 238.557 978.751 243.205 970.289 246.538C961.892 249.807 952.308 251.442 941.539 251.442Z" fill="#121212"/>
<path d="M1036.8 248.461V100.769H1064.59V124.23H1066.13C1068.82 116.282 1073.57 110.032 1080.36 105.48C1087.22 100.865 1094.98 98.5572 1103.63 98.5572C1105.43 98.5572 1107.54 98.6213 1109.98 98.7496C1112.48 98.8777 1114.43 99.038 1115.84 99.2303V126.73C1114.69 126.41 1112.64 126.057 1109.69 125.673C1106.74 125.224 1103.79 125 1100.84 125C1094.05 125 1087.99 126.442 1082.67 129.326C1077.41 132.147 1073.25 136.089 1070.17 141.153C1067.09 146.153 1065.55 151.859 1065.55 158.269V248.461H1036.8Z" fill="#121212"/>
<path d="M211.601 278.421C195.395 278.421 180.259 273.838 167.419 265.897C177.504 254.772 185.273 241.508 189.962 226.866C196.158 230.992 203.599 233.396 211.601 233.396C233.188 233.396 250.689 215.896 250.689 194.308V150.717H295.714V194.308C295.714 240.762 258.055 278.421 211.601 278.421Z" fill="#3A3A3A"/>
<path d="M88.3992 21.5788C104.605 21.5788 119.741 26.162 132.581 34.1029C122.496 45.2281 114.727 58.4924 110.038 73.1341C103.842 69.0081 96.4014 66.6035 88.3992 66.6035C66.8117 66.6035 49.3111 84.1043 49.3111 105.692L49.3111 149.283L4.28648 149.283L4.28649 105.692C4.28649 59.2378 41.9453 21.5788 88.3992 21.5788Z" fill="#3A3A3A"/>
<path d="M49.3117 132.707L49.3117 194.308C49.3117 215.896 66.8123 233.397 88.3998 233.397C109.988 233.397 127.489 215.896 127.489 194.308L127.489 150.717L172.513 150.717L172.513 194.308C172.513 240.762 134.854 278.421 88.3998 278.421C41.9459 278.421 4.2871 240.762 4.2871 194.308L4.28711 132.707L49.3117 132.707Z" fill="url(#paint0_linear_137_12212)"/>
<path d="M250.688 167.293L250.688 105.692C250.688 84.1041 233.188 66.6034 211.6 66.6034C190.012 66.6034 172.511 84.1043 172.511 105.692L172.511 156.783L127.487 156.783L127.487 105.692C127.487 59.2375 165.146 21.5787 211.6 21.5787C258.054 21.5787 295.713 59.2377 295.713 105.692L295.713 167.293L250.688 167.293Z" fill="url(#paint1_linear_137_12212)"/>
<defs>
<linearGradient id="paint0_linear_137_12212" x1="32.9317" y1="159.79" x2="65.0386" y2="195.415" gradientUnits="userSpaceOnUse">
<stop stop-color="#3A3A3A"/>
<stop offset="1" stop-color="#FF4274"/>
</linearGradient>
<linearGradient id="paint1_linear_137_12212" x1="267.068" y1="140.21" x2="234.961" y2="104.585" gradientUnits="userSpaceOnUse">
<stop stop-color="#3A3A3A"/>
<stop offset="1" stop-color="#FF4274"/>
</linearGradient>
</defs>
</svg>
