<svg width="1545" height="324" viewBox="0 0 1545 324" fill="none" xmlns="http://www.w3.org/2000/svg">
<path d="M1158.82 258.462H1127.28L1198.15 61.5386H1232.48L1303.34 258.462H1271.8L1216.13 97.3078H1214.59L1158.82 258.462ZM1164.11 181.346H1266.42V206.346H1164.11V181.346Z" fill="#FF4375"/>
<path d="M1331.78 258.462V61.5386H1401.97C1417.29 61.5386 1429.99 64.327 1440.05 69.904C1450.11 75.4809 1457.65 83.1091 1462.65 92.7886C1467.65 102.404 1470.15 113.237 1470.15 125.289C1470.15 137.404 1467.61 148.301 1462.55 157.981C1457.55 167.596 1449.99 175.224 1439.86 180.865C1429.79 186.442 1417.13 189.231 1401.88 189.231H1353.61V164.039H1399.18C1408.86 164.039 1416.72 162.372 1422.74 159.039C1428.77 155.641 1433.19 151.026 1436.01 145.192C1438.83 139.359 1440.24 132.724 1440.24 125.289C1440.24 117.853 1438.83 111.25 1436.01 105.481C1433.19 99.7116 1428.74 95.1924 1422.65 91.9232C1416.62 88.654 1408.67 87.0193 1398.8 87.0193H1361.49V258.462H1331.78Z" fill="#FF4375"/>
<path d="M1534.69 61.5386V258.462H1504.98V61.5386H1534.69Z" fill="#FF4375"/>
<path d="M495.192 113.27C494.167 104.167 489.936 97.1159 482.5 92.1159C475.064 87.0518 465.705 84.5198 454.423 84.5198C446.346 84.5198 439.359 85.8018 433.462 88.3659C427.564 90.8659 422.981 94.3274 419.712 98.7505C416.506 103.109 414.904 108.077 414.904 113.654C414.904 118.334 415.994 122.372 418.173 125.77C420.417 129.167 423.333 132.02 426.923 134.327C430.577 136.571 434.487 138.462 438.654 140.001C442.821 141.475 446.827 142.693 450.673 143.654L469.904 148.654C476.186 150.193 482.628 152.276 489.231 154.904C495.833 157.533 501.955 160.994 507.596 165.289C513.237 169.584 517.789 174.904 521.25 181.251C524.776 187.597 526.539 195.193 526.539 204.039C526.539 215.193 523.654 225.097 517.885 233.751C512.18 242.404 503.878 249.231 492.981 254.231C482.148 259.231 469.039 261.731 453.654 261.731C438.91 261.731 426.154 259.392 415.385 254.712C404.615 250.033 396.186 243.398 390.096 234.808C384.006 226.154 380.641 215.898 380 204.039H409.808C410.385 211.154 412.692 217.084 416.731 221.827C420.833 226.507 426.058 230.001 432.404 232.308C438.814 234.552 445.833 235.674 453.462 235.674C461.859 235.674 469.327 234.359 475.866 231.731C482.468 229.039 487.66 225.321 491.442 220.577C495.225 215.77 497.116 210.161 497.116 203.751C497.116 197.917 495.449 193.142 492.116 189.424C488.846 185.706 484.391 182.629 478.75 180.193C473.173 177.757 466.859 175.609 459.808 173.751L436.539 167.404C420.769 163.109 408.269 156.795 399.038 148.462C389.872 140.129 385.288 129.103 385.288 115.385C385.288 104.039 388.365 94.1351 394.519 85.6736C400.673 77.2121 409.006 70.6416 419.519 65.9621C430.032 61.2185 441.891 58.8467 455.096 58.8467C468.43 58.8467 480.192 61.1864 490.385 65.8659C500.641 70.5454 508.718 76.9877 514.616 85.1928C520.513 93.3339 523.59 102.693 523.846 113.27H495.192Z" fill="white"/>
<path d="M653.294 197.212V110.77H682.14V258.462H653.871V232.885H652.332C648.935 240.77 643.486 247.34 635.986 252.597C628.55 257.789 619.287 260.385 608.197 260.385C598.71 260.385 590.313 258.302 583.005 254.135C575.761 249.904 570.056 243.654 565.89 235.385C561.787 227.116 559.736 216.892 559.736 204.712V110.77H588.486V201.251C588.486 211.315 591.274 219.327 596.851 225.289C602.428 231.251 609.672 234.231 618.582 234.231C623.967 234.231 629.319 232.885 634.64 230.193C640.024 227.501 644.479 223.43 648.005 217.981C651.595 212.533 653.358 205.609 653.294 197.212Z" fill="white"/>
<path d="M720.77 313.847V110.77H748.847V134.712H751.25C752.917 131.635 755.321 128.077 758.462 124.039C761.603 120.001 765.962 116.475 771.539 113.462C777.116 110.385 784.488 108.847 793.654 108.847C805.577 108.847 816.219 111.86 825.578 117.885C834.936 123.911 842.276 132.597 847.597 143.943C852.981 155.289 855.674 168.943 855.674 184.904C855.674 200.866 853.013 214.552 847.693 225.962C842.372 237.308 835.065 246.058 825.77 252.212C816.475 258.302 805.866 261.347 793.943 261.347C784.968 261.347 777.629 259.84 771.924 256.827C766.283 253.815 761.859 250.289 758.654 246.251C755.449 242.212 752.981 238.622 751.25 235.481H749.52V313.847H720.77ZM748.943 184.616C748.943 195.001 750.449 204.103 753.462 211.924C756.475 219.744 760.834 225.866 766.539 230.289C772.244 234.648 779.231 236.827 787.501 236.827C796.09 236.827 803.27 234.552 809.039 230.001C814.808 225.385 819.167 219.135 822.116 211.251C825.129 203.366 826.635 194.488 826.635 184.616C826.635 174.872 825.161 166.122 822.212 158.366C819.327 150.609 814.969 144.488 809.135 140.001C803.366 135.513 796.154 133.27 787.501 133.27C779.167 133.27 772.116 135.417 766.347 139.712C760.642 144.007 756.315 150.001 753.366 157.693C750.417 165.385 748.943 174.359 748.943 184.616Z" fill="white"/>
<path d="M951.539 261.443C936.988 261.443 924.456 258.334 913.943 252.116C903.494 245.834 895.417 237.02 889.712 225.674C884.071 214.263 881.251 200.898 881.251 185.577C881.251 170.449 884.071 157.116 889.712 145.577C895.417 134.039 903.366 125.033 913.558 118.558C923.815 112.084 935.802 108.847 949.52 108.847C957.853 108.847 965.93 110.225 973.751 112.981C981.571 115.738 988.591 120.065 994.808 125.962C1001.03 131.859 1005.93 139.52 1009.52 148.943C1013.11 158.302 1014.9 169.68 1014.9 183.077V193.27H897.501V171.731H986.732C986.732 164.167 985.193 157.468 982.116 151.635C979.039 145.738 974.712 141.09 969.135 137.693C963.622 134.295 957.148 132.597 949.712 132.597C941.635 132.597 934.584 134.584 928.558 138.558C922.597 142.468 917.981 147.597 914.712 153.943C911.507 160.225 909.904 167.052 909.904 174.424V191.251C909.904 201.122 911.635 209.52 915.097 216.443C918.622 223.366 923.526 228.654 929.808 232.308C936.09 235.898 943.43 237.693 951.828 237.693C957.276 237.693 962.244 236.924 966.732 235.385C971.219 233.783 975.097 231.411 978.366 228.27C981.635 225.129 984.135 221.251 985.866 216.635L1013.08 221.539C1010.9 229.552 1006.99 236.571 1001.35 242.597C995.77 248.558 988.751 253.206 980.289 256.539C971.892 259.808 962.308 261.443 951.539 261.443Z" fill="white"/>
<path d="M1046.8 258.462V110.77H1074.59V134.231H1076.13C1078.82 126.283 1083.57 120.033 1090.36 115.481C1097.22 110.866 1104.98 108.558 1113.63 108.558C1115.43 108.558 1117.54 108.622 1119.98 108.751C1122.48 108.879 1124.43 109.039 1125.84 109.231V136.731C1124.69 136.411 1122.64 136.058 1119.69 135.674C1116.74 135.225 1113.79 135.001 1110.84 135.001C1104.05 135.001 1097.99 136.443 1092.67 139.327C1087.41 142.148 1083.25 146.09 1080.17 151.154C1077.09 156.154 1075.55 161.859 1075.55 168.27V258.462H1046.8Z" fill="white"/>
<path d="M221.601 288.422C205.395 288.422 190.259 283.839 177.419 275.898C187.504 264.772 195.272 251.508 199.962 236.866C206.158 240.992 213.598 243.397 221.601 243.397C243.188 243.397 260.689 225.896 260.689 204.309V160.717H305.713V204.309C305.713 250.763 268.054 288.422 221.601 288.422Z" fill="#3A3A3A"/>
<path d="M98.3992 31.5798C114.605 31.5798 129.741 36.163 142.581 44.1039C132.496 55.2291 124.727 68.4933 120.038 83.1351C113.842 79.0091 106.401 76.6045 98.3992 76.6045C76.8117 76.6045 59.3111 94.1052 59.3111 115.693L59.3111 159.284L14.2865 159.284L14.2865 115.693C14.2865 69.2387 51.9453 31.5797 98.3992 31.5798Z" fill="#3A3A3A"/>
<path d="M59.3114 142.708L59.3114 204.309C59.3114 225.896 76.8121 243.397 98.3996 243.397C119.988 243.397 137.488 225.896 137.488 204.309L137.488 160.717L182.513 160.717L182.513 204.309C182.513 250.763 144.854 288.422 98.3996 288.422C51.9457 288.422 14.2869 250.763 14.2869 204.309L14.2869 142.708L59.3114 142.708Z" fill="url(#paint0_linear_85_3484)"/>
<path d="M260.688 177.294L260.688 115.693C260.688 94.1051 243.188 76.6044 221.6 76.6044C200.012 76.6044 182.511 94.1052 182.511 115.693L182.511 166.784L137.487 166.784L137.487 115.693C137.487 69.2385 175.146 31.5796 221.6 31.5796C268.054 31.5796 305.713 69.2386 305.713 115.693L305.713 177.294L260.688 177.294Z" fill="url(#paint1_linear_85_3484)"/>
<defs>
<linearGradient id="paint0_linear_85_3484" x1="42.9315" y1="169.79" x2="75.0384" y2="205.416" gradientUnits="userSpaceOnUse">
<stop stop-color="#3A3A3A"/>
<stop offset="1" stop-color="#FF4274"/>
</linearGradient>
<linearGradient id="paint1_linear_85_3484" x1="277.068" y1="150.211" x2="244.961" y2="114.586" gradientUnits="userSpaceOnUse">
<stop stop-color="#3A3A3A"/>
<stop offset="1" stop-color="#FF4274"/>
</linearGradient>
</defs>
</svg>
