<svg width="455" height="561" viewBox="0 0 455 561" fill="none" xmlns="http://www.w3.org/2000/svg">
<g opacity="0.7">
<rect opacity="0.2" x="227.795" y="279.754" width="195.789" height="195.789" rx="12.7907" transform="rotate(-135 227.795 279.754)" fill="url(#paint0_linear_530_267)"/>
</g>
<g filter="url(#filter0_dd_530_267)">
<path d="M171.689 154.215C164.561 147.088 164.561 135.532 171.689 128.405L214.883 85.211C222.01 78.0836 233.566 78.0836 240.693 85.211L283.887 128.405C291.014 135.532 291.014 147.088 283.887 154.215L240.693 197.409C233.566 204.537 222.01 204.537 214.883 197.409L171.689 154.215Z" fill="#FF4375"/>
</g>
<g clip-path="url(#clip0_530_267)">
<path d="M234.134 149.44C232.464 149.44 230.905 148.968 229.582 148.15C230.621 147.003 231.422 145.637 231.905 144.128C232.543 144.554 233.309 144.801 234.134 144.801C236.358 144.801 238.161 142.998 238.161 140.774V136.284H242.799V140.774C242.799 145.56 238.92 149.44 234.134 149.44Z" fill="white"/>
<path d="M221.442 122.98C223.111 122.98 224.67 123.452 225.993 124.27C224.954 125.416 224.154 126.782 223.671 128.291C223.032 127.866 222.266 127.618 221.442 127.618C219.218 127.618 217.415 129.421 217.415 131.645L217.415 136.136L212.776 136.136L212.776 131.645C212.776 126.859 216.656 122.98 221.442 122.98Z" fill="white"/>
<path d="M217.415 134.428L217.415 140.774C217.415 142.998 219.218 144.801 221.442 144.801C223.666 144.801 225.468 142.998 225.468 140.774L225.468 136.284L230.107 136.284L230.107 140.774C230.107 145.56 226.227 149.44 221.442 149.44C216.656 149.44 212.776 145.56 212.776 140.774L212.776 134.428L217.415 134.428Z" fill="white"/>
<path d="M238.161 137.991L238.161 131.645C238.161 129.421 236.358 127.618 234.134 127.618C231.91 127.618 230.107 129.421 230.107 131.645L230.107 136.909L225.468 136.909L225.468 131.645C225.468 126.859 229.348 122.98 234.134 122.98C238.919 122.98 242.799 126.859 242.799 131.645L242.799 137.991L238.161 137.991Z" fill="white"/>
</g>
<path d="M233.486 161.429H232.594L234.598 155.86H235.569L237.573 161.429H236.681L235.107 156.871H235.063L233.486 161.429ZM233.635 159.248H236.529V159.955H233.635V159.248Z" fill="white"/>
<path d="M238.377 161.429V155.86H240.362C240.796 155.86 241.154 155.939 241.439 156.096C241.724 156.254 241.937 156.47 242.078 156.744C242.22 157.015 242.29 157.322 242.29 157.663C242.29 158.005 242.219 158.313 242.075 158.587C241.934 158.859 241.72 159.075 241.434 159.234C241.149 159.392 240.791 159.471 240.36 159.471H238.994V158.758H240.283C240.557 158.758 240.779 158.711 240.95 158.617C241.12 158.521 241.245 158.39 241.325 158.225C241.405 158.061 241.445 157.873 241.445 157.663C241.445 157.452 241.405 157.266 241.325 157.102C241.245 156.939 241.119 156.811 240.947 156.719C240.776 156.627 240.552 156.58 240.273 156.58H239.217V161.429H238.377Z" fill="white"/>
<path d="M244.116 155.86V161.429H243.275V155.86H244.116Z" fill="white"/>
<path d="M214.718 157.323C214.689 157.065 214.569 156.866 214.359 156.724C214.149 156.581 213.884 156.51 213.565 156.51C213.337 156.51 213.139 156.546 212.972 156.618C212.806 156.689 212.676 156.787 212.584 156.912C212.493 157.035 212.448 157.176 212.448 157.334C212.448 157.466 212.478 157.58 212.54 157.676C212.603 157.772 212.686 157.853 212.787 157.918C212.891 157.982 213.001 158.035 213.119 158.079C213.237 158.12 213.35 158.155 213.459 158.182L214.003 158.323C214.181 158.367 214.363 158.426 214.55 158.5C214.736 158.574 214.909 158.672 215.069 158.794C215.228 158.915 215.357 159.066 215.455 159.245C215.555 159.425 215.605 159.64 215.605 159.89C215.605 160.205 215.523 160.485 215.36 160.73C215.199 160.975 214.964 161.168 214.656 161.309C214.349 161.451 213.978 161.521 213.543 161.521C213.126 161.521 212.766 161.455 212.461 161.323C212.157 161.19 211.918 161.003 211.746 160.76C211.574 160.515 211.479 160.225 211.46 159.89H212.303C212.32 160.091 212.385 160.259 212.499 160.393C212.615 160.525 212.763 160.624 212.942 160.689C213.124 160.753 213.322 160.784 213.538 160.784C213.775 160.784 213.987 160.747 214.172 160.673C214.358 160.597 214.505 160.492 214.612 160.357C214.719 160.221 214.773 160.063 214.773 159.882C214.773 159.717 214.725 159.582 214.631 159.476C214.539 159.371 214.413 159.284 214.253 159.215C214.095 159.146 213.917 159.086 213.717 159.033L213.059 158.854C212.613 158.732 212.26 158.554 211.999 158.318C211.74 158.082 211.61 157.771 211.61 157.383C211.61 157.062 211.697 156.782 211.871 156.542C212.045 156.303 212.281 156.117 212.578 155.985C212.875 155.851 213.211 155.784 213.584 155.784C213.961 155.784 214.294 155.85 214.582 155.982C214.872 156.114 215.101 156.297 215.267 156.529C215.434 156.759 215.521 157.024 215.528 157.323H214.718Z" fill="white"/>
<path d="M219.189 159.697V157.252H220.005V161.429H219.206V160.705H219.162C219.066 160.928 218.912 161.114 218.7 161.263C218.49 161.41 218.228 161.483 217.914 161.483C217.646 161.483 217.408 161.424 217.201 161.306C216.997 161.187 216.835 161.01 216.717 160.776C216.601 160.542 216.543 160.253 216.543 159.909V157.252H217.356V159.811C217.356 160.095 217.435 160.322 217.593 160.491C217.751 160.659 217.956 160.744 218.208 160.744C218.36 160.744 218.511 160.705 218.662 160.629C218.814 160.553 218.94 160.438 219.04 160.284C219.141 160.13 219.191 159.934 219.189 159.697Z" fill="white"/>
<path d="M221.098 162.995V157.252H221.892V157.929H221.96C222.007 157.842 222.075 157.741 222.163 157.627C222.252 157.513 222.376 157.413 222.533 157.328C222.691 157.241 222.899 157.198 223.159 157.198C223.496 157.198 223.797 157.283 224.062 157.453C224.326 157.624 224.534 157.869 224.684 158.19C224.837 158.511 224.913 158.897 224.913 159.349C224.913 159.8 224.837 160.187 224.687 160.51C224.536 160.831 224.33 161.078 224.067 161.252C223.804 161.424 223.504 161.51 223.167 161.51C222.913 161.51 222.706 161.468 222.544 161.383C222.385 161.297 222.26 161.198 222.169 161.083C222.078 160.969 222.008 160.868 221.96 160.779H221.911V162.995H221.098ZM221.894 159.34C221.894 159.634 221.937 159.892 222.022 160.113C222.107 160.334 222.231 160.507 222.392 160.632C222.553 160.755 222.751 160.817 222.985 160.817C223.228 160.817 223.431 160.753 223.594 160.624C223.757 160.493 223.88 160.317 223.964 160.094C224.049 159.871 224.091 159.62 224.091 159.34C224.091 159.065 224.05 158.817 223.966 158.598C223.885 158.379 223.761 158.206 223.597 158.079C223.433 157.952 223.229 157.888 222.985 157.888C222.749 157.888 222.55 157.949 222.386 158.071C222.225 158.192 222.103 158.361 222.019 158.579C221.936 158.797 221.894 159.05 221.894 159.34Z" fill="white"/>
<path d="M227.624 161.513C227.212 161.513 226.858 161.425 226.561 161.249C226.265 161.072 226.037 160.822 225.875 160.502C225.716 160.179 225.636 159.801 225.636 159.368C225.636 158.94 225.716 158.563 225.875 158.236C226.037 157.91 226.261 157.655 226.55 157.472C226.84 157.289 227.179 157.198 227.567 157.198C227.802 157.198 228.031 157.237 228.252 157.315C228.473 157.393 228.672 157.515 228.847 157.682C229.023 157.848 229.162 158.065 229.263 158.332C229.365 158.596 229.416 158.918 229.416 159.297V159.585H226.096V158.976H228.619C228.619 158.762 228.575 158.573 228.488 158.408C228.401 158.241 228.279 158.11 228.121 158.013C227.965 157.917 227.782 157.869 227.572 157.869C227.344 157.869 227.144 157.926 226.974 158.038C226.805 158.148 226.675 158.294 226.582 158.473C226.492 158.651 226.446 158.844 226.446 159.052V159.528C226.446 159.807 226.495 160.045 226.593 160.24C226.693 160.436 226.832 160.586 227.009 160.689C227.187 160.791 227.394 160.841 227.632 160.841C227.786 160.841 227.926 160.82 228.053 160.776C228.18 160.731 228.29 160.664 228.382 160.575C228.475 160.486 228.546 160.376 228.595 160.246L229.364 160.385C229.302 160.611 229.192 160.81 229.032 160.98C228.875 161.149 228.676 161.28 228.437 161.374C228.199 161.467 227.928 161.513 227.624 161.513Z" fill="white"/>
<path d="M230.318 161.429V157.252H231.104V157.916H231.147C231.223 157.691 231.358 157.514 231.55 157.385C231.744 157.255 231.963 157.189 232.208 157.189C232.259 157.189 232.318 157.191 232.387 157.195C232.458 157.199 232.513 157.203 232.553 157.209V157.986C232.52 157.977 232.462 157.967 232.379 157.956C232.296 157.944 232.212 157.937 232.129 157.937C231.937 157.937 231.765 157.978 231.615 158.06C231.466 158.139 231.348 158.251 231.261 158.394C231.174 158.536 231.131 158.697 231.131 158.878V161.429H230.318Z" fill="white"/>
<path opacity="0.8" d="M227.992 188.426C227.992 264.477 398.795 264.477 398.795 340.528" stroke="url(#paint1_linear_530_267)" stroke-width="7.91768"/>
<path d="M227.992 188.426C227.992 264.477 398.795 264.477 398.795 340.528" stroke="url(#paint2_linear_530_267)" stroke-width="0.98971"/>
<path opacity="0.8" d="M227.989 188.426C227.989 314.611 329.083 314.611 329.083 440.796" stroke="url(#paint3_linear_530_267)" stroke-width="7.91768"/>
<path d="M227.989 188.426C227.989 314.611 329.083 314.611 329.083 440.796" stroke="url(#paint4_linear_530_267)" stroke-width="0.98971"/>
<path opacity="0.8" d="M227.995 188.426C227.995 264.167 56.789 264.167 56.789 339.907" stroke="url(#paint5_linear_530_267)" stroke-width="7.91768"/>
<path d="M227.995 188.426C227.995 264.167 56.789 264.167 56.789 339.907" stroke="url(#paint6_linear_530_267)" stroke-width="0.98971"/>
<path opacity="0.8" d="M227.995 188.426C227.995 314.611 126.916 314.611 126.916 440.796" stroke="url(#paint7_linear_530_267)" stroke-width="7.91768"/>
<path d="M227.995 188.426C227.995 314.611 126.916 314.611 126.916 440.796" stroke="url(#paint8_linear_530_267)" stroke-width="0.98971"/>
<g filter="url(#filter1_ii_530_267)">
<path d="M343.212 378.684C339.641 375.113 339.641 369.322 343.212 365.751L387.8 321.163C391.371 317.591 397.162 317.591 400.733 321.163L445.321 365.751C448.893 369.322 448.893 375.113 445.321 378.684L400.733 423.272C397.162 426.844 391.371 426.844 387.8 423.272L343.212 378.684Z" fill="#121212"/>
</g>
<path d="M344.174 366.713L388.762 322.125C391.802 319.085 396.731 319.085 399.771 322.125L444.359 366.713C447.399 369.753 447.399 374.682 444.359 377.722L399.771 422.31C396.731 425.35 391.802 425.35 388.762 422.31L344.174 377.722C341.134 374.682 341.134 369.753 344.174 366.713Z" stroke="#FF4375" stroke-width="2.72132"/>
<path d="M381.839 374.755H380.191L383.894 364.463H385.688L389.392 374.755H387.744L384.834 366.333H384.754L381.839 374.755ZM382.116 370.725H387.462L387.462 372.031H382.116L382.116 370.725ZM389.154 365.8L389.154 364.463H397.119L397.119 365.8H393.908L393.908 374.755H392.36L392.36 365.8H389.154ZM407.376 369.609C407.376 370.708 407.175 371.653 406.773 372.443C406.371 373.23 405.82 373.837 405.12 374.262C404.423 374.684 403.631 374.895 402.743 374.895C401.852 374.895 401.057 374.684 400.356 374.262C399.66 373.837 399.11 373.229 398.708 372.438C398.306 371.648 398.105 370.705 398.105 369.609C398.105 368.51 398.306 367.567 398.708 366.78C399.11 365.989 399.66 365.383 400.356 364.961C401.057 364.535 401.852 364.323 402.743 364.323C403.631 364.323 404.423 364.535 405.12 364.961C405.82 365.383 406.371 365.989 406.773 366.78C407.175 367.567 407.376 368.51 407.376 369.609ZM405.839 369.609C405.839 368.772 405.703 368.066 405.432 367.494C405.164 366.917 404.795 366.482 404.326 366.187C403.861 365.889 403.333 365.74 402.743 365.74C402.15 365.74 401.621 365.889 401.155 366.187C400.69 366.482 400.321 366.917 400.05 367.494C399.782 368.066 399.648 368.772 399.648 369.609C399.648 370.447 399.782 371.153 400.05 371.73C400.321 372.302 400.69 372.738 401.155 373.036C401.621 373.331 402.15 373.478 402.743 373.478C403.333 373.478 403.861 373.331 404.326 373.036C404.795 372.738 405.164 372.302 405.432 371.73C405.703 371.153 405.839 370.447 405.839 369.609Z" fill="#FF4375"/>
<g filter="url(#filter2_ii_530_267)">
<path d="M76.3565 498.765C72.7851 495.194 72.7851 489.403 76.3565 485.832L120.945 441.244C124.516 437.672 130.306 437.672 133.878 441.244L178.466 485.832C182.037 489.403 182.037 495.194 178.466 498.765L133.878 543.353C130.306 546.925 124.516 546.925 120.945 543.353L76.3565 498.765Z" fill="#121212"/>
</g>
<path d="M77.3187 486.794L121.907 442.206C124.947 439.166 129.876 439.166 132.916 442.206L177.504 486.794C180.544 489.834 180.544 494.763 177.504 497.803L132.916 542.391C129.876 545.431 124.947 545.431 121.907 542.391L77.3187 497.803C74.2786 494.763 74.2786 489.834 77.3187 486.794Z" stroke="#3E46C5" stroke-width="2.72132"/>
<path d="M105.793 494.104L105.793 486.188H108.615C109.231 486.188 109.741 486.3 110.146 486.524C110.55 486.748 110.853 487.055 111.054 487.444C111.255 487.831 111.356 488.266 111.356 488.751C111.356 489.238 111.254 489.676 111.05 490.065C110.849 490.451 110.545 490.758 110.138 490.985C109.733 491.209 109.224 491.321 108.611 491.321H106.671L106.671 490.308H108.503C108.892 490.308 109.208 490.241 109.45 490.107C109.692 489.971 109.87 489.785 109.983 489.551C110.097 489.316 110.153 489.05 110.153 488.751C110.153 488.452 110.097 488.186 109.983 487.954C109.87 487.723 109.691 487.541 109.446 487.409C109.204 487.278 108.884 487.212 108.487 487.212H106.988L106.988 494.104H105.793ZM114.338 494.236C113.961 494.236 113.621 494.166 113.317 494.027C113.013 493.885 112.772 493.68 112.594 493.412C112.419 493.144 112.332 492.816 112.332 492.427C112.332 492.092 112.396 491.816 112.525 491.6C112.654 491.383 112.828 491.212 113.047 491.085C113.266 490.959 113.511 490.864 113.781 490.799C114.052 490.735 114.327 490.686 114.608 490.652C114.964 490.611 115.253 490.578 115.474 490.552C115.696 490.524 115.857 490.479 115.957 490.417C116.058 490.355 116.108 490.254 116.108 490.115L116.108 490.088C116.108 489.751 116.013 489.489 115.822 489.303C115.634 489.118 115.353 489.025 114.979 489.025C114.59 489.025 114.284 489.111 114.059 489.284C113.838 489.454 113.684 489.644 113.599 489.852L112.513 489.605C112.642 489.244 112.83 488.953 113.078 488.731C113.328 488.507 113.615 488.345 113.94 488.244C114.264 488.141 114.606 488.09 114.964 488.09C115.201 488.09 115.452 488.118 115.718 488.175C115.986 488.229 116.236 488.329 116.468 488.476C116.702 488.623 116.894 488.833 117.044 489.106C117.193 489.377 117.268 489.729 117.268 490.162L117.268 494.104H116.139L116.139 493.293H116.093C116.018 493.442 115.906 493.589 115.756 493.733C115.607 493.878 115.415 493.997 115.18 494.093C114.946 494.188 114.665 494.236 114.338 494.236ZM114.589 493.308C114.909 493.308 115.182 493.245 115.408 493.119C115.638 492.992 115.812 492.827 115.93 492.624C116.051 492.418 116.112 492.197 116.112 491.963L116.112 491.198C116.071 491.239 115.991 491.277 115.872 491.313C115.756 491.347 115.624 491.377 115.474 491.402C115.325 491.426 115.179 491.447 115.037 491.468C114.896 491.486 114.777 491.502 114.682 491.514C114.458 491.543 114.253 491.591 114.067 491.658C113.884 491.725 113.737 491.821 113.626 491.947C113.518 492.071 113.464 492.236 113.464 492.442C113.464 492.728 113.57 492.945 113.781 493.092C113.992 493.236 114.262 493.308 114.589 493.308ZM119.325 496.331C119.152 496.331 118.995 496.317 118.853 496.288C118.712 496.262 118.606 496.234 118.537 496.203L118.815 495.256C119.026 495.313 119.214 495.337 119.379 495.33C119.544 495.322 119.69 495.26 119.816 495.144C119.945 495.028 120.058 494.839 120.156 494.576L120.299 494.182L118.127 488.167H119.364L120.867 492.775H120.929L122.433 488.167H123.674L121.227 494.897C121.113 495.206 120.969 495.468 120.794 495.681C120.619 495.898 120.41 496.06 120.168 496.168C119.925 496.277 119.645 496.331 119.325 496.331ZM124.76 494.104L124.76 488.167H125.877L125.877 489.11H125.939C126.047 488.791 126.238 488.539 126.511 488.356C126.787 488.171 127.098 488.078 127.446 488.078C127.518 488.078 127.603 488.081 127.701 488.086C127.802 488.091 127.881 488.097 127.937 488.105L127.937 489.211C127.891 489.198 127.808 489.184 127.69 489.168C127.571 489.15 127.453 489.141 127.334 489.141C127.061 489.141 126.818 489.199 126.604 489.315C126.392 489.428 126.225 489.587 126.101 489.791C125.977 489.992 125.916 490.221 125.916 490.479L125.916 494.104H124.76ZM131.226 494.224C130.669 494.224 130.183 494.097 129.768 493.841C129.354 493.586 129.031 493.229 128.802 492.771C128.573 492.312 128.458 491.776 128.458 491.163C128.458 490.547 128.573 490.008 128.802 489.547C129.031 489.086 129.354 488.728 129.768 488.472C130.183 488.217 130.669 488.09 131.226 488.09C131.782 488.09 132.268 488.217 132.683 488.472C133.098 488.728 133.42 489.086 133.649 489.547C133.879 490.008 133.993 490.547 133.993 491.163C133.993 491.776 133.879 492.312 133.649 492.771C133.42 493.229 133.098 493.586 132.683 493.841C132.268 494.097 131.782 494.224 131.226 494.224ZM131.23 493.254C131.59 493.254 131.889 493.159 132.126 492.968C132.363 492.777 132.539 492.523 132.652 492.206C132.768 491.889 132.826 491.54 132.826 491.159C132.826 490.78 132.768 490.432 132.652 490.115C132.539 489.796 132.363 489.539 132.126 489.346C131.889 489.153 131.59 489.056 131.23 489.056C130.866 489.056 130.565 489.153 130.325 489.346C130.088 489.539 129.911 489.796 129.795 490.115C129.682 490.432 129.625 490.78 129.625 491.159C129.625 491.54 129.682 491.889 129.795 492.206C129.911 492.523 130.088 492.777 130.325 492.968C130.565 493.159 130.866 493.254 131.23 493.254ZM136.439 486.188L136.439 494.104H135.283L135.283 486.188H136.439ZM139.15 486.188L139.15 494.104H137.994L137.994 486.188H139.15ZM145.889 494.216C145.358 494.216 144.901 494.12 144.517 493.926C144.135 493.733 143.842 493.47 143.636 493.138C143.429 492.803 143.326 492.424 143.326 492.002C143.326 491.679 143.393 491.393 143.527 491.143C143.661 490.891 143.848 490.658 144.088 490.444C144.327 490.23 144.605 490.015 144.919 489.798L146.194 488.898C146.411 488.756 146.58 488.606 146.701 488.449C146.822 488.289 146.883 488.092 146.883 487.858C146.883 487.672 146.803 487.494 146.643 487.324C146.483 487.154 146.269 487.069 146.001 487.069C145.816 487.069 145.652 487.114 145.51 487.205C145.371 487.295 145.262 487.411 145.182 487.552C145.104 487.692 145.066 487.838 145.066 487.993C145.066 488.173 145.115 488.355 145.213 488.538C145.313 488.721 145.442 488.91 145.599 489.106C145.756 489.3 145.921 489.501 146.094 489.709L149.77 494.104H148.463L145.421 490.529C145.166 490.227 144.929 489.944 144.71 489.678C144.491 489.41 144.313 489.14 144.177 488.867C144.043 488.591 143.976 488.293 143.976 487.974C143.976 487.61 144.058 487.288 144.223 487.007C144.391 486.724 144.624 486.502 144.923 486.343C145.222 486.183 145.572 486.103 145.974 486.103C146.381 486.103 146.73 486.183 147.022 486.343C147.315 486.5 147.541 486.71 147.698 486.973C147.858 487.233 147.938 487.518 147.938 487.827C147.938 488.203 147.844 488.536 147.656 488.824C147.47 489.11 147.214 489.373 146.886 489.613L145.298 490.784C144.988 491.011 144.773 491.235 144.652 491.457C144.534 491.676 144.474 491.847 144.474 491.971C144.474 492.197 144.532 492.407 144.648 492.601C144.767 492.794 144.932 492.949 145.143 493.065C145.357 493.18 145.607 493.238 145.893 493.238C146.187 493.238 146.473 493.175 146.751 493.049C147.032 492.92 147.286 492.736 147.513 492.496C147.742 492.257 147.924 491.969 148.058 491.634C148.192 491.299 148.259 490.924 148.259 490.509H149.302C149.302 491.02 149.244 491.451 149.128 491.804C149.012 492.155 148.872 492.441 148.707 492.663C148.545 492.882 148.391 493.053 148.247 493.177C148.201 493.218 148.157 493.259 148.116 493.3C148.074 493.342 148.031 493.383 147.984 493.424C147.716 493.695 147.391 493.894 147.01 494.023C146.631 494.152 146.258 494.216 145.889 494.216ZM120.733 507.104L120.734 499.188H121.928L121.928 502.628H125.874L125.874 499.188H127.073L127.073 507.104H125.874L125.874 503.652H121.928L121.928 507.104H120.733ZM128.812 507.104L128.812 499.188H131.634C132.247 499.188 132.756 499.294 133.161 499.505C133.568 499.716 133.872 500.009 134.073 500.382C134.274 500.753 134.375 501.183 134.375 501.67C134.375 502.154 134.273 502.58 134.069 502.949C133.868 503.315 133.564 503.6 133.157 503.803C132.752 504.007 132.243 504.109 131.63 504.109H129.493L129.493 503.08H131.522C131.908 503.08 132.223 503.025 132.465 502.914C132.71 502.803 132.889 502.642 133.002 502.431C133.116 502.22 133.172 501.966 133.172 501.67C133.172 501.371 133.114 501.112 132.998 500.893C132.885 500.674 132.706 500.506 132.461 500.39C132.219 500.272 131.901 500.212 131.506 500.212H130.007L130.007 507.104H128.812ZM132.72 503.533L134.676 507.104H133.315L131.398 503.533H132.72Z" fill="#3E46C5"/>
<g filter="url(#filter3_ii_530_267)">
<path d="M277.113 498.766C273.541 495.194 273.541 489.404 277.113 485.832L321.701 441.244C325.272 437.673 331.063 437.673 334.634 441.244L379.222 485.832C382.794 489.404 382.794 495.194 379.222 498.766L334.634 543.354C331.063 546.925 325.272 546.925 321.701 543.354L277.113 498.766Z" fill="#121212"/>
</g>
<path d="M278.075 486.794L322.663 442.206C325.703 439.166 330.632 439.166 333.672 442.206L378.26 486.794C381.3 489.835 381.3 494.763 378.26 497.803L333.672 542.392C330.632 545.432 325.703 545.432 322.663 542.392L278.075 497.803C275.035 494.763 275.035 489.835 278.075 486.794Z" stroke="#D8E2FF" stroke-width="2.72132"/>
<path d="M305.122 483.734C305.089 483.441 304.952 483.214 304.713 483.054C304.474 482.891 304.173 482.809 303.81 482.809C303.551 482.809 303.326 482.85 303.136 482.933C302.947 483.013 302.799 483.125 302.694 483.267C302.591 483.407 302.539 483.567 302.539 483.746C302.539 483.897 302.574 484.027 302.645 484.136C302.717 484.245 302.811 484.337 302.926 484.411C303.043 484.483 303.169 484.544 303.303 484.594C303.437 484.641 303.566 484.68 303.69 484.711L304.308 484.872C304.51 484.921 304.717 484.988 304.93 485.073C305.142 485.157 305.339 485.269 305.52 485.407C305.702 485.545 305.848 485.716 305.96 485.92C306.073 486.124 306.13 486.369 306.13 486.653C306.13 487.012 306.037 487.33 305.851 487.609C305.668 487.887 305.401 488.106 305.05 488.267C304.702 488.428 304.28 488.508 303.786 488.508C303.311 488.508 302.901 488.433 302.555 488.283C302.209 488.132 301.937 487.919 301.742 487.643C301.546 487.364 301.438 487.034 301.417 486.653H302.376C302.394 486.882 302.468 487.073 302.598 487.225C302.73 487.376 302.898 487.488 303.102 487.562C303.308 487.634 303.534 487.67 303.779 487.67C304.05 487.67 304.29 487.628 304.5 487.544C304.712 487.457 304.879 487.337 305.001 487.185C305.123 487.03 305.183 486.85 305.183 486.644C305.183 486.456 305.13 486.303 305.023 486.183C304.917 486.063 304.774 485.964 304.593 485.886C304.413 485.808 304.21 485.739 303.984 485.679L303.235 485.475C302.728 485.337 302.326 485.134 302.029 484.866C301.734 484.598 301.587 484.243 301.587 483.802C301.587 483.437 301.686 483.118 301.884 482.846C302.082 482.574 302.35 482.363 302.688 482.212C303.026 482.06 303.407 481.984 303.832 481.984C304.261 481.984 304.639 482.059 304.967 482.209C305.297 482.36 305.557 482.567 305.746 482.831C305.936 483.093 306.035 483.394 306.043 483.734H305.122ZM310.206 486.433V483.653H311.134V488.403H310.225V487.581H310.175C310.066 487.834 309.891 488.046 309.649 488.215C309.41 488.382 309.112 488.465 308.756 488.465C308.451 488.465 308.181 488.398 307.946 488.264C307.713 488.128 307.529 487.927 307.395 487.661C307.263 487.395 307.197 487.066 307.197 486.675V483.653H308.122V486.563C308.122 486.887 308.212 487.145 308.391 487.336C308.57 487.528 308.803 487.624 309.09 487.624C309.263 487.624 309.435 487.581 309.606 487.494C309.779 487.408 309.923 487.277 310.036 487.101C310.151 486.926 310.208 486.704 310.206 486.433ZM312.376 490.184V483.653H313.279V484.423H313.356C313.41 484.324 313.487 484.21 313.588 484.08C313.689 483.95 313.83 483.837 314.009 483.74C314.188 483.641 314.425 483.592 314.72 483.592C315.104 483.592 315.446 483.688 315.747 483.882C316.048 484.076 316.284 484.355 316.455 484.72C316.628 485.085 316.715 485.524 316.715 486.038C316.715 486.551 316.629 486.991 316.458 487.358C316.287 487.723 316.052 488.004 315.753 488.202C315.454 488.398 315.113 488.496 314.729 488.496C314.441 488.496 314.205 488.448 314.021 488.351C313.84 488.254 313.698 488.14 313.594 488.011C313.491 487.881 313.412 487.765 313.356 487.664H313.301V490.184H312.376ZM313.282 486.028C313.282 486.362 313.331 486.655 313.428 486.907C313.524 487.158 313.665 487.355 313.848 487.497C314.032 487.637 314.256 487.707 314.522 487.707C314.798 487.707 315.029 487.634 315.215 487.488C315.4 487.339 315.541 487.138 315.635 486.885C315.732 486.631 315.781 486.346 315.781 486.028C315.781 485.715 315.733 485.434 315.639 485.184C315.546 484.935 315.406 484.738 315.218 484.594C315.032 484.449 314.801 484.377 314.522 484.377C314.254 484.377 314.027 484.446 313.842 484.584C313.658 484.722 313.519 484.915 313.424 485.163C313.33 485.41 313.282 485.699 313.282 486.028ZM319.798 488.499C319.33 488.499 318.927 488.399 318.589 488.199C318.253 487.997 317.993 487.714 317.809 487.349C317.628 486.982 317.537 486.552 317.537 486.059C317.537 485.573 317.628 485.144 317.809 484.773C317.993 484.402 318.248 484.112 318.576 483.904C318.906 483.696 319.292 483.592 319.733 483.592C320.001 483.592 320.261 483.636 320.512 483.725C320.764 483.813 320.989 483.952 321.189 484.142C321.389 484.332 321.547 484.578 321.662 484.881C321.778 485.182 321.836 485.548 321.836 485.979V486.307H318.06V485.614H320.929C320.929 485.371 320.88 485.155 320.781 484.968C320.682 484.778 320.543 484.629 320.364 484.519C320.186 484.41 319.978 484.355 319.739 484.355C319.479 484.355 319.252 484.419 319.059 484.547C318.867 484.673 318.718 484.838 318.613 485.042C318.51 485.244 318.459 485.463 318.459 485.701V486.242C318.459 486.559 318.514 486.829 318.626 487.052C318.739 487.275 318.897 487.445 319.099 487.562C319.301 487.678 319.537 487.735 319.807 487.735C319.982 487.735 320.142 487.711 320.286 487.661C320.431 487.61 320.555 487.533 320.66 487.432C320.766 487.331 320.846 487.207 320.902 487.058L321.777 487.216C321.707 487.473 321.581 487.699 321.4 487.893C321.22 488.085 320.994 488.234 320.722 488.341C320.452 488.447 320.144 488.499 319.798 488.499ZM322.861 488.403V483.653H323.755V484.408H323.805C323.891 484.152 324.044 483.951 324.262 483.805C324.483 483.657 324.732 483.582 325.011 483.582C325.068 483.582 325.136 483.584 325.215 483.589C325.295 483.593 325.358 483.598 325.403 483.604V484.488C325.366 484.478 325.3 484.467 325.205 484.454C325.111 484.44 325.016 484.433 324.921 484.433C324.702 484.433 324.508 484.479 324.336 484.572C324.167 484.663 324.033 484.789 323.934 484.952C323.836 485.113 323.786 485.297 323.786 485.503V488.403H322.861ZM329.732 483.734C329.699 483.441 329.563 483.214 329.324 483.054C329.084 482.891 328.783 482.809 328.421 482.809C328.161 482.809 327.936 482.85 327.747 482.933C327.557 483.013 327.409 483.125 327.304 483.267C327.201 483.407 327.15 483.567 327.15 483.746C327.15 483.897 327.185 484.027 327.255 484.136C327.327 484.245 327.421 484.337 327.536 484.411C327.654 484.483 327.78 484.544 327.914 484.594C328.048 484.641 328.176 484.68 328.3 484.711L328.919 484.872C329.121 484.921 329.328 484.988 329.54 485.073C329.752 485.157 329.949 485.269 330.131 485.407C330.312 485.545 330.458 485.716 330.57 485.92C330.683 486.124 330.74 486.369 330.74 486.653C330.74 487.012 330.647 487.33 330.462 487.609C330.278 487.887 330.011 488.106 329.661 488.267C329.312 488.428 328.891 488.508 328.396 488.508C327.922 488.508 327.512 488.433 327.165 488.283C326.819 488.132 326.548 487.919 326.352 487.643C326.156 487.364 326.048 487.034 326.027 486.653H326.986C327.004 486.882 327.079 487.073 327.208 487.225C327.34 487.376 327.508 487.488 327.713 487.562C327.919 487.634 328.144 487.67 328.39 487.67C328.66 487.67 328.9 487.628 329.11 487.544C329.323 487.457 329.49 487.337 329.611 487.185C329.733 487.03 329.794 486.85 329.794 486.644C329.794 486.456 329.74 486.303 329.633 486.183C329.528 486.063 329.384 485.964 329.203 485.886C329.024 485.808 328.821 485.739 328.594 485.679L327.845 485.475C327.338 485.337 326.936 485.134 326.639 484.866C326.345 484.598 326.197 484.243 326.197 483.802C326.197 483.437 326.296 483.118 326.494 482.846C326.692 482.574 326.96 482.363 327.298 482.212C327.636 482.06 328.018 481.984 328.442 481.984C328.871 481.984 329.249 482.059 329.577 482.209C329.907 482.36 330.167 482.567 330.356 482.831C330.546 483.093 330.645 483.394 330.653 483.734H329.732ZM334.025 483.653V484.396H331.43V483.653H334.025ZM332.126 482.515H333.051V487.009C333.051 487.188 333.077 487.323 333.131 487.414C333.185 487.502 333.254 487.563 333.338 487.596C333.425 487.627 333.519 487.643 333.62 487.643C333.694 487.643 333.759 487.637 333.814 487.627C333.87 487.617 333.913 487.609 333.944 487.602L334.111 488.366C334.058 488.387 333.981 488.407 333.882 488.428C333.784 488.451 333.66 488.463 333.511 488.465C333.268 488.469 333.041 488.426 332.831 488.335C332.621 488.245 332.451 488.104 332.321 487.915C332.191 487.725 332.126 487.487 332.126 487.2V482.515ZM335.048 488.403V483.653H335.941V484.408H335.991C336.077 484.152 336.23 483.951 336.448 483.805C336.669 483.657 336.918 483.582 337.197 483.582C337.254 483.582 337.322 483.584 337.401 483.589C337.481 483.593 337.544 483.598 337.589 483.604V484.488C337.552 484.478 337.486 484.467 337.391 484.454C337.297 484.44 337.202 484.433 337.107 484.433C336.888 484.433 336.694 484.479 336.523 484.572C336.353 484.663 336.219 484.789 336.121 484.952C336.022 485.113 335.972 485.297 335.972 485.503V488.403H335.048ZM340.267 488.499C339.799 488.499 339.396 488.399 339.057 488.199C338.721 487.997 338.462 487.714 338.278 487.349C338.097 486.982 338.006 486.552 338.006 486.059C338.006 485.573 338.097 485.144 338.278 484.773C338.462 484.402 338.717 484.112 339.045 483.904C339.375 483.696 339.76 483.592 340.202 483.592C340.47 483.592 340.729 483.636 340.981 483.725C341.232 483.813 341.458 483.952 341.658 484.142C341.858 484.332 342.016 484.578 342.131 484.881C342.247 485.182 342.304 485.548 342.304 485.979V486.307H338.529V485.614H341.398C341.398 485.371 341.349 485.155 341.25 484.968C341.151 484.778 341.012 484.629 340.832 484.519C340.655 484.41 340.447 484.355 340.208 484.355C339.948 484.355 339.721 484.419 339.528 484.547C339.336 484.673 339.187 484.838 339.082 485.042C338.979 485.244 338.928 485.463 338.928 485.701V486.242C338.928 486.559 338.983 486.829 339.095 487.052C339.208 487.275 339.366 487.445 339.568 487.562C339.77 487.678 340.006 487.735 340.276 487.735C340.451 487.735 340.611 487.711 340.755 487.661C340.899 487.61 341.024 487.533 341.129 487.432C341.234 487.331 341.315 487.207 341.371 487.058L342.246 487.216C342.176 487.473 342.05 487.699 341.868 487.893C341.689 488.085 341.463 488.234 341.191 488.341C340.921 488.447 340.613 488.499 340.267 488.499ZM344.713 488.508C344.412 488.508 344.139 488.453 343.896 488.341C343.653 488.228 343.46 488.064 343.318 487.85C343.178 487.635 343.108 487.372 343.108 487.061C343.108 486.793 343.159 486.573 343.262 486.399C343.365 486.226 343.505 486.089 343.68 485.988C343.855 485.887 344.051 485.811 344.267 485.759C344.484 485.708 344.704 485.669 344.929 485.642C345.214 485.609 345.444 485.582 345.622 485.561C345.799 485.539 345.928 485.503 346.008 485.453C346.089 485.404 346.129 485.323 346.129 485.212V485.19C346.129 484.92 346.053 484.711 345.9 484.563C345.75 484.414 345.525 484.34 345.226 484.34C344.915 484.34 344.669 484.409 344.49 484.547C344.313 484.683 344.19 484.835 344.122 485.002L343.253 484.804C343.356 484.515 343.507 484.282 343.704 484.105C343.904 483.926 344.134 483.796 344.394 483.715C344.654 483.633 344.927 483.592 345.214 483.592C345.403 483.592 345.604 483.614 345.817 483.66C346.031 483.703 346.231 483.783 346.416 483.901C346.604 484.018 346.758 484.186 346.877 484.405C346.997 484.621 347.057 484.903 347.057 485.249V488.403H346.154V487.754H346.116C346.057 487.873 345.967 487.991 345.847 488.106C345.728 488.222 345.574 488.318 345.387 488.394C345.199 488.47 344.974 488.508 344.713 488.508ZM344.914 487.766C345.169 487.766 345.388 487.716 345.569 487.615C345.753 487.514 345.892 487.382 345.987 487.219C346.084 487.054 346.132 486.878 346.132 486.69V486.078C346.099 486.111 346.035 486.142 345.94 486.171C345.847 486.197 345.741 486.221 345.622 486.242C345.502 486.26 345.386 486.278 345.272 486.294C345.159 486.309 345.064 486.321 344.988 486.331C344.808 486.354 344.645 486.392 344.496 486.446C344.35 486.499 344.232 486.577 344.144 486.678C344.057 486.777 344.014 486.909 344.014 487.074C344.014 487.302 344.098 487.476 344.267 487.593C344.436 487.709 344.652 487.766 344.914 487.766ZM348.288 488.403V483.653H349.176V484.427H349.234C349.333 484.165 349.495 483.961 349.72 483.814C349.945 483.666 350.214 483.592 350.527 483.592C350.844 483.592 351.11 483.666 351.325 483.814C351.541 483.963 351.701 484.167 351.804 484.427H351.854C351.967 484.173 352.147 483.971 352.395 483.82C352.642 483.668 352.937 483.592 353.279 483.592C353.71 483.592 354.061 483.727 354.334 483.997C354.608 484.267 354.745 484.674 354.745 485.218V488.403H353.82V485.305C353.82 484.983 353.733 484.75 353.557 484.606C353.382 484.462 353.173 484.389 352.93 484.389C352.629 484.389 352.395 484.482 352.228 484.668C352.061 484.851 351.977 485.087 351.977 485.376V488.403H351.056V485.246C351.056 484.988 350.975 484.781 350.815 484.624C350.654 484.468 350.444 484.389 350.187 484.389C350.012 484.389 349.85 484.436 349.701 484.529C349.555 484.619 349.436 484.746 349.346 484.909C349.257 485.072 349.213 485.26 349.213 485.475V488.403H348.288ZM316.308 493.07V499.403H315.429L312.21 494.759H312.152V499.403H311.196V493.07H312.08L315.303 497.721H315.361V493.07H316.308ZM319.674 499.499C319.206 499.499 318.803 499.399 318.465 499.199C318.129 498.997 317.87 498.714 317.686 498.349C317.505 497.982 317.414 497.552 317.414 497.059C317.414 496.573 317.505 496.144 317.686 495.773C317.87 495.402 318.125 495.112 318.453 494.904C318.783 494.696 319.168 494.592 319.609 494.592C319.877 494.592 320.137 494.636 320.389 494.725C320.64 494.813 320.866 494.952 321.066 495.142C321.266 495.332 321.424 495.578 321.539 495.881C321.655 496.182 321.712 496.548 321.712 496.979V497.307H317.937V496.614H320.806C320.806 496.371 320.757 496.155 320.658 495.968C320.559 495.778 320.42 495.629 320.24 495.519C320.063 495.41 319.855 495.355 319.616 495.355C319.356 495.355 319.129 495.419 318.935 495.547C318.744 495.673 318.595 495.838 318.49 496.042C318.387 496.244 318.335 496.463 318.335 496.701V497.242C318.335 497.559 318.391 497.829 318.502 498.052C318.616 498.275 318.773 498.445 318.976 498.562C319.178 498.678 319.414 498.735 319.684 498.735C319.859 498.735 320.019 498.711 320.163 498.661C320.307 498.61 320.432 498.533 320.537 498.432C320.642 498.331 320.723 498.207 320.778 498.058L321.653 498.216C321.583 498.473 321.458 498.699 321.276 498.893C321.097 499.085 320.871 499.234 320.599 499.341C320.329 499.447 320.021 499.499 319.674 499.499ZM324.955 494.653V495.396H322.361V494.653H324.955ZM323.057 493.515H323.981L323.981 498.009C323.981 498.188 324.008 498.323 324.062 498.414C324.115 498.502 324.184 498.563 324.269 498.596C324.355 498.627 324.449 498.643 324.55 498.643C324.624 498.643 324.689 498.637 324.745 498.627C324.801 498.617 324.844 498.609 324.875 498.602L325.042 499.366C324.988 499.387 324.912 499.407 324.813 499.428C324.714 499.451 324.59 499.463 324.442 499.465C324.199 499.469 323.972 499.426 323.762 499.335C323.551 499.245 323.381 499.104 323.251 498.915C323.122 498.725 323.057 498.487 323.057 498.2V493.515ZM327.008 499.403L325.61 494.653H326.566L327.496 498.142H327.543L328.477 494.653H329.432L330.36 498.126H330.406L331.331 494.653H332.286L330.892 499.403H329.949L328.984 495.974H328.913L327.948 499.403H327.008ZM335.02 499.499C334.575 499.499 334.186 499.397 333.854 499.193C333.522 498.989 333.265 498.703 333.081 498.336C332.898 497.969 332.806 497.541 332.806 497.05C332.806 496.557 332.898 496.126 333.081 495.757C333.265 495.388 333.522 495.102 333.854 494.898C334.186 494.694 334.575 494.592 335.02 494.592C335.465 494.592 335.854 494.694 336.186 494.898C336.518 495.102 336.775 495.388 336.959 495.757C337.142 496.126 337.234 496.557 337.234 497.05C337.234 497.541 337.142 497.969 336.959 498.336C336.775 498.703 336.518 498.989 336.186 499.193C335.854 499.397 335.465 499.499 335.02 499.499ZM335.023 498.723C335.312 498.723 335.551 498.647 335.741 498.494C335.93 498.342 336.07 498.138 336.161 497.885C336.254 497.631 336.3 497.352 336.3 497.047C336.3 496.744 336.254 496.466 336.161 496.212C336.07 495.956 335.93 495.751 335.741 495.597C335.551 495.442 335.312 495.365 335.023 495.365C334.732 495.365 334.491 495.442 334.3 495.597C334.11 495.751 333.969 495.956 333.876 496.212C333.785 496.466 333.74 496.744 333.74 497.047C333.74 497.352 333.785 497.631 333.876 497.885C333.969 498.138 334.11 498.342 334.3 498.494C334.491 498.647 334.732 498.723 335.023 498.723ZM338.266 499.403V494.653H339.16V495.408H339.209C339.296 495.152 339.449 494.951 339.667 494.805C339.888 494.657 340.137 494.582 340.415 494.582C340.473 494.582 340.541 494.584 340.619 494.589C340.7 494.593 340.763 494.598 340.808 494.604V495.488C340.771 495.478 340.705 495.467 340.61 495.454C340.515 495.44 340.421 495.433 340.326 495.433C340.107 495.433 339.912 495.479 339.741 495.572C339.572 495.663 339.438 495.789 339.339 495.952C339.24 496.113 339.191 496.297 339.191 496.503V499.403H338.266ZM342.459 497.792L342.452 496.663H342.613L344.506 494.653H345.613L343.454 496.942H343.309L342.459 497.792ZM341.608 499.403V493.07H342.533V499.403H341.608ZM344.608 499.403L342.907 497.146L343.544 496.5L345.743 499.403H344.608Z" fill="#D8E2FF"/>
<g filter="url(#filter4_ii_530_267)">
<path d="M10.6786 378.685C7.10715 375.113 7.10715 369.323 10.6786 365.752L55.2666 321.163C58.838 317.592 64.6284 317.592 68.1998 321.163L112.788 365.752C116.359 369.323 116.359 375.113 112.788 378.685L68.1998 423.273C64.6284 426.844 58.838 426.844 55.2666 423.273L10.6786 378.685Z" fill="#121212"/>
</g>
<path d="M11.6407 366.714L56.2287 322.126C59.2688 319.086 64.1977 319.086 67.2377 322.126L111.826 366.714C114.866 369.754 114.866 374.683 111.826 377.723L67.2377 422.311C64.1976 425.351 59.2688 425.351 56.2287 422.311L11.6407 377.723C8.60065 374.683 8.60065 369.754 11.6407 366.714Z" stroke="#2C2977" stroke-width="2.72132"/>
<path d="M42.6654 374.755L42.6654 364.464H46.4342C47.1645 364.464 47.7692 364.585 48.2482 364.826C48.7273 365.064 49.0857 365.387 49.3236 365.796C49.5614 366.201 49.6804 366.658 49.6804 367.168C49.6804 367.596 49.6016 367.958 49.4442 368.253C49.2867 368.544 49.0757 368.779 48.811 368.956C48.5497 369.131 48.2616 369.258 47.9467 369.338L47.9467 369.439C48.2884 369.456 48.6217 369.566 48.9467 369.77C49.275 369.971 49.5463 370.258 49.7607 370.63C49.9751 371.002 50.0823 371.454 50.0823 371.987C50.0823 372.512 49.9584 372.985 49.7105 373.404C49.4659 373.819 49.0874 374.149 48.5748 374.394C48.0623 374.635 47.4074 374.755 46.61 374.755H42.6654ZM44.2181 373.424H46.4593C47.203 373.424 47.7357 373.28 48.0573 372.992C48.3789 372.703 48.5397 372.343 48.5397 371.911C48.5397 371.586 48.4576 371.288 48.2934 371.017C48.1293 370.745 47.8948 370.529 47.5899 370.368C47.2884 370.208 46.93 370.127 46.5146 370.127H44.2181L44.2181 373.424ZM44.2181 368.916H46.2985C46.6469 368.916 46.9601 368.849 47.2382 368.715C47.5196 368.581 47.7424 368.394 47.9065 368.152C48.074 367.908 48.1578 367.62 48.1578 367.288C48.1578 366.863 48.0087 366.506 47.7105 366.218C47.4124 365.93 46.9551 365.786 46.3387 365.786H44.2181L44.2181 368.916ZM54.0496 374.926C53.5605 374.926 53.1183 374.836 52.723 374.655C52.3277 374.471 52.0145 374.204 51.7833 373.856C51.5555 373.507 51.4416 373.08 51.4416 372.574C51.4416 372.139 51.5254 371.78 51.6929 371.499C51.8604 371.218 52.0865 370.995 52.3712 370.831C52.656 370.667 52.9743 370.543 53.326 370.459C53.6778 370.375 54.0362 370.312 54.4014 370.268C54.8637 370.214 55.2389 370.171 55.527 370.137C55.8151 370.1 56.0244 370.042 56.1551 369.961C56.2857 369.881 56.3511 369.75 56.3511 369.569L56.3511 369.534C56.3511 369.095 56.2271 368.755 55.9792 368.514C55.7347 368.273 55.3695 368.152 54.8838 368.152C54.3779 368.152 53.9793 368.265 53.6878 368.489C53.3997 368.71 53.2004 368.956 53.0898 369.228L51.6778 368.906C51.8453 368.437 52.0899 368.059 52.4115 367.771C52.7364 367.479 53.1099 367.268 53.532 367.137C53.9541 367.003 54.398 366.936 54.8637 366.936C55.1719 366.936 55.4985 366.973 55.8436 367.047C56.192 367.117 56.5169 367.248 56.8184 367.439C57.1233 367.63 57.3728 367.903 57.5671 368.258C57.7614 368.61 57.8586 369.067 57.8586 369.63L57.8586 374.755H56.3913L56.3913 373.7H56.331C56.2338 373.894 56.0881 374.085 55.8938 374.273C55.6995 374.461 55.4499 374.616 55.1451 374.74C54.8402 374.864 54.4751 374.926 54.0496 374.926ZM54.3762 373.72C54.7916 373.72 55.1467 373.638 55.4415 373.474C55.7397 373.31 55.9658 373.095 56.1199 372.831C56.2774 372.563 56.3561 372.276 56.3561 371.971L56.3561 370.976C56.3025 371.03 56.1986 371.08 56.0445 371.127C55.8938 371.171 55.7213 371.209 55.527 371.243C55.3327 371.273 55.1434 371.301 54.9591 371.328C54.7749 371.352 54.6208 371.372 54.4968 371.389C54.2054 371.425 53.9391 371.487 53.6979 371.574C53.46 371.662 53.2691 371.787 53.125 371.951C52.9843 372.112 52.914 372.327 52.9139 372.595C52.9139 372.966 53.0513 373.248 53.326 373.439C53.6007 373.626 53.9508 373.72 54.3762 373.72ZM61.3623 370.172L61.3623 374.755H59.8598L59.8598 367.037H61.302L61.302 368.293H61.3975C61.575 367.884 61.8531 367.556 62.2316 367.308C62.6135 367.06 63.0942 366.936 63.6738 366.936C64.1998 366.936 64.6604 367.047 65.0557 367.268C65.451 367.486 65.7575 367.811 65.9753 368.243C66.193 368.675 66.3019 369.209 66.3019 369.846L66.3019 374.755H64.7994L64.7994 370.027C64.7994 369.467 64.6537 369.03 64.3622 368.715C64.0708 368.397 63.6705 368.238 63.1612 368.238C62.8128 368.238 62.503 368.313 62.2316 368.464C61.9636 368.615 61.7509 368.836 61.5934 369.127C61.4393 369.415 61.3623 369.764 61.3623 370.172ZM69.6988 372.137L69.6888 370.303H69.9501L73.0254 367.037H74.8243L71.3169 370.755H71.0807L69.6988 372.137ZM68.3169 374.755L68.3169 364.464H69.8194L69.8194 374.755H68.3169ZM73.1912 374.755L70.4274 371.087L71.4626 370.037L75.0354 374.755H73.1912ZM81.9775 368.921L80.6157 369.162C80.5587 368.988 80.4683 368.822 80.3443 368.665C80.2237 368.508 80.0596 368.379 79.8519 368.278C79.6442 368.178 79.3846 368.127 79.073 368.127C78.6476 368.127 78.2924 368.223 78.0077 368.414C77.7229 368.601 77.5806 368.844 77.5806 369.142C77.5806 369.4 77.676 369.608 77.867 369.765C78.0579 369.923 78.3661 370.052 78.7916 370.152L80.0177 370.434C80.7279 370.598 81.2572 370.851 81.6056 371.193C81.954 371.534 82.1282 371.978 82.1282 372.524C82.1282 372.986 81.9942 373.399 81.7262 373.76C81.4616 374.119 81.0914 374.4 80.6157 374.605C80.1433 374.809 79.5956 374.911 78.9725 374.911C78.1082 374.911 77.403 374.727 76.857 374.358C76.3109 373.986 75.9759 373.459 75.852 372.775L77.3042 372.554C77.3946 372.933 77.5806 373.219 77.862 373.414C78.1434 373.605 78.5102 373.7 78.9624 373.7C79.4549 373.7 79.8485 373.598 80.1433 373.394C80.4381 373.186 80.5855 372.933 80.5855 372.635C80.5855 372.394 80.4951 372.191 80.3142 372.027C80.1366 371.863 79.8636 371.739 79.4951 371.655L78.1886 371.368C77.4683 371.204 76.9357 370.943 76.5906 370.585C76.2489 370.226 76.0781 369.772 76.0781 369.223C76.0781 368.767 76.2054 368.368 76.46 368.027C76.7146 367.685 77.0663 367.419 77.5152 367.228C77.9641 367.034 78.4784 366.936 79.0579 366.936C79.8921 366.936 80.5487 367.117 81.0277 367.479C81.5068 367.838 81.8234 368.318 81.9775 368.921Z" fill="url(#paint9_linear_530_267)"/>
<path opacity="0.8" d="M227.995 340.528L227.995 188.426" stroke="url(#paint10_linear_530_267)" stroke-width="6.31858"/>
<path d="M227.995 340.528L227.995 188.426" stroke="url(#paint11_linear_530_267)" stroke-width="0.98971"/>
<g filter="url(#filter5_ii_530_267)">
<path d="M176.74 378.684C173.168 375.113 173.168 369.323 176.74 365.751L221.328 321.163C224.899 317.592 230.69 317.592 234.261 321.163L278.849 365.751C282.421 369.323 282.421 375.113 278.849 378.684L234.261 423.272C230.69 426.844 224.899 426.844 221.328 423.272L176.74 378.684Z" fill="#121212"/>
</g>
<path d="M177.702 366.713L222.29 322.125C225.33 319.085 230.259 319.085 233.299 322.125L277.887 366.713C280.927 369.753 280.927 374.682 277.887 377.722L233.299 422.31C230.259 425.35 225.33 425.35 222.29 422.31L177.702 377.722C174.662 374.682 174.662 369.753 177.702 366.713Z" stroke="#0070FA" stroke-width="2.72132"/>
<path d="M200.343 370.187C200.301 369.821 200.131 369.537 199.832 369.336C199.534 369.133 199.157 369.031 198.704 369.031C198.379 369.031 198.098 369.083 197.861 369.186C197.624 369.286 197.44 369.425 197.308 369.603C197.179 369.778 197.115 369.978 197.115 370.202C197.115 370.39 197.159 370.553 197.246 370.689C197.337 370.826 197.454 370.94 197.598 371.033C197.745 371.123 197.902 371.199 198.07 371.261C198.237 371.321 198.398 371.37 198.553 371.408L199.326 371.609C199.579 371.671 199.838 371.755 200.103 371.86C200.368 371.966 200.615 372.105 200.841 372.278C201.068 372.451 201.251 372.664 201.39 372.92C201.532 373.175 201.603 373.48 201.603 373.836C201.603 374.284 201.487 374.682 201.255 375.03C201.026 375.378 200.692 375.652 200.254 375.853C199.818 376.054 199.291 376.155 198.673 376.155C198.08 376.155 197.567 376.061 197.134 375.873C196.701 375.685 196.363 375.418 196.118 375.073C195.873 374.725 195.738 374.312 195.712 373.836H196.91C196.933 374.122 197.026 374.36 197.188 374.551C197.353 374.739 197.563 374.879 197.819 374.972C198.076 375.062 198.358 375.107 198.665 375.107C199.003 375.107 199.303 375.055 199.566 374.949C199.831 374.841 200.04 374.691 200.192 374.501C200.344 374.307 200.42 374.082 200.42 373.824C200.42 373.59 200.353 373.398 200.219 373.248C200.088 373.099 199.908 372.975 199.682 372.877C199.457 372.779 199.204 372.693 198.92 372.618L197.985 372.363C197.351 372.19 196.848 371.936 196.477 371.601C196.109 371.266 195.925 370.823 195.925 370.272C195.925 369.816 196.048 369.418 196.296 369.077C196.543 368.737 196.878 368.473 197.301 368.285C197.723 368.094 198.2 367.999 198.731 367.999C199.267 367.999 199.74 368.093 200.149 368.281C200.562 368.469 200.886 368.728 201.123 369.058C201.361 369.385 201.484 369.762 201.495 370.187H200.343ZM206.698 373.561L206.698 370.086H207.858L207.858 376.023H206.722L206.722 374.995H206.66C206.523 375.312 206.304 375.576 206.003 375.788C205.704 375.996 205.331 376.101 204.885 376.101C204.504 376.101 204.167 376.017 203.873 375.85C203.582 375.679 203.352 375.428 203.185 375.096C203.02 374.763 202.937 374.352 202.937 373.863L202.937 370.086H204.093L204.093 373.724C204.093 374.128 204.205 374.45 204.429 374.69C204.654 374.93 204.945 375.049 205.303 375.049C205.519 375.049 205.735 374.995 205.948 374.887C206.165 374.779 206.344 374.615 206.486 374.396C206.63 374.177 206.701 373.899 206.698 373.561ZM209.411 378.25L209.411 370.086H210.54L210.54 371.049H210.636C210.703 370.925 210.8 370.782 210.926 370.62C211.052 370.457 211.228 370.316 211.452 370.194C211.676 370.071 211.972 370.009 212.341 370.009C212.82 370.009 213.248 370.13 213.624 370.372C214 370.615 214.296 370.964 214.509 371.42C214.726 371.876 214.834 372.425 214.834 373.066C214.834 373.708 214.727 374.258 214.513 374.717C214.299 375.173 214.006 375.525 213.632 375.772C213.258 376.017 212.832 376.139 212.352 376.139C211.992 376.139 211.697 376.079 211.467 375.958C211.241 375.837 211.063 375.695 210.934 375.533C210.805 375.37 210.706 375.226 210.636 375.1H210.567L210.567 378.25H209.411ZM210.543 373.055C210.543 373.472 210.604 373.838 210.725 374.153C210.846 374.467 211.022 374.713 211.251 374.891C211.48 375.066 211.761 375.154 212.094 375.154C212.439 375.154 212.727 375.062 212.959 374.879C213.191 374.694 213.367 374.443 213.485 374.126C213.606 373.809 213.667 373.452 213.667 373.055C213.667 372.663 213.607 372.311 213.489 372C213.373 371.688 213.198 371.442 212.963 371.261C212.731 371.081 212.441 370.991 212.094 370.991C211.759 370.991 211.475 371.077 211.243 371.25C211.014 371.422 210.84 371.663 210.721 371.973C210.603 372.282 210.543 372.643 210.543 373.055ZM218.688 376.143C218.103 376.143 217.599 376.018 217.177 375.768C216.756 375.516 216.432 375.162 216.202 374.705C215.976 374.247 215.862 373.709 215.862 373.094C215.862 372.485 215.976 371.949 216.202 371.486C216.432 371.022 216.751 370.66 217.161 370.399C217.573 370.139 218.055 370.009 218.607 370.009C218.942 370.009 219.266 370.064 219.581 370.175C219.895 370.286 220.177 370.46 220.427 370.697C220.677 370.934 220.874 371.242 221.019 371.621C221.163 371.997 221.235 372.454 221.235 372.993L221.235 373.403H216.516L216.516 372.537H220.103C220.103 372.233 220.041 371.964 219.917 371.729C219.793 371.492 219.619 371.305 219.395 371.169C219.174 371.032 218.913 370.964 218.614 370.964C218.29 370.964 218.006 371.044 217.764 371.203C217.524 371.361 217.339 371.567 217.207 371.822C217.079 372.074 217.014 372.349 217.014 372.645L217.014 373.322C217.014 373.718 217.084 374.056 217.223 374.334C217.365 374.613 217.562 374.825 217.814 374.972C218.067 375.116 218.362 375.189 218.699 375.189C218.919 375.189 219.118 375.158 219.299 375.096C219.479 375.031 219.635 374.936 219.766 374.81C219.898 374.683 219.998 374.528 220.068 374.342L221.162 374.539C221.074 374.861 220.917 375.143 220.69 375.386C220.466 375.625 220.184 375.812 219.844 375.946C219.506 376.078 219.121 376.143 218.688 376.143ZM222.518 376.023L222.518 370.086H223.635L223.635 371.029H223.697C223.805 370.71 223.995 370.459 224.269 370.276C224.544 370.09 224.856 369.997 225.204 369.997C225.276 369.997 225.361 370 225.459 370.005C225.56 370.01 225.638 370.017 225.695 370.024L225.695 371.13C225.649 371.117 225.566 371.103 225.448 371.087C225.329 371.069 225.21 371.06 225.092 371.06C224.819 371.06 224.575 371.118 224.361 371.234C224.15 371.348 223.983 371.506 223.859 371.71C223.735 371.911 223.673 372.14 223.673 372.398L223.673 376.023H222.518ZM229.669 376.023L229.669 368.107H234.578L234.578 369.135H230.863L230.863 371.547H234.226L234.226 372.572H230.863L230.863 376.023H229.669ZM239.343 373.561L239.343 370.086H240.502L240.502 376.023H239.366L239.366 374.995H239.304C239.167 375.312 238.948 375.576 238.647 375.788C238.348 375.996 237.976 376.101 237.53 376.101C237.148 376.101 236.811 376.017 236.517 375.85C236.226 375.679 235.997 375.428 235.829 375.096C235.664 374.763 235.582 374.352 235.582 373.863L235.582 370.086H236.737L236.737 373.724C236.737 374.128 236.85 374.45 237.074 374.69C237.298 374.93 237.589 375.049 237.947 375.049C238.164 375.049 238.379 374.995 238.593 374.887C238.809 374.779 238.988 374.615 239.13 374.396C239.274 374.177 239.345 373.899 239.343 373.561ZM243.211 372.498L243.211 376.023H242.055L242.055 370.086H243.165L243.165 371.053H243.238C243.375 370.738 243.589 370.486 243.88 370.295C244.173 370.104 244.543 370.009 244.989 370.009C245.394 370.009 245.748 370.094 246.052 370.264C246.356 370.432 246.592 370.682 246.759 371.014C246.927 371.346 247.011 371.757 247.011 372.247L247.011 376.023H245.855L245.855 372.386C245.855 371.956 245.743 371.62 245.519 371.377C245.294 371.132 244.987 371.01 244.595 371.01C244.327 371.01 244.088 371.068 243.88 371.184C243.674 371.3 243.51 371.47 243.389 371.694C243.27 371.916 243.211 372.184 243.211 372.498ZM250.783 376.139C250.304 376.139 249.876 376.017 249.5 375.772C249.126 375.525 248.833 375.173 248.619 374.717C248.407 374.258 248.302 373.708 248.302 373.066C248.302 372.425 248.409 371.876 248.623 371.42C248.839 370.964 249.135 370.615 249.512 370.372C249.888 370.13 250.314 370.009 250.791 370.009C251.16 370.009 251.456 370.071 251.68 370.194C251.907 370.316 252.082 370.457 252.206 370.62C252.332 370.782 252.43 370.925 252.5 371.049H252.569L252.569 368.107H253.725L253.725 376.023H252.596L252.596 375.1H252.5C252.43 375.226 252.329 375.37 252.198 375.533C252.069 375.695 251.891 375.837 251.665 375.958C251.438 376.079 251.144 376.139 250.783 376.139ZM251.038 375.154C251.371 375.154 251.652 375.066 251.881 374.891C252.113 374.713 252.288 374.467 252.407 374.153C252.528 373.838 252.588 373.472 252.588 373.055C252.588 372.643 252.529 372.282 252.411 371.973C252.292 371.663 252.118 371.422 251.889 371.25C251.66 371.077 251.376 370.991 251.038 370.991C250.691 370.991 250.401 371.081 250.169 371.261C249.937 371.442 249.762 371.688 249.643 372C249.527 372.311 249.469 372.663 249.469 373.055C249.469 373.452 249.528 373.809 249.647 374.126C249.765 374.443 249.941 374.694 250.173 374.879C250.407 375.062 250.696 375.154 251.038 375.154ZM259.824 371.536L258.776 371.721C258.732 371.587 258.663 371.46 258.567 371.339C258.475 371.218 258.348 371.118 258.188 371.041C258.029 370.964 257.829 370.925 257.589 370.925C257.262 370.925 256.989 370.998 256.77 371.145C256.551 371.29 256.441 371.476 256.441 371.706C256.441 371.904 256.515 372.064 256.662 372.185C256.809 372.306 257.046 372.405 257.373 372.483L258.316 372.699C258.862 372.826 259.27 373.02 259.538 373.283C259.806 373.546 259.94 373.887 259.94 374.307C259.94 374.663 259.836 374.98 259.63 375.258C259.427 375.534 259.142 375.75 258.776 375.908C258.413 376.065 257.991 376.143 257.512 376.143C256.847 376.143 256.305 376.002 255.885 375.718C255.465 375.432 255.207 375.026 255.112 374.501L256.229 374.33C256.298 374.622 256.441 374.842 256.658 374.991C256.874 375.138 257.156 375.212 257.504 375.212C257.883 375.212 258.186 375.133 258.413 374.976C258.639 374.816 258.753 374.622 258.753 374.392C258.753 374.207 258.683 374.051 258.544 373.925C258.408 373.798 258.198 373.703 257.914 373.639L256.909 373.418C256.355 373.292 255.945 373.091 255.68 372.815C255.417 372.539 255.286 372.19 255.286 371.768C255.286 371.417 255.383 371.111 255.579 370.848C255.775 370.585 256.046 370.38 256.391 370.233C256.736 370.084 257.132 370.009 257.578 370.009C258.219 370.009 258.725 370.148 259.093 370.426C259.462 370.702 259.705 371.072 259.824 371.536Z" fill="#0070FA"/>
<defs>
<filter id="filter0_dd_530_267" x="146.933" y="50.7497" width="161.71" height="181.121" filterUnits="userSpaceOnUse" color-interpolation-filters="sRGB">
<feFlood flood-opacity="0" result="BackgroundImageFix"/>
<feColorMatrix in="SourceAlpha" type="matrix" values="0 0 0 0 0 0 0 0 0 0 0 0 0 0 0 0 0 0 127 0" result="hardAlpha"/>
<feOffset dy="9.70527"/>
<feGaussianBlur stdDeviation="9.70527"/>
<feComposite in2="hardAlpha" operator="out"/>
<feColorMatrix type="matrix" values="0 0 0 0 1 0 0 0 0 0.262745 0 0 0 0 0.458824 0 0 0 0.1 0"/>
<feBlend mode="normal" in2="BackgroundImageFix" result="effect1_dropShadow_530_267"/>
<feColorMatrix in="SourceAlpha" type="matrix" values="0 0 0 0 0 0 0 0 0 0 0 0 0 0 0 0 0 0 127 0" result="hardAlpha"/>
<feOffset dy="-9.70527"/>
<feGaussianBlur stdDeviation="9.70527"/>
<feComposite in2="hardAlpha" operator="out"/>
<feColorMatrix type="matrix" values="0 0 0 0 1 0 0 0 0 0.258333 0 0 0 0 0.45492 0 0 0 0.1 0"/>
<feBlend mode="normal" in2="effect1_dropShadow_530_267" result="effect2_dropShadow_530_267"/>
<feBlend mode="normal" in="SourceGraphic" in2="effect2_dropShadow_530_267" result="shape"/>
</filter>
<filter id="filter1_ii_530_267" x="340.533" y="315.011" width="107.466" height="114.414" filterUnits="userSpaceOnUse" color-interpolation-filters="sRGB">
<feFlood flood-opacity="0" result="BackgroundImageFix"/>
<feBlend mode="normal" in="SourceGraphic" in2="BackgroundImageFix" result="shape"/>
<feColorMatrix in="SourceAlpha" type="matrix" values="0 0 0 0 0 0 0 0 0 0 0 0 0 0 0 0 0 0 127 0" result="hardAlpha"/>
<feOffset dy="-3.47368"/>
<feGaussianBlur stdDeviation="6.94735"/>
<feComposite in2="hardAlpha" operator="arithmetic" k2="-1" k3="1"/>
<feColorMatrix type="matrix" values="0 0 0 0 1 0 0 0 0 0.262745 0 0 0 0 0.458824 0 0 0 0.2 0"/>
<feBlend mode="normal" in2="shape" result="effect1_innerShadow_530_267"/>
<feColorMatrix in="SourceAlpha" type="matrix" values="0 0 0 0 0 0 0 0 0 0 0 0 0 0 0 0 0 0 127 0" result="hardAlpha"/>
<feOffset dy="3.47368"/>
<feGaussianBlur stdDeviation="3.47368"/>
<feComposite in2="hardAlpha" operator="arithmetic" k2="-1" k3="1"/>
<feColorMatrix type="matrix" values="0 0 0 0 1 0 0 0 0 1 0 0 0 0 1 0 0 0 0.05 0"/>
<feBlend mode="normal" in2="effect1_innerShadow_530_267" result="effect2_innerShadow_530_267"/>
</filter>
<filter id="filter2_ii_530_267" x="73.678" y="436.051" width="107.466" height="112.494" filterUnits="userSpaceOnUse" color-interpolation-filters="sRGB">
<feFlood flood-opacity="0" result="BackgroundImageFix"/>
<feBlend mode="normal" in="SourceGraphic" in2="BackgroundImageFix" result="shape"/>
<feColorMatrix in="SourceAlpha" type="matrix" values="0 0 0 0 0 0 0 0 0 0 0 0 0 0 0 0 0 0 127 0" result="hardAlpha"/>
<feOffset dy="-2.5138"/>
<feGaussianBlur stdDeviation="5.02759"/>
<feComposite in2="hardAlpha" operator="arithmetic" k2="-1" k3="1"/>
<feColorMatrix type="matrix" values="0 0 0 0 0 0 0 0 0 0.439216 0 0 0 0 0.980392 0 0 0 0.2 0"/>
<feBlend mode="normal" in2="shape" result="effect1_innerShadow_530_267"/>
<feColorMatrix in="SourceAlpha" type="matrix" values="0 0 0 0 0 0 0 0 0 0 0 0 0 0 0 0 0 0 127 0" result="hardAlpha"/>
<feOffset dy="2.5138"/>
<feGaussianBlur stdDeviation="2.5138"/>
<feComposite in2="hardAlpha" operator="arithmetic" k2="-1" k3="1"/>
<feColorMatrix type="matrix" values="0 0 0 0 1 0 0 0 0 1 0 0 0 0 1 0 0 0 0.05 0"/>
<feBlend mode="normal" in2="effect1_innerShadow_530_267" result="effect2_innerShadow_530_267"/>
</filter>
<filter id="filter3_ii_530_267" x="274.434" y="436.052" width="107.467" height="112.494" filterUnits="userSpaceOnUse" color-interpolation-filters="sRGB">
<feFlood flood-opacity="0" result="BackgroundImageFix"/>
<feBlend mode="normal" in="SourceGraphic" in2="BackgroundImageFix" result="shape"/>
<feColorMatrix in="SourceAlpha" type="matrix" values="0 0 0 0 0 0 0 0 0 0 0 0 0 0 0 0 0 0 127 0" result="hardAlpha"/>
<feOffset dy="-2.5138"/>
<feGaussianBlur stdDeviation="5.02759"/>
<feComposite in2="hardAlpha" operator="arithmetic" k2="-1" k3="1"/>
<feColorMatrix type="matrix" values="0 0 0 0 0.847059 0 0 0 0 0.886275 0 0 0 0 1 0 0 0 0.2 0"/>
<feBlend mode="normal" in2="shape" result="effect1_innerShadow_530_267"/>
<feColorMatrix in="SourceAlpha" type="matrix" values="0 0 0 0 0 0 0 0 0 0 0 0 0 0 0 0 0 0 127 0" result="hardAlpha"/>
<feOffset dy="2.5138"/>
<feGaussianBlur stdDeviation="2.5138"/>
<feComposite in2="hardAlpha" operator="arithmetic" k2="-1" k3="1"/>
<feColorMatrix type="matrix" values="0 0 0 0 1 0 0 0 0 1 0 0 0 0 1 0 0 0 0.05 0"/>
<feBlend mode="normal" in2="effect1_innerShadow_530_267" result="effect2_innerShadow_530_267"/>
</filter>
<filter id="filter4_ii_530_267" x="8" y="315.971" width="107.466" height="112.494" filterUnits="userSpaceOnUse" color-interpolation-filters="sRGB">
<feFlood flood-opacity="0" result="BackgroundImageFix"/>
<feBlend mode="normal" in="SourceGraphic" in2="BackgroundImageFix" result="shape"/>
<feColorMatrix in="SourceAlpha" type="matrix" values="0 0 0 0 0 0 0 0 0 0 0 0 0 0 0 0 0 0 127 0" result="hardAlpha"/>
<feOffset dy="-2.5138"/>
<feGaussianBlur stdDeviation="5.02759"/>
<feComposite in2="hardAlpha" operator="arithmetic" k2="-1" k3="1"/>
<feColorMatrix type="matrix" values="0 0 0 0 0.172549 0 0 0 0 0.160784 0 0 0 0 0.466667 0 0 0 0.2 0"/>
<feBlend mode="normal" in2="shape" result="effect1_innerShadow_530_267"/>
<feColorMatrix in="SourceAlpha" type="matrix" values="0 0 0 0 0 0 0 0 0 0 0 0 0 0 0 0 0 0 127 0" result="hardAlpha"/>
<feOffset dy="2.5138"/>
<feGaussianBlur stdDeviation="2.5138"/>
<feComposite in2="hardAlpha" operator="arithmetic" k2="-1" k3="1"/>
<feColorMatrix type="matrix" values="0 0 0 0 1 0 0 0 0 1 0 0 0 0 1 0 0 0 0.05 0"/>
<feBlend mode="normal" in2="effect1_innerShadow_530_267" result="effect2_innerShadow_530_267"/>
</filter>
<filter id="filter5_ii_530_267" x="174.061" y="315.971" width="107.466" height="112.494" filterUnits="userSpaceOnUse" color-interpolation-filters="sRGB">
<feFlood flood-opacity="0" result="BackgroundImageFix"/>
<feBlend mode="normal" in="SourceGraphic" in2="BackgroundImageFix" result="shape"/>
<feColorMatrix in="SourceAlpha" type="matrix" values="0 0 0 0 0 0 0 0 0 0 0 0 0 0 0 0 0 0 127 0" result="hardAlpha"/>
<feOffset dy="-2.5138"/>
<feGaussianBlur stdDeviation="5.02759"/>
<feComposite in2="hardAlpha" operator="arithmetic" k2="-1" k3="1"/>
<feColorMatrix type="matrix" values="0 0 0 0 0 0 0 0 0 0.439216 0 0 0 0 0.980392 0 0 0 0.2 0"/>
<feBlend mode="normal" in2="shape" result="effect1_innerShadow_530_267"/>
<feColorMatrix in="SourceAlpha" type="matrix" values="0 0 0 0 0 0 0 0 0 0 0 0 0 0 0 0 0 0 127 0" result="hardAlpha"/>
<feOffset dy="2.5138"/>
<feGaussianBlur stdDeviation="2.5138"/>
<feComposite in2="hardAlpha" operator="arithmetic" k2="-1" k3="1"/>
<feColorMatrix type="matrix" values="0 0 0 0 1 0 0 0 0 1 0 0 0 0 1 0 0 0 0.05 0"/>
<feBlend mode="normal" in2="effect1_innerShadow_530_267" result="effect2_innerShadow_530_267"/>
</filter>
<linearGradient id="paint0_linear_530_267" x1="227.795" y1="279.754" x2="423.584" y2="475.543" gradientUnits="userSpaceOnUse">
<stop stop-color="#FF4375" stop-opacity="0"/>
<stop offset="0.526042" stop-color="#FF4375"/>
<stop offset="1" stop-color="#FF4375" stop-opacity="0"/>
</linearGradient>
<linearGradient id="paint1_linear_530_267" x1="404.684" y1="348.707" x2="323.508" y2="150.291" gradientUnits="userSpaceOnUse">
<stop stop-color="#FF4274"/>
<stop offset="1" stop-color="#FF4375"/>
</linearGradient>
<linearGradient id="paint2_linear_530_267" x1="404.684" y1="348.707" x2="323.508" y2="150.291" gradientUnits="userSpaceOnUse">
<stop stop-color="#FF4274"/>
<stop offset="1" stop-color="#FF4375"/>
</linearGradient>
<linearGradient id="paint3_linear_530_267" x1="329.083" y1="440.796" x2="380.897" y2="225.169" gradientUnits="userSpaceOnUse">
<stop stop-color="#D8E2FF"/>
<stop offset="1" stop-color="#FF4375"/>
</linearGradient>
<linearGradient id="paint4_linear_530_267" x1="329.083" y1="440.796" x2="380.897" y2="225.169" gradientUnits="userSpaceOnUse">
<stop stop-color="#D8E2FF"/>
<stop offset="1" stop-color="#FF4375"/>
</linearGradient>
<linearGradient id="paint5_linear_530_267" x1="56.7891" y1="339.907" x2="128.657" y2="150.695" gradientUnits="userSpaceOnUse">
<stop stop-color="#2C2977"/>
<stop offset="1" stop-color="#FF4375"/>
</linearGradient>
<linearGradient id="paint6_linear_530_267" x1="56.7891" y1="339.907" x2="128.657" y2="150.695" gradientUnits="userSpaceOnUse">
<stop stop-color="#2C2977"/>
<stop offset="1" stop-color="#FF4375"/>
</linearGradient>
<linearGradient id="paint7_linear_530_267" x1="126.916" y1="440.796" x2="306.837" y2="272.931" gradientUnits="userSpaceOnUse">
<stop stop-color="#3E46C5"/>
<stop offset="1" stop-color="#FF4375"/>
</linearGradient>
<linearGradient id="paint8_linear_530_267" x1="126.916" y1="440.796" x2="306.837" y2="272.931" gradientUnits="userSpaceOnUse">
<stop stop-color="#3E46C5"/>
<stop offset="1" stop-color="#FF4375"/>
</linearGradient>
<linearGradient id="paint9_linear_530_267" x1="62.1525" y1="360.755" x2="62.1525" y2="392.614" gradientUnits="userSpaceOnUse">
<stop stop-color="#2C2977"/>
<stop offset="0.479167" stop-color="#3F3BAB"/>
<stop offset="1" stop-color="#2A25AC"/>
</linearGradient>
<linearGradient id="paint10_linear_530_267" x1="228.995" y1="340.528" x2="228.995" y2="188.426" gradientUnits="userSpaceOnUse">
<stop stop-color="#0070FA"/>
<stop offset="1" stop-color="#FF4375"/>
</linearGradient>
<linearGradient id="paint11_linear_530_267" x1="228.995" y1="340.528" x2="228.995" y2="188.426" gradientUnits="userSpaceOnUse">
<stop stop-color="#0070FA"/>
<stop offset="1" stop-color="#FF4375"/>
</linearGradient>
<clipPath id="clip0_530_267">
<rect width="30.9063" height="30.9063" fill="white" transform="translate(212.335 120.756)"/>
</clipPath>
</defs>
</svg>
