<svg width="455" height="561" viewBox="0 0 455 561" fill="none" xmlns="http://www.w3.org/2000/svg">
<g opacity="0.7">
<rect opacity="0.1" width="219.836" height="219.836" rx="14.4224" transform="matrix(0.707106 -0.707107 0.707106 0.707107 72.2462 227.69)" fill="url(#paint0_linear_530_115)"/>
<rect opacity="0.1" width="322.002" height="322.002" rx="16.8674" transform="matrix(0.707107 0.707107 -0.707108 0.707106 227.69 0)" fill="url(#paint1_linear_530_115)"/>
<rect opacity="0.2" x="227.69" y="332.862" width="148.736" height="148.736" rx="12.7907" transform="rotate(-135 227.69 332.862)" fill="url(#paint2_linear_530_115)"/>
</g>
<g filter="url(#filter0_dd_530_115)">
<path d="M185.068 237.493C179.653 232.079 179.653 223.3 185.068 217.886L217.881 185.073C223.296 179.658 232.074 179.658 237.489 185.073L270.302 217.886C275.716 223.3 275.716 232.079 270.302 237.493L237.489 270.307C232.074 275.721 223.296 275.721 217.881 270.307L185.068 237.493Z" fill="#FF4375"/>
</g>
<g clip-path="url(#clip0_530_115)">
<path d="M234.031 235.683C232.362 235.683 230.802 235.211 229.48 234.393C230.519 233.247 231.319 231.88 231.802 230.372C232.44 230.797 233.207 231.045 234.031 231.045C236.255 231.045 238.058 229.242 238.058 227.018V222.527H242.697V227.018C242.697 231.804 238.817 235.683 234.031 235.683Z" fill="white"/>
<path d="M221.339 209.223C223.008 209.223 224.568 209.695 225.891 210.513C224.852 211.66 224.051 213.026 223.568 214.534C222.93 214.109 222.163 213.862 221.339 213.862C219.115 213.862 217.312 215.665 217.312 217.889L217.312 222.379L212.674 222.379L212.674 217.889C212.674 213.103 216.553 209.223 221.339 209.223Z" fill="white"/>
<path d="M217.312 220.672L217.312 227.018C217.312 229.242 219.115 231.045 221.339 231.045C223.563 231.045 225.366 229.242 225.366 227.018L225.366 222.527L230.004 222.527L230.004 227.018C230.004 231.804 226.125 235.683 221.339 235.683C216.553 235.683 212.673 231.804 212.673 227.018L212.673 220.672L217.312 220.672Z" fill="white"/>
<path d="M238.058 224.235L238.058 217.889C238.058 215.665 236.255 213.862 234.031 213.862C231.807 213.862 230.004 215.665 230.004 217.889L230.004 223.152L225.366 223.152L225.366 217.889C225.366 213.103 229.245 209.223 234.031 209.223C238.817 209.223 242.697 213.103 242.697 217.889L242.697 224.235L238.058 224.235Z" fill="white"/>
</g>
<path d="M233.383 247.672H232.491L234.495 242.103H235.466L237.47 247.672H236.578L235.004 243.115H234.96L233.383 247.672ZM233.532 245.491H236.426V246.198H233.532V245.491Z" fill="white"/>
<path d="M238.274 247.672V242.103H240.259C240.692 242.103 241.051 242.182 241.336 242.34C241.621 242.498 241.834 242.713 241.975 242.987C242.116 243.259 242.187 243.565 242.187 243.906C242.187 244.249 242.116 244.557 241.972 244.831C241.831 245.103 241.617 245.318 241.331 245.478C241.046 245.636 240.688 245.714 240.257 245.714H238.891V245.002H240.18C240.454 245.002 240.676 244.955 240.847 244.861C241.017 244.765 241.142 244.634 241.222 244.469C241.302 244.304 241.341 244.116 241.341 243.906C241.341 243.696 241.302 243.509 241.222 243.346C241.142 243.183 241.016 243.055 240.844 242.963C240.673 242.87 240.449 242.824 240.169 242.824H239.114V247.672H238.274Z" fill="white"/>
<path d="M244.012 242.103V247.672H243.172V242.103H244.012Z" fill="white"/>
<path d="M214.615 243.566C214.586 243.309 214.467 243.109 214.256 242.968C214.046 242.825 213.781 242.753 213.462 242.753C213.234 242.753 213.036 242.789 212.869 242.862C212.703 242.933 212.573 243.031 212.481 243.156C212.39 243.279 212.345 243.419 212.345 243.577C212.345 243.709 212.375 243.824 212.437 243.92C212.501 244.016 212.583 244.097 212.685 244.162C212.788 244.225 212.898 244.279 213.016 244.322C213.134 244.364 213.247 244.398 213.356 244.426L213.9 244.567C214.078 244.61 214.26 244.669 214.447 244.744C214.633 244.818 214.806 244.916 214.966 245.037C215.126 245.159 215.254 245.309 215.352 245.489C215.452 245.668 215.502 245.883 215.502 246.133C215.502 246.449 215.42 246.729 215.257 246.973C215.096 247.218 214.861 247.411 214.553 247.553C214.246 247.694 213.876 247.765 213.44 247.765C213.024 247.765 212.663 247.699 212.358 247.566C212.054 247.434 211.815 247.246 211.643 247.003C211.471 246.759 211.376 246.469 211.358 246.133H212.201C212.217 246.334 212.282 246.502 212.396 246.636C212.512 246.769 212.66 246.867 212.84 246.933C213.021 246.996 213.219 247.028 213.435 247.028C213.673 247.028 213.884 246.991 214.069 246.916C214.255 246.84 214.402 246.735 214.509 246.601C214.616 246.465 214.67 246.306 214.67 246.125C214.67 245.96 214.622 245.825 214.528 245.72C214.436 245.615 214.31 245.528 214.15 245.459C213.993 245.39 213.814 245.329 213.615 245.277L212.956 245.097C212.511 244.976 212.157 244.797 211.896 244.562C211.637 244.326 211.507 244.014 211.507 243.626C211.507 243.305 211.594 243.025 211.768 242.786C211.942 242.547 212.178 242.361 212.475 242.228C212.772 242.094 213.108 242.027 213.481 242.027C213.858 242.027 214.191 242.093 214.479 242.226C214.769 242.358 214.998 242.54 215.165 242.772C215.331 243.002 215.418 243.267 215.426 243.566H214.615Z" fill="white"/>
<path d="M219.086 245.94V243.496H219.902V247.672H219.103V246.949H219.059C218.963 247.172 218.809 247.358 218.597 247.506C218.387 247.653 218.125 247.727 217.811 247.727C217.543 247.727 217.305 247.668 217.099 247.55C216.894 247.43 216.732 247.254 216.615 247.02C216.499 246.786 216.441 246.497 216.441 246.152V243.496H217.254V246.054C217.254 246.339 217.332 246.566 217.49 246.734C217.648 246.903 217.853 246.987 218.105 246.987C218.257 246.987 218.408 246.949 218.559 246.873C218.711 246.797 218.837 246.682 218.937 246.528C219.038 246.373 219.088 246.178 219.086 245.94Z" fill="white"/>
<path d="M220.995 249.239V243.496H221.789V244.173H221.857C221.904 244.086 221.972 243.985 222.061 243.871C222.149 243.757 222.273 243.657 222.43 243.572C222.588 243.485 222.797 243.441 223.056 243.441C223.393 243.441 223.694 243.526 223.959 243.697C224.223 243.867 224.431 244.113 224.581 244.434C224.734 244.755 224.81 245.141 224.81 245.592C224.81 246.044 224.735 246.431 224.584 246.753C224.434 247.074 224.227 247.322 223.964 247.496C223.701 247.668 223.401 247.754 223.064 247.754C222.81 247.754 222.603 247.711 222.441 247.626C222.282 247.541 222.157 247.441 222.066 247.327C221.975 247.213 221.906 247.111 221.857 247.022H221.808V249.239H220.995ZM221.791 245.584C221.791 245.878 221.834 246.135 221.919 246.356C222.004 246.577 222.128 246.751 222.289 246.876C222.45 246.999 222.648 247.061 222.882 247.061C223.125 247.061 223.328 246.996 223.491 246.867C223.654 246.737 223.777 246.56 223.861 246.337C223.946 246.114 223.989 245.863 223.989 245.584C223.989 245.308 223.947 245.061 223.863 244.842C223.782 244.622 223.659 244.449 223.494 244.322C223.33 244.195 223.127 244.132 222.882 244.132C222.646 244.132 222.447 244.193 222.284 244.314C222.122 244.436 222 244.605 221.916 244.823C221.833 245.04 221.791 245.294 221.791 245.584Z" fill="white"/>
<path d="M227.521 247.757C227.109 247.757 226.755 247.669 226.458 247.493C226.162 247.315 225.934 247.066 225.772 246.745C225.613 246.422 225.533 246.044 225.533 245.611C225.533 245.183 225.613 244.806 225.772 244.48C225.934 244.154 226.158 243.899 226.447 243.716C226.737 243.533 227.076 243.441 227.464 243.441C227.699 243.441 227.928 243.48 228.149 243.558C228.37 243.636 228.569 243.758 228.745 243.925C228.92 244.092 229.059 244.309 229.161 244.575C229.262 244.84 229.313 245.162 229.313 245.54V245.829H225.993V245.22H228.516C228.516 245.006 228.473 244.816 228.386 244.651C228.299 244.484 228.176 244.353 228.018 244.257C227.863 244.161 227.679 244.113 227.469 244.113C227.241 244.113 227.041 244.169 226.871 244.281C226.702 244.392 226.572 244.537 226.479 244.717C226.389 244.894 226.343 245.087 226.343 245.296V245.772C226.343 246.051 226.392 246.288 226.49 246.484C226.59 246.68 226.729 246.829 226.906 246.933C227.084 247.034 227.292 247.085 227.529 247.085C227.683 247.085 227.824 247.063 227.95 247.02C228.077 246.974 228.187 246.907 228.28 246.818C228.372 246.73 228.443 246.62 228.492 246.489L229.261 246.628C229.2 246.855 229.089 247.053 228.929 247.224C228.772 247.392 228.573 247.524 228.334 247.618C228.096 247.71 227.825 247.757 227.521 247.757Z" fill="white"/>
<path d="M230.215 247.672V243.496H231.001V244.159H231.044C231.12 243.934 231.255 243.758 231.447 243.629C231.641 243.498 231.86 243.433 232.105 243.433C232.156 243.433 232.215 243.435 232.284 243.438C232.355 243.442 232.41 243.447 232.45 243.452V244.23C232.418 244.221 232.36 244.211 232.276 244.2C232.193 244.187 232.109 244.181 232.026 244.181C231.834 244.181 231.663 244.222 231.512 244.303C231.363 244.383 231.246 244.494 231.159 244.638C231.072 244.779 231.028 244.94 231.028 245.122V247.672H230.215Z" fill="white"/>
<path opacity="0.8" d="M227.688 187.76C227.688 135.06 129.356 135.06 129.356 82.3611" stroke="url(#paint3_linear_530_115)" stroke-width="7.91768"/>
<path opacity="0.8" d="M227.692 187.76C227.692 135.06 178.526 135.06 178.526 82.3611" stroke="url(#paint4_linear_530_115)" stroke-width="7.91768"/>
<path opacity="0.8" d="M227.691 187.76C227.691 135.06 276.857 135.06 276.857 82.3611" stroke="url(#paint5_linear_530_115)" stroke-width="7.91768"/>
<path opacity="0.8" d="M227.691 187.76C227.691 135.06 326.023 135.06 326.023 82.3611" stroke="url(#paint6_linear_530_115)" stroke-width="7.91768"/>
<path opacity="0.8" d="M227.955 187.76L227.955 82.3611" stroke="url(#paint7_linear_530_115)" stroke-width="7.91768"/>
<path opacity="0.8" d="M227.84 263.483C227.84 321.256 357.594 321.256 357.594 379.03" stroke="url(#paint8_linear_530_115)" stroke-width="7.91768"/>
<path d="M227.84 263.483C227.84 321.256 357.594 321.256 357.594 379.03" stroke="url(#paint9_linear_530_115)" stroke-width="0.98971"/>
<path opacity="0.8" d="M227.838 263.483C227.838 359.342 304.637 359.342 304.637 455.201" stroke="url(#paint10_linear_530_115)" stroke-width="7.91768"/>
<path d="M227.838 263.483C227.838 359.342 304.637 359.342 304.637 455.201" stroke="url(#paint11_linear_530_115)" stroke-width="0.98971"/>
<path opacity="0.8" d="M227.842 263.483C227.842 321.021 97.7816 321.021 97.7816 378.559" stroke="url(#paint12_linear_530_115)" stroke-width="7.91768"/>
<path d="M227.842 263.483C227.842 321.021 97.7816 321.021 97.7816 378.559" stroke="url(#paint13_linear_530_115)" stroke-width="0.98971"/>
<path opacity="0.8" d="M227.842 263.483C227.842 359.342 151.055 359.342 151.055 455.201" stroke="url(#paint14_linear_530_115)" stroke-width="7.91768"/>
<path d="M227.842 263.483C227.842 359.342 151.055 359.342 151.055 455.201" stroke="url(#paint15_linear_530_115)" stroke-width="0.98971"/>
<g filter="url(#filter1_ii_530_115)">
<path d="M315.37 408.016C312.656 405.303 312.656 400.905 315.37 398.191L349.242 364.319C351.955 361.606 356.354 361.606 359.067 364.319L392.939 398.191C395.652 400.905 395.652 405.303 392.939 408.016L359.067 441.889C356.354 444.602 351.955 444.602 349.242 441.889L315.37 408.016Z" fill="#121212"/>
</g>
<path d="M316.332 399.154L350.204 365.281C352.386 363.099 355.923 363.099 358.105 365.281L391.977 399.154C394.159 401.335 394.159 404.873 391.977 407.054L358.105 440.927C355.923 443.108 352.386 443.108 350.204 440.927L316.332 407.054C314.15 404.873 314.15 401.335 316.332 399.154Z" stroke="#FF4375" stroke-width="2.72132"/>
<path d="M341.788 408.396H340.14L343.844 398.105H345.638L349.341 408.396H347.693L344.783 399.974H344.703L341.788 408.396ZM342.065 404.366H347.411L347.411 405.672H342.065L342.065 404.366ZM349.104 399.441L349.104 398.105H357.068L357.068 399.441H353.857L353.857 408.396H352.31L352.31 399.441H349.104ZM367.326 403.25C367.326 404.349 367.125 405.294 366.723 406.084C366.321 406.872 365.77 407.478 365.069 407.903C364.373 408.326 363.58 408.537 362.693 408.537C361.801 408.537 361.006 408.326 360.306 407.903C359.609 407.478 359.059 406.87 358.657 406.079C358.255 405.289 358.054 404.346 358.054 403.25C358.054 402.151 358.255 401.208 358.657 400.421C359.059 399.631 359.609 399.024 360.306 398.602C361.006 398.177 361.801 397.964 362.693 397.964C363.58 397.964 364.373 398.177 365.069 398.602C365.77 399.024 366.321 399.631 366.723 400.421C367.125 401.208 367.326 402.151 367.326 403.25ZM365.788 403.25C365.788 402.413 365.652 401.708 365.381 401.135C365.113 400.559 364.744 400.123 364.275 399.828C363.81 399.53 363.282 399.381 362.693 399.381C362.1 399.381 361.57 399.53 361.105 399.828C360.639 400.123 360.271 400.559 359.999 401.135C359.731 401.708 359.597 402.413 359.597 403.25C359.597 404.088 359.731 404.795 359.999 405.371C360.271 405.944 360.639 406.379 361.105 406.677C361.57 406.972 362.1 407.12 362.693 407.12C363.282 407.12 363.81 406.972 364.275 406.677C364.744 406.379 365.113 405.944 365.381 405.371C365.652 404.795 365.788 404.088 365.788 403.25Z" fill="#FF4375"/>
<g filter="url(#filter2_ii_530_115)">
<path d="M112.647 499.239C109.933 496.526 109.933 492.127 112.647 489.414L146.519 455.541C149.232 452.828 153.631 452.828 156.344 455.541L190.216 489.414C192.929 492.127 192.929 496.526 190.216 499.239L156.344 533.111C153.631 535.824 149.232 535.824 146.519 533.111L112.647 499.239Z" fill="#121212"/>
</g>
<path d="M113.609 490.376L147.481 456.504C149.663 454.322 153.2 454.322 155.382 456.504L189.254 490.376C191.436 492.558 191.436 496.095 189.254 498.277L155.382 532.149C153.2 534.331 149.663 534.331 147.481 532.149L113.609 498.277C111.427 496.095 111.427 492.558 113.609 490.376Z" stroke="#3E46C5" stroke-width="2.72132"/>
<path d="M134.799 491.264L134.799 483.348H137.621C138.237 483.348 138.747 483.46 139.151 483.684C139.556 483.908 139.859 484.215 140.06 484.604C140.261 484.991 140.361 485.426 140.361 485.911C140.361 486.398 140.26 486.836 140.056 487.225C139.855 487.612 139.551 487.918 139.144 488.145C138.739 488.369 138.23 488.481 137.617 488.481H135.676L135.676 487.469H137.509C137.898 487.469 138.213 487.402 138.456 487.268C138.698 487.131 138.876 486.945 138.989 486.711C139.102 486.476 139.159 486.21 139.159 485.911C139.159 485.612 139.102 485.346 138.989 485.114C138.876 484.883 138.697 484.701 138.452 484.569C138.21 484.438 137.89 484.372 137.493 484.372H135.993L135.993 491.264H134.799ZM143.343 491.396C142.967 491.396 142.627 491.326 142.323 491.187C142.019 491.045 141.778 490.84 141.6 490.572C141.425 490.304 141.337 489.976 141.337 489.587C141.337 489.252 141.402 488.976 141.531 488.76C141.659 488.543 141.833 488.372 142.052 488.245C142.271 488.119 142.516 488.024 142.787 487.959C143.057 487.895 143.333 487.846 143.614 487.813C143.97 487.771 144.258 487.738 144.48 487.712C144.702 487.684 144.863 487.639 144.963 487.577C145.064 487.515 145.114 487.414 145.114 487.275L145.114 487.248C145.114 486.911 145.018 486.649 144.828 486.464C144.64 486.278 144.359 486.185 143.985 486.185C143.596 486.185 143.289 486.272 143.065 486.444C142.844 486.614 142.69 486.804 142.605 487.012L141.519 486.765C141.648 486.404 141.836 486.113 142.083 485.891C142.333 485.667 142.621 485.505 142.945 485.404C143.27 485.301 143.611 485.25 143.97 485.25C144.207 485.25 144.458 485.278 144.723 485.335C144.991 485.389 145.241 485.489 145.473 485.636C145.708 485.783 145.9 485.993 146.049 486.266C146.199 486.537 146.273 486.889 146.273 487.322L146.273 491.264H145.145L145.145 490.453H145.098C145.024 490.602 144.912 490.749 144.762 490.893C144.613 491.038 144.421 491.157 144.186 491.253C143.952 491.348 143.671 491.396 143.343 491.396ZM143.595 490.468C143.914 490.468 144.187 490.405 144.414 490.279C144.644 490.152 144.817 489.987 144.936 489.784C145.057 489.578 145.118 489.357 145.118 489.123L145.118 488.358C145.076 488.399 144.997 488.437 144.878 488.474C144.762 488.507 144.629 488.537 144.48 488.562C144.33 488.586 144.185 488.608 144.043 488.628C143.901 488.646 143.783 488.662 143.687 488.675C143.463 488.703 143.258 488.751 143.073 488.818C142.89 488.885 142.743 488.981 142.632 489.107C142.524 489.231 142.47 489.396 142.47 489.602C142.47 489.888 142.576 490.105 142.787 490.252C142.998 490.396 143.267 490.468 143.595 490.468ZM148.331 493.491C148.158 493.491 148.001 493.477 147.859 493.448C147.717 493.423 147.612 493.394 147.542 493.363L147.821 492.416C148.032 492.473 148.22 492.497 148.385 492.49C148.55 492.482 148.695 492.42 148.822 492.304C148.951 492.188 149.064 491.999 149.162 491.736L149.305 491.342L147.133 485.327H148.369L149.873 489.935H149.935L151.439 485.327H152.679L150.233 492.057C150.119 492.366 149.975 492.628 149.8 492.841C149.624 493.058 149.416 493.22 149.173 493.328C148.931 493.437 148.65 493.491 148.331 493.491ZM153.766 491.264L153.766 485.327H154.883L154.883 486.27H154.945C155.053 485.951 155.243 485.699 155.517 485.516C155.792 485.331 156.104 485.238 156.452 485.238C156.524 485.238 156.609 485.241 156.707 485.246C156.808 485.251 156.886 485.257 156.943 485.265L156.943 486.371C156.897 486.358 156.814 486.344 156.696 486.328C156.577 486.31 156.458 486.301 156.34 486.301C156.067 486.301 155.823 486.359 155.609 486.475C155.398 486.588 155.231 486.747 155.107 486.951C154.983 487.152 154.921 487.381 154.921 487.639L154.921 491.264H153.766ZM160.231 491.384C159.675 491.384 159.189 491.257 158.774 491.001C158.359 490.746 158.037 490.389 157.808 489.931C157.578 489.472 157.464 488.936 157.464 488.323C157.464 487.707 157.578 487.168 157.808 486.707C158.037 486.246 158.359 485.888 158.774 485.632C159.189 485.377 159.675 485.25 160.231 485.25C160.788 485.25 161.274 485.377 161.689 485.632C162.104 485.888 162.426 486.246 162.655 486.707C162.884 487.168 162.999 487.707 162.999 488.323C162.999 488.936 162.884 489.472 162.655 489.931C162.426 490.389 162.104 490.746 161.689 491.001C161.274 491.257 160.788 491.384 160.231 491.384ZM160.235 490.414C160.596 490.414 160.895 490.319 161.132 490.128C161.369 489.937 161.544 489.683 161.658 489.366C161.774 489.049 161.832 488.7 161.832 488.319C161.832 487.94 161.774 487.592 161.658 487.275C161.544 486.956 161.369 486.699 161.132 486.506C160.895 486.313 160.596 486.216 160.235 486.216C159.872 486.216 159.57 486.313 159.331 486.506C159.094 486.699 158.917 486.956 158.801 487.275C158.688 487.592 158.631 487.94 158.631 488.319C158.631 488.7 158.688 489.049 158.801 489.366C158.917 489.683 159.094 489.937 159.331 490.128C159.57 490.319 159.872 490.414 160.235 490.414ZM165.445 483.348L165.445 491.264H164.289L164.289 483.348H165.445ZM168.156 483.348L168.155 491.264H167L167 483.348H168.156ZM141.979 504.376C141.449 504.376 140.991 504.28 140.607 504.087C140.226 503.893 139.932 503.63 139.726 503.298C139.52 502.963 139.417 502.584 139.417 502.162C139.417 501.839 139.484 501.553 139.618 501.303C139.752 501.051 139.938 500.818 140.178 500.604C140.418 500.39 140.695 500.175 141.009 499.958L142.285 499.058C142.501 498.916 142.67 498.766 142.791 498.609C142.912 498.449 142.973 498.252 142.973 498.018C142.973 497.832 142.893 497.654 142.733 497.484C142.573 497.314 142.36 497.229 142.092 497.229C141.906 497.229 141.742 497.274 141.601 497.365C141.461 497.455 141.352 497.571 141.272 497.712C141.195 497.852 141.156 497.999 141.156 498.153C141.156 498.334 141.205 498.515 141.303 498.698C141.403 498.881 141.532 499.071 141.69 499.266C141.847 499.46 142.012 499.661 142.184 499.869L145.86 504.264H144.554L141.512 500.689C141.257 500.387 141.02 500.104 140.8 499.838C140.581 499.57 140.404 499.3 140.267 499.027C140.133 498.751 140.066 498.453 140.066 498.134C140.066 497.77 140.149 497.448 140.313 497.167C140.481 496.884 140.714 496.662 141.013 496.503C141.312 496.343 141.662 496.263 142.064 496.263C142.472 496.263 142.821 496.343 143.112 496.503C143.406 496.66 143.631 496.87 143.788 497.133C143.948 497.393 144.028 497.678 144.028 497.987C144.028 498.363 143.934 498.696 143.746 498.984C143.56 499.27 143.304 499.533 142.977 499.773L141.388 500.944C141.079 501.171 140.864 501.395 140.743 501.617C140.624 501.836 140.565 502.007 140.565 502.131C140.565 502.357 140.623 502.567 140.739 502.761C140.857 502.954 141.022 503.109 141.233 503.225C141.447 503.341 141.697 503.398 141.983 503.398C142.277 503.398 142.563 503.335 142.841 503.209C143.122 503.08 143.376 502.896 143.603 502.656C143.832 502.417 144.014 502.129 144.148 501.794C144.282 501.459 144.349 501.084 144.349 500.67H145.393C145.393 501.18 145.335 501.611 145.219 501.964C145.103 502.315 144.962 502.601 144.797 502.823C144.635 503.042 144.482 503.213 144.337 503.337C144.291 503.378 144.247 503.419 144.206 503.46C144.165 503.502 144.121 503.543 144.074 503.584C143.806 503.855 143.482 504.054 143.1 504.183C142.722 504.312 142.348 504.376 141.979 504.376ZM149.739 504.264L149.739 496.348H150.934L150.934 499.788H154.88L154.88 496.348H156.079L156.078 504.264H154.88L154.88 500.813H150.934L150.934 504.264H149.739ZM157.818 504.264L157.818 496.348H160.64C161.253 496.348 161.762 496.454 162.167 496.665C162.574 496.876 162.878 497.169 163.079 497.542C163.28 497.913 163.38 498.343 163.38 498.83C163.38 499.314 163.278 499.741 163.075 500.109C162.874 500.475 162.57 500.76 162.163 500.963C161.758 501.167 161.249 501.269 160.636 501.269H158.498L158.498 500.24H160.528C160.914 500.24 161.229 500.185 161.471 500.074C161.716 499.963 161.895 499.802 162.008 499.591C162.121 499.38 162.178 499.126 162.178 498.83C162.178 498.531 162.12 498.272 162.004 498.053C161.891 497.834 161.712 497.666 161.467 497.55C161.225 497.432 160.906 497.372 160.512 497.372H159.012L159.012 504.264H157.818ZM161.726 500.693L163.682 504.264H162.321L160.404 500.693H161.726Z" fill="#3E46C5"/>
<g filter="url(#filter3_ii_530_115)">
<path d="M265.155 499.239C262.442 496.526 262.442 492.127 265.155 489.414L299.028 455.542C301.741 452.829 306.14 452.829 308.853 455.542L342.725 489.414C345.438 492.127 345.438 496.526 342.725 499.239L308.853 533.112C306.14 535.825 301.741 535.825 299.028 533.112L265.155 499.239Z" fill="#121212"/>
</g>
<path d="M266.117 490.376L299.99 456.504C302.172 454.322 305.709 454.322 307.891 456.504L341.763 490.376C343.945 492.558 343.945 496.095 341.763 498.277L307.891 532.149C305.709 534.331 302.172 534.331 299.99 532.149L266.117 498.277C263.936 496.095 263.936 492.558 266.117 490.376Z" stroke="#D8E2FF" stroke-width="2.72132"/>
<path d="M280.895 488.861C280.862 488.568 280.726 488.341 280.487 488.18C280.247 488.018 279.946 487.936 279.584 487.936C279.324 487.936 279.099 487.977 278.91 488.06C278.72 488.14 278.572 488.251 278.467 488.394C278.364 488.534 278.313 488.694 278.313 488.873C278.313 489.024 278.348 489.153 278.418 489.263C278.49 489.372 278.584 489.464 278.699 489.538C278.817 489.61 278.942 489.671 279.076 489.72C279.21 489.768 279.339 489.807 279.463 489.838L280.081 489.999C280.284 490.048 280.491 490.115 280.703 490.2C280.915 490.284 281.112 490.396 281.294 490.534C281.475 490.672 281.621 490.843 281.733 491.047C281.846 491.251 281.903 491.495 281.903 491.78C281.903 492.139 281.81 492.457 281.625 492.735C281.441 493.014 281.174 493.233 280.824 493.394C280.475 493.555 280.054 493.635 279.559 493.635C279.085 493.635 278.674 493.56 278.328 493.409C277.982 493.259 277.711 493.046 277.515 492.769C277.319 492.491 277.211 492.161 277.19 491.78H278.149C278.167 492.009 278.242 492.199 278.371 492.352C278.503 492.502 278.671 492.615 278.875 492.689C279.082 492.761 279.307 492.797 279.553 492.797C279.823 492.797 280.063 492.755 280.273 492.67C280.486 492.584 280.653 492.464 280.774 492.312C280.896 492.157 280.957 491.977 280.957 491.771C280.957 491.583 280.903 491.429 280.796 491.31C280.691 491.19 280.547 491.091 280.366 491.013C280.187 490.935 279.984 490.866 279.757 490.806L279.008 490.602C278.501 490.464 278.099 490.26 277.802 489.992C277.508 489.724 277.36 489.37 277.36 488.929C277.36 488.564 277.459 488.245 277.657 487.973C277.855 487.701 278.123 487.49 278.461 487.339C278.799 487.187 279.181 487.11 279.605 487.11C280.034 487.11 280.412 487.186 280.74 487.336C281.07 487.487 281.33 487.694 281.519 487.958C281.709 488.22 281.808 488.521 281.816 488.861H280.895ZM285.979 491.56V488.78H286.907V493.53H285.998V492.708H285.948C285.839 492.961 285.664 493.172 285.423 493.341C285.184 493.508 284.886 493.592 284.529 493.592C284.224 493.592 283.954 493.525 283.719 493.391C283.486 493.255 283.302 493.054 283.168 492.788C283.036 492.522 282.971 492.193 282.971 491.801V488.78H283.895V491.69C283.895 492.014 283.985 492.272 284.164 492.463C284.343 492.655 284.576 492.751 284.863 492.751C285.036 492.751 285.208 492.708 285.379 492.621C285.553 492.534 285.696 492.403 285.809 492.228C285.925 492.053 285.981 491.83 285.979 491.56ZM288.149 495.311V488.78H289.052V489.55H289.13C289.183 489.451 289.261 489.337 289.362 489.207C289.463 489.077 289.603 488.964 289.782 488.867C289.961 488.768 290.199 488.718 290.493 488.718C290.877 488.718 291.219 488.815 291.52 489.009C291.821 489.203 292.057 489.482 292.228 489.847C292.401 490.212 292.488 490.651 292.488 491.164C292.488 491.678 292.402 492.118 292.231 492.485C292.06 492.85 291.825 493.131 291.526 493.329C291.227 493.525 290.886 493.623 290.503 493.623C290.214 493.623 289.978 493.574 289.794 493.478C289.613 493.381 289.471 493.267 289.368 493.137C289.265 493.007 289.185 492.892 289.13 492.791H289.074V495.311H288.149ZM289.055 491.155C289.055 491.489 289.104 491.782 289.201 492.033C289.298 492.285 289.438 492.482 289.621 492.624C289.805 492.764 290.03 492.834 290.295 492.834C290.572 492.834 290.803 492.761 290.988 492.615C291.174 492.466 291.314 492.265 291.409 492.012C291.506 491.758 291.554 491.473 291.554 491.155C291.554 490.842 291.507 490.56 291.412 490.311C291.319 490.062 291.179 489.865 290.991 489.72C290.806 489.576 290.574 489.504 290.295 489.504C290.027 489.504 289.801 489.573 289.615 489.711C289.432 489.849 289.293 490.042 289.198 490.289C289.103 490.537 289.055 490.825 289.055 491.155ZM295.571 493.626C295.103 493.626 294.7 493.526 294.362 493.326C294.026 493.124 293.766 492.841 293.583 492.476C293.401 492.109 293.31 491.679 293.31 491.186C293.31 490.7 293.401 490.271 293.583 489.9C293.766 489.529 294.022 489.239 294.349 489.031C294.679 488.823 295.065 488.718 295.506 488.718C295.774 488.718 296.034 488.763 296.285 488.851C296.537 488.94 296.763 489.079 296.963 489.269C297.162 489.459 297.32 489.705 297.436 490.008C297.551 490.309 297.609 490.675 297.609 491.106V491.433H293.833V490.741H296.703C296.703 490.498 296.653 490.282 296.554 490.095C296.455 489.905 296.316 489.755 296.137 489.646C295.96 489.537 295.751 489.482 295.512 489.482C295.252 489.482 295.026 489.546 294.832 489.674C294.64 489.8 294.492 489.965 294.387 490.169C294.284 490.371 294.232 490.59 294.232 490.827V491.369C294.232 491.686 294.288 491.956 294.399 492.179C294.512 492.401 294.67 492.571 294.872 492.689C295.074 492.804 295.31 492.862 295.58 492.862C295.755 492.862 295.915 492.837 296.06 492.788C296.204 492.736 296.329 492.66 296.434 492.559C296.539 492.458 296.619 492.333 296.675 492.185L297.55 492.343C297.48 492.6 297.354 492.826 297.173 493.02C296.993 493.212 296.768 493.361 296.496 493.468C296.225 493.573 295.917 493.626 295.571 493.626ZM298.635 493.53V488.78H299.528V489.535H299.578C299.664 489.279 299.817 489.078 300.036 488.932C300.256 488.783 300.506 488.709 300.784 488.709C300.842 488.709 300.91 488.711 300.988 488.715C301.068 488.719 301.131 488.725 301.177 488.731V489.615C301.139 489.605 301.073 489.594 300.979 489.581C300.884 489.567 300.789 489.56 300.694 489.56C300.476 489.56 300.281 489.606 300.11 489.699C299.941 489.789 299.807 489.916 299.708 490.079C299.609 490.24 299.559 490.423 299.559 490.629V493.53H298.635ZM305.505 488.861C305.472 488.568 305.336 488.341 305.097 488.18C304.858 488.018 304.557 487.936 304.194 487.936C303.934 487.936 303.709 487.977 303.52 488.06C303.33 488.14 303.183 488.251 303.078 488.394C302.975 488.534 302.923 488.694 302.923 488.873C302.923 489.024 302.958 489.153 303.028 489.263C303.1 489.372 303.194 489.464 303.31 489.538C303.427 489.61 303.553 489.671 303.687 489.72C303.821 489.768 303.95 489.807 304.073 489.838L304.692 489.999C304.894 490.048 305.101 490.115 305.313 490.2C305.526 490.284 305.723 490.396 305.904 490.534C306.085 490.672 306.232 490.843 306.343 491.047C306.456 491.251 306.513 491.495 306.513 491.78C306.513 492.139 306.42 492.457 306.235 492.735C306.051 493.014 305.784 493.233 305.434 493.394C305.086 493.555 304.664 493.635 304.169 493.635C303.695 493.635 303.285 493.56 302.938 493.409C302.592 493.259 302.321 493.046 302.125 492.769C301.929 492.491 301.821 492.161 301.8 491.78H302.759C302.778 492.009 302.852 492.199 302.982 492.352C303.114 492.502 303.282 492.615 303.486 492.689C303.692 492.761 303.918 492.797 304.163 492.797C304.433 492.797 304.673 492.755 304.883 492.67C305.096 492.584 305.263 492.464 305.384 492.312C305.506 492.157 305.567 491.977 305.567 491.771C305.567 491.583 305.513 491.429 305.406 491.31C305.301 491.19 305.158 491.091 304.976 491.013C304.797 490.935 304.594 490.866 304.367 490.806L303.619 490.602C303.112 490.464 302.71 490.26 302.413 489.992C302.118 489.724 301.971 489.37 301.971 488.929C301.971 488.564 302.069 488.245 302.267 487.973C302.465 487.701 302.733 487.49 303.071 487.339C303.409 487.187 303.791 487.11 304.216 487.11C304.644 487.11 305.023 487.186 305.35 487.336C305.68 487.487 305.94 487.694 306.13 487.958C306.319 488.22 306.418 488.521 306.427 488.861H305.505ZM309.798 488.78V489.522H307.204V488.78H309.798ZM307.899 487.642H308.824V492.135C308.824 492.315 308.851 492.45 308.904 492.541C308.958 492.629 309.027 492.69 309.111 492.723C309.198 492.754 309.292 492.769 309.393 492.769C309.467 492.769 309.532 492.764 309.588 492.754C309.643 492.744 309.687 492.735 309.718 492.729L309.885 493.493C309.831 493.514 309.755 493.534 309.656 493.555C309.557 493.578 309.433 493.59 309.285 493.592C309.041 493.596 308.815 493.553 308.604 493.462C308.394 493.371 308.224 493.231 308.094 493.042C307.964 492.852 307.899 492.614 307.899 492.327V487.642ZM310.821 493.53V488.78H311.714V489.535H311.764C311.851 489.279 312.003 489.078 312.222 488.932C312.442 488.783 312.692 488.709 312.97 488.709C313.028 488.709 313.096 488.711 313.174 488.715C313.254 488.719 313.317 488.725 313.363 488.731V489.615C313.326 489.605 313.26 489.594 313.165 489.581C313.07 489.567 312.975 489.56 312.88 489.56C312.662 489.56 312.467 489.606 312.296 489.699C312.127 489.789 311.993 489.916 311.894 490.079C311.795 490.24 311.745 490.423 311.745 490.629V493.53H310.821ZM316.04 493.626C315.572 493.626 315.169 493.526 314.831 493.326C314.495 493.124 314.235 492.841 314.051 492.476C313.87 492.109 313.779 491.679 313.779 491.186C313.779 490.7 313.87 490.271 314.051 489.9C314.235 489.529 314.491 489.239 314.818 489.031C315.148 488.823 315.534 488.718 315.975 488.718C316.243 488.718 316.503 488.763 316.754 488.851C317.006 488.94 317.231 489.079 317.431 489.269C317.631 489.459 317.789 489.705 317.905 490.008C318.02 490.309 318.078 490.675 318.078 491.106V491.433H314.302V490.741H317.172C317.172 490.498 317.122 490.282 317.023 490.095C316.924 489.905 316.785 489.755 316.606 489.646C316.428 489.537 316.22 489.482 315.981 489.482C315.721 489.482 315.495 489.546 315.301 489.674C315.109 489.8 314.961 489.965 314.855 490.169C314.752 490.371 314.701 490.59 314.701 490.827V491.369C314.701 491.686 314.757 491.956 314.868 492.179C314.981 492.401 315.139 492.571 315.341 492.689C315.543 492.804 315.779 492.862 316.049 492.862C316.224 492.862 316.384 492.837 316.528 492.788C316.673 492.736 316.797 492.66 316.903 492.559C317.008 492.458 317.088 492.333 317.144 492.185L318.019 492.343C317.949 492.6 317.823 492.826 317.642 493.02C317.462 493.212 317.237 493.361 316.964 493.468C316.694 493.573 316.386 493.626 316.04 493.626ZM320.486 493.635C320.185 493.635 319.913 493.58 319.669 493.468C319.426 493.355 319.233 493.191 319.091 492.977C318.951 492.762 318.881 492.499 318.881 492.188C318.881 491.92 318.932 491.699 319.036 491.526C319.139 491.353 319.278 491.216 319.453 491.115C319.628 491.014 319.824 490.938 320.041 490.886C320.257 490.835 320.478 490.795 320.702 490.769C320.987 490.736 321.218 490.709 321.395 490.688C321.572 490.666 321.701 490.629 321.782 490.58C321.862 490.531 321.902 490.45 321.902 490.339V490.317C321.902 490.047 321.826 489.838 321.673 489.689C321.523 489.541 321.298 489.467 320.999 489.467C320.688 489.467 320.443 489.536 320.263 489.674C320.086 489.81 319.963 489.962 319.895 490.129L319.026 489.931C319.129 489.642 319.28 489.409 319.478 489.232C319.678 489.052 319.908 488.923 320.167 488.842C320.427 488.76 320.7 488.718 320.987 488.718C321.176 488.718 321.377 488.741 321.59 488.786C321.804 488.83 322.004 488.91 322.19 489.028C322.377 489.145 322.531 489.313 322.65 489.532C322.77 489.748 322.83 490.03 322.83 490.376V493.53H321.927V492.881H321.89C321.83 493 321.74 493.118 321.621 493.233C321.501 493.349 321.348 493.445 321.16 493.521C320.972 493.597 320.748 493.635 320.486 493.635ZM320.687 492.893C320.942 492.893 321.161 492.843 321.342 492.742C321.526 492.641 321.665 492.509 321.76 492.346C321.857 492.181 321.905 492.005 321.905 491.817V491.205C321.872 491.238 321.808 491.269 321.713 491.297C321.621 491.324 321.515 491.348 321.395 491.369C321.275 491.387 321.159 491.405 321.046 491.421C320.932 491.436 320.837 491.448 320.761 491.458C320.582 491.481 320.418 491.519 320.269 491.573C320.123 491.626 320.005 491.704 319.917 491.805C319.83 491.904 319.787 492.035 319.787 492.2C319.787 492.429 319.871 492.602 320.041 492.72C320.21 492.835 320.425 492.893 320.687 492.893ZM324.061 493.53V488.78H324.949V489.553H325.008C325.107 489.292 325.268 489.087 325.493 488.941C325.718 488.793 325.987 488.718 326.3 488.718C326.618 488.718 326.884 488.793 327.098 488.941C327.314 489.09 327.474 489.294 327.577 489.553H327.627C327.74 489.3 327.921 489.098 328.168 488.947C328.415 488.795 328.71 488.718 329.052 488.718C329.483 488.718 329.835 488.853 330.107 489.124C330.381 489.394 330.518 489.801 330.518 490.345V493.53H329.593V490.432C329.593 490.11 329.506 489.877 329.331 489.733C329.155 489.588 328.946 489.516 328.703 489.516C328.402 489.516 328.168 489.609 328.001 489.795C327.834 489.978 327.75 490.214 327.75 490.503V493.53H326.829V490.373C326.829 490.115 326.749 489.908 326.588 489.751C326.427 489.595 326.218 489.516 325.96 489.516C325.785 489.516 325.623 489.563 325.475 489.655C325.328 489.746 325.21 489.873 325.119 490.036C325.03 490.199 324.986 490.387 324.986 490.602V493.53H324.061ZM292.081 498.197V504.53H291.203L287.984 499.885H287.925V504.53H286.969V498.197H287.854L291.076 502.848H291.135V498.197H292.081ZM295.448 504.626C294.98 504.626 294.577 504.526 294.239 504.326C293.903 504.124 293.643 503.841 293.459 503.476C293.278 503.109 293.187 502.679 293.187 502.186C293.187 501.7 293.278 501.271 293.459 500.9C293.643 500.529 293.898 500.239 294.226 500.031C294.556 499.823 294.942 499.718 295.383 499.718C295.651 499.718 295.91 499.763 296.162 499.851C296.413 499.94 296.639 500.079 296.839 500.269C297.039 500.459 297.197 500.705 297.312 501.008C297.428 501.309 297.485 501.675 297.485 502.106V502.433H293.71V501.741H296.579C296.579 501.498 296.53 501.282 296.431 501.095C296.332 500.905 296.193 500.755 296.014 500.646C295.836 500.537 295.628 500.482 295.389 500.482C295.129 500.482 294.902 500.546 294.709 500.674C294.517 500.8 294.368 500.965 294.263 501.169C294.16 501.371 294.109 501.59 294.109 501.827V502.369C294.109 502.686 294.164 502.956 294.276 503.179C294.389 503.401 294.547 503.571 294.749 503.689C294.951 503.804 295.187 503.862 295.457 503.862C295.632 503.862 295.792 503.837 295.936 503.788C296.081 503.736 296.205 503.66 296.31 503.559C296.416 503.458 296.496 503.333 296.552 503.185L297.427 503.343C297.357 503.6 297.231 503.826 297.049 504.02C296.87 504.212 296.644 504.361 296.372 504.468C296.102 504.573 295.794 504.626 295.448 504.626ZM300.729 499.78V500.522H298.134V499.78H300.729ZM298.83 498.642H299.754L299.754 503.135C299.754 503.315 299.781 503.45 299.835 503.541C299.888 503.629 299.958 503.69 300.042 503.723C300.129 503.754 300.222 503.769 300.323 503.769C300.398 503.769 300.463 503.764 300.518 503.754C300.574 503.744 300.617 503.735 300.648 503.729L300.815 504.493C300.762 504.514 300.685 504.534 300.586 504.555C300.487 504.578 300.364 504.59 300.215 504.592C299.972 504.596 299.745 504.553 299.535 504.462C299.325 504.371 299.155 504.231 299.025 504.042C298.895 503.852 298.83 503.614 298.83 503.327V498.642ZM302.781 504.53L301.383 499.78H302.339L303.27 503.268H303.316L304.25 499.78H305.205L306.133 503.253H306.18L307.104 499.78H308.06L306.665 504.53H305.722L304.757 501.101H304.686L303.721 504.53H302.781ZM310.793 504.626C310.348 504.626 309.959 504.524 309.628 504.32C309.296 504.116 309.038 503.83 308.854 503.463C308.671 503.096 308.579 502.667 308.579 502.177C308.579 501.684 308.671 501.253 308.854 500.884C309.038 500.515 309.296 500.229 309.628 500.025C309.959 499.82 310.348 499.718 310.793 499.718C311.239 499.718 311.627 499.82 311.959 500.025C312.291 500.229 312.549 500.515 312.732 500.884C312.916 501.253 313.007 501.684 313.007 502.177C313.007 502.667 312.916 503.096 312.732 503.463C312.549 503.83 312.291 504.116 311.959 504.32C311.627 504.524 311.239 504.626 310.793 504.626ZM310.796 503.85C311.085 503.85 311.324 503.774 311.514 503.621C311.703 503.468 311.844 503.265 311.934 503.012C312.027 502.758 312.074 502.479 312.074 502.174C312.074 501.871 312.027 501.592 311.934 501.339C311.844 501.083 311.703 500.878 311.514 500.723C311.324 500.569 311.085 500.492 310.796 500.492C310.506 500.492 310.265 500.569 310.073 500.723C309.883 500.878 309.742 501.083 309.649 501.339C309.558 501.592 309.513 501.871 309.513 502.174C309.513 502.479 309.558 502.758 309.649 503.012C309.742 503.265 309.883 503.468 310.073 503.621C310.265 503.774 310.506 503.85 310.796 503.85ZM314.039 504.53V499.78H314.933V500.535H314.983C315.069 500.279 315.222 500.078 315.44 499.932C315.661 499.783 315.91 499.709 316.189 499.709C316.246 499.709 316.314 499.711 316.393 499.715C316.473 499.719 316.536 499.725 316.581 499.731V500.615C316.544 500.605 316.478 500.594 316.383 500.581C316.289 500.567 316.194 500.56 316.099 500.56C315.88 500.56 315.686 500.606 315.515 500.699C315.345 500.789 315.211 500.916 315.113 501.079C315.014 501.24 314.964 501.423 314.964 501.629V504.53H314.039ZM318.232 502.919L318.226 501.79H318.387L320.279 499.78H321.386L319.228 502.069H319.082L318.232 502.919ZM317.382 504.53V498.197H318.306V504.53H317.382ZM320.381 504.53L318.68 502.273L319.317 501.626L321.516 504.53H320.381Z" fill="#D8E2FF"/>
<g filter="url(#filter4_ii_530_115)">
<path d="M62.7526 408.017C60.0395 405.304 60.0395 400.905 62.7526 398.192L96.625 364.319C99.3381 361.606 103.737 361.606 106.45 364.319L140.322 398.192C143.035 400.905 143.035 405.304 140.322 408.017L106.45 441.889C103.737 444.602 99.3381 444.602 96.625 441.889L62.7526 408.017Z" fill="#121212"/>
</g>
<path d="M63.7147 399.154L97.5871 365.282C99.7688 363.1 103.306 363.1 105.488 365.282L139.36 399.154C141.542 401.336 141.542 404.873 139.36 407.055L105.488 440.927C103.306 443.109 99.7688 443.109 97.5871 440.927L63.7147 407.055C61.533 404.873 61.533 401.336 63.7147 399.154Z" stroke="#2C2977" stroke-width="2.72132"/>
<path d="M82.3689 408.396L82.3689 398.105H86.1377C86.868 398.105 87.4726 398.226 87.9517 398.467C88.4307 398.705 88.7892 399.028 89.027 399.437C89.2649 399.842 89.3838 400.299 89.3838 400.809C89.3838 401.237 89.3051 401.599 89.1476 401.894C88.9902 402.185 88.7791 402.42 88.5145 402.597C88.2532 402.772 87.9651 402.899 87.6502 402.979L87.6502 403.08C87.9919 403.097 88.3252 403.207 88.6502 403.412C88.9785 403.613 89.2498 403.899 89.4642 404.271C89.6786 404.643 89.7858 405.095 89.7858 405.628C89.7858 406.154 89.6619 406.626 89.414 407.045C89.1694 407.46 88.7909 407.79 88.2783 408.035C87.7658 408.276 87.1108 408.396 86.3135 408.396H82.3689ZM83.9216 407.065H86.1628C86.9065 407.065 87.4391 406.921 87.7607 406.633C88.0823 406.344 88.2431 405.984 88.2431 405.552C88.2431 405.227 88.1611 404.929 87.9969 404.658C87.8328 404.386 87.5983 404.17 87.2934 404.01C86.9919 403.849 86.6335 403.768 86.2181 403.768H83.9216L83.9216 407.065ZM83.9216 402.557H86.002C86.3504 402.557 86.6636 402.49 86.9417 402.356C87.2231 402.222 87.4458 402.035 87.61 401.793C87.7775 401.549 87.8612 401.261 87.8612 400.929C87.8612 400.504 87.7122 400.147 87.414 399.859C87.1159 399.571 86.6586 399.427 86.0422 399.427H83.9216L83.9216 402.557ZM93.7531 408.567C93.264 408.567 92.8218 408.477 92.4265 408.296C92.0312 408.112 91.7179 407.845 91.4868 407.497C91.259 407.148 91.1451 406.721 91.1451 406.215C91.1451 405.78 91.2288 405.422 91.3963 405.14C91.5638 404.859 91.79 404.636 92.0747 404.472C92.3595 404.308 92.6777 404.184 93.0295 404.1C93.3812 404.016 93.7397 403.953 94.1048 403.909C94.5671 403.855 94.9423 403.812 95.2304 403.778C95.5185 403.742 95.7279 403.683 95.8586 403.602C95.9892 403.522 96.0545 403.391 96.0545 403.211L96.0545 403.175C96.0545 402.737 95.9306 402.396 95.6827 402.155C95.4381 401.914 95.073 401.793 94.5872 401.793C94.0814 401.793 93.6827 401.906 93.3913 402.13C93.1032 402.351 92.9039 402.597 92.7933 402.869L91.3813 402.547C91.5488 402.078 91.7933 401.7 92.1149 401.412C92.4399 401.12 92.8134 400.909 93.2355 400.778C93.6576 400.644 94.1015 400.577 94.5671 400.577C94.8753 400.577 95.202 400.614 95.547 400.688C95.8954 400.758 96.2204 400.889 96.5219 401.08C96.8267 401.271 97.0763 401.544 97.2706 401.899C97.4649 402.251 97.5621 402.708 97.5621 403.271L97.562 408.396H96.0947L96.0947 407.341H96.0344C95.9373 407.535 95.7916 407.726 95.5973 407.914C95.403 408.102 95.1534 408.257 94.8485 408.381C94.5437 408.505 94.1785 408.567 93.7531 408.567ZM94.0797 407.361C94.4951 407.361 94.8502 407.279 95.145 407.115C95.4432 406.951 95.6693 406.736 95.8234 406.472C95.9808 406.204 96.0596 405.917 96.0596 405.612L96.0596 404.618C96.006 404.671 95.9021 404.721 95.748 404.768C95.5973 404.812 95.4247 404.85 95.2304 404.884C95.0361 404.914 94.8469 404.942 94.6626 404.969C94.4784 404.993 94.3243 405.013 94.2003 405.03C93.9089 405.066 93.6425 405.128 93.4013 405.216C93.1635 405.303 92.9725 405.428 92.8285 405.592C92.6878 405.753 92.6174 405.968 92.6174 406.236C92.6174 406.607 92.7548 406.889 93.0295 407.08C93.3042 407.267 93.6543 407.361 94.0797 407.361ZM101.066 403.814L101.066 408.396H99.5633L99.5633 400.678H101.005L101.005 401.934H101.101C101.278 401.525 101.557 401.197 101.935 400.949C102.317 400.701 102.798 400.577 103.377 400.577C103.903 400.577 104.364 400.688 104.759 400.909C105.154 401.127 105.461 401.452 105.679 401.884C105.896 402.316 106.005 402.85 106.005 403.487L106.005 408.396H104.503L104.503 403.668C104.503 403.108 104.357 402.671 104.066 402.356C103.774 402.038 103.374 401.879 102.865 401.879C102.516 401.879 102.206 401.954 101.935 402.105C101.667 402.256 101.454 402.477 101.297 402.768C101.143 403.056 101.066 403.405 101.066 403.814ZM109.402 405.778L109.392 403.944H109.654L112.729 400.678H114.528L111.02 404.396H110.784L109.402 405.778ZM108.02 408.396L108.02 398.105H109.523L109.523 408.396H108.02ZM112.895 408.396L110.131 404.728L111.166 403.678L114.739 408.396H112.895ZM121.681 402.562L120.319 402.804C120.262 402.629 120.172 402.463 120.048 402.306C119.927 402.149 119.763 402.02 119.555 401.919C119.348 401.819 119.088 401.768 118.776 401.768C118.351 401.768 117.996 401.864 117.711 402.055C117.426 402.242 117.284 402.485 117.284 402.783C117.284 403.041 117.38 403.249 117.57 403.407C117.761 403.564 118.07 403.693 118.495 403.793L119.721 404.075C120.431 404.239 120.961 404.492 121.309 404.834C121.657 405.175 121.832 405.619 121.832 406.165C121.832 406.628 121.698 407.04 121.43 407.401C121.165 407.76 120.795 408.041 120.319 408.246C119.847 408.45 119.299 408.552 118.676 408.552C117.812 408.552 117.106 408.368 116.56 407.999C116.014 407.628 115.679 407.1 115.555 406.417L117.008 406.195C117.098 406.574 117.284 406.86 117.565 407.055C117.847 407.246 118.214 407.341 118.666 407.341C119.158 407.341 119.552 407.239 119.847 407.035C120.142 406.827 120.289 406.574 120.289 406.276C120.289 406.035 120.199 405.832 120.018 405.668C119.84 405.504 119.567 405.38 119.199 405.296L117.892 405.009C117.172 404.845 116.639 404.584 116.294 404.226C115.952 403.867 115.782 403.413 115.782 402.864C115.782 402.408 115.909 402.01 116.163 401.668C116.418 401.326 116.77 401.06 117.219 400.869C117.668 400.675 118.182 400.577 118.761 400.577C119.596 400.577 120.252 400.758 120.731 401.12C121.21 401.479 121.527 401.959 121.681 402.562Z" fill="url(#paint16_linear_530_115)"/>
<path opacity="0.8" d="M227.842 379.03L227.842 263.483" stroke="url(#paint17_linear_530_115)" stroke-width="6.31858"/>
<path d="M227.842 379.03L227.842 263.483" stroke="url(#paint18_linear_530_115)" stroke-width="0.98971"/>
<g filter="url(#filter5_ii_530_115)">
<path d="M188.905 408.017C186.192 405.303 186.192 400.905 188.905 398.192L222.777 364.319C225.491 361.606 229.889 361.606 232.602 364.319L266.475 398.192C269.188 400.905 269.188 405.303 266.475 408.017L232.602 441.889C229.889 444.602 225.491 444.602 222.777 441.889L188.905 408.017Z" fill="#121212"/>
</g>
<path d="M189.867 399.154L223.74 365.281C225.921 363.1 229.459 363.1 231.64 365.281L265.513 399.154C267.694 401.335 267.694 404.873 265.513 407.054L231.64 440.927C229.459 443.109 225.921 443.109 223.74 440.927L189.867 407.054C187.685 404.873 187.685 401.335 189.867 399.154Z" stroke="#0070FA" stroke-width="2.72132"/>
<path d="M217.496 394.205C217.455 393.839 217.285 393.556 216.986 393.355C216.687 393.151 216.311 393.05 215.857 393.05C215.532 393.05 215.251 393.101 215.014 393.204C214.777 393.305 214.593 393.444 214.462 393.622C214.333 393.797 214.268 393.997 214.268 394.221C214.268 394.409 214.312 394.571 214.4 394.708C214.49 394.844 214.607 394.959 214.752 395.052C214.898 395.142 215.056 395.218 215.223 395.28C215.391 395.339 215.552 395.388 215.706 395.427L216.479 395.628C216.732 395.69 216.991 395.773 217.256 395.879C217.522 395.985 217.768 396.124 217.995 396.296C218.221 396.469 218.404 396.683 218.543 396.938C218.685 397.193 218.756 397.499 218.756 397.854C218.756 398.303 218.64 398.701 218.408 399.049C218.179 399.397 217.845 399.671 217.407 399.872C216.972 400.073 216.445 400.173 215.826 400.173C215.233 400.173 214.721 400.079 214.288 399.891C213.855 399.703 213.516 399.436 213.271 399.091C213.026 398.743 212.891 398.331 212.865 397.854H214.063C214.087 398.14 214.179 398.379 214.342 398.569C214.507 398.757 214.717 398.898 214.972 398.991C215.23 399.081 215.512 399.126 215.818 399.126C216.156 399.126 216.456 399.073 216.719 398.967C216.984 398.859 217.193 398.71 217.345 398.519C217.497 398.326 217.573 398.1 217.573 397.843C217.573 397.608 217.506 397.416 217.372 397.267C217.241 397.117 217.062 396.994 216.835 396.896C216.611 396.798 216.357 396.711 216.073 396.637L215.138 396.382C214.504 396.209 214.002 395.955 213.631 395.62C213.262 395.285 213.078 394.842 213.078 394.29C213.078 393.834 213.201 393.436 213.449 393.096C213.696 392.756 214.031 392.492 214.454 392.304C214.876 392.113 215.353 392.017 215.884 392.017C216.42 392.017 216.893 392.112 217.303 392.3C217.715 392.488 218.04 392.747 218.277 393.077C218.514 393.404 218.638 393.78 218.648 394.205H217.496ZM223.852 397.58L223.852 394.105H225.011L225.011 400.042H223.875L223.875 399.014H223.813C223.676 399.331 223.457 399.595 223.156 399.806C222.857 400.015 222.485 400.119 222.039 400.119C221.657 400.119 221.32 400.036 221.026 399.868C220.735 399.698 220.505 399.447 220.338 399.114C220.173 398.782 220.091 398.371 220.091 397.881L220.091 394.105H221.246L221.246 397.742C221.246 398.147 221.358 398.469 221.583 398.708C221.807 398.948 222.098 399.068 222.456 399.068C222.673 399.068 222.888 399.014 223.102 398.906C223.318 398.797 223.497 398.634 223.639 398.415C223.783 398.196 223.854 397.917 223.852 397.58ZM226.564 402.269L226.564 394.105H227.693L227.693 395.067H227.79C227.857 394.944 227.953 394.801 228.079 394.638C228.206 394.476 228.381 394.334 228.605 394.213C228.829 394.089 229.126 394.027 229.494 394.027C229.973 394.027 230.401 394.149 230.777 394.391C231.154 394.633 231.449 394.982 231.663 395.438C231.879 395.894 231.987 396.443 231.987 397.085C231.987 397.727 231.88 398.277 231.667 398.736C231.453 399.192 231.159 399.543 230.785 399.791C230.412 400.036 229.985 400.158 229.506 400.158C229.145 400.158 228.85 400.097 228.621 399.976C228.394 399.855 228.216 399.713 228.087 399.551C227.958 399.389 227.859 399.244 227.79 399.118H227.72L227.72 402.269H226.564ZM227.697 397.073C227.697 397.491 227.757 397.857 227.878 398.171C228 398.486 228.175 398.732 228.404 398.909C228.633 399.085 228.914 399.172 229.247 399.172C229.592 399.172 229.881 399.081 230.113 398.898C230.345 398.712 230.52 398.461 230.638 398.144C230.759 397.827 230.82 397.47 230.82 397.073C230.82 396.682 230.761 396.33 230.642 396.018C230.526 395.706 230.351 395.46 230.117 395.28C229.885 395.099 229.595 395.009 229.247 395.009C228.912 395.009 228.628 395.096 228.396 395.268C228.167 395.441 227.993 395.682 227.875 395.991C227.756 396.3 227.697 396.661 227.697 397.073ZM235.841 400.162C235.256 400.162 234.752 400.037 234.33 399.787C233.91 399.534 233.585 399.18 233.356 398.724C233.129 398.265 233.016 397.728 233.016 397.112C233.016 396.504 233.129 395.968 233.356 395.504C233.585 395.04 233.905 394.678 234.314 394.418C234.727 394.158 235.209 394.027 235.76 394.027C236.095 394.027 236.42 394.083 236.734 394.194C237.048 394.305 237.331 394.478 237.581 394.716C237.831 394.953 238.028 395.261 238.172 395.639C238.316 396.016 238.388 396.473 238.388 397.012L238.388 397.421H233.669L233.669 396.555H237.256C237.256 396.251 237.194 395.982 237.07 395.748C236.947 395.511 236.773 395.324 236.549 395.187C236.327 395.051 236.067 394.982 235.768 394.982C235.443 394.982 235.16 395.062 234.917 395.222C234.678 395.379 234.492 395.585 234.361 395.84C234.232 396.093 234.167 396.367 234.167 396.664L234.167 397.34C234.167 397.737 234.237 398.075 234.376 398.353C234.518 398.631 234.715 398.844 234.968 398.991C235.22 399.135 235.515 399.207 235.853 399.207C236.072 399.207 236.272 399.176 236.452 399.114C236.632 399.05 236.788 398.955 236.92 398.828C237.051 398.702 237.152 398.546 237.221 398.361L238.315 398.558C238.227 398.88 238.07 399.162 237.843 399.404C237.619 399.644 237.337 399.831 236.997 399.965C236.659 400.096 236.274 400.162 235.841 400.162ZM239.671 400.042L239.671 394.105H240.788L240.788 395.048H240.85C240.958 394.728 241.149 394.477 241.422 394.294C241.698 394.109 242.009 394.016 242.357 394.016C242.429 394.016 242.514 394.018 242.612 394.024C242.713 394.029 242.791 394.035 242.848 394.043L242.848 395.148C242.802 395.136 242.719 395.121 242.601 395.106C242.482 395.088 242.364 395.079 242.245 395.079C241.972 395.079 241.729 395.137 241.515 395.253C241.303 395.366 241.136 395.525 241.012 395.728C240.888 395.929 240.827 396.159 240.827 396.416L240.827 400.042H239.671ZM212.742 413.042L212.742 405.126H217.652L217.652 406.154H213.937L213.937 408.566H217.3L217.3 409.59H213.937L213.937 413.042H212.742ZM222.417 410.58L222.417 407.105H223.576L223.576 413.042H222.44L222.44 412.014H222.378C222.241 412.331 222.022 412.595 221.721 412.806C221.422 413.015 221.05 413.119 220.604 413.119C220.222 413.119 219.885 413.036 219.591 412.868C219.3 412.698 219.07 412.447 218.903 412.114C218.738 411.782 218.656 411.371 218.656 410.881L218.656 407.105H219.811L219.811 410.742C219.811 411.147 219.923 411.469 220.148 411.708C220.372 411.948 220.663 412.068 221.021 412.068C221.238 412.068 221.453 412.014 221.667 411.906C221.883 411.797 222.062 411.634 222.204 411.415C222.348 411.196 222.419 410.917 222.417 410.58ZM226.285 409.517L226.285 413.042H225.129L225.129 407.105H226.239L226.239 408.071H226.312C226.449 407.757 226.662 407.504 226.954 407.314C227.247 407.123 227.617 407.027 228.063 407.027C228.468 407.027 228.822 407.113 229.126 407.283C229.43 407.45 229.666 407.7 229.833 408.032C230.001 408.365 230.085 408.776 230.085 409.266L230.085 413.042H228.929L228.929 409.405C228.929 408.974 228.817 408.638 228.593 408.396C228.368 408.151 228.06 408.029 227.669 408.029C227.401 408.029 227.162 408.087 226.954 408.203C226.747 408.319 226.584 408.489 226.463 408.713C226.344 408.934 226.285 409.202 226.285 409.517ZM233.857 413.158C233.378 413.158 232.95 413.036 232.574 412.791C232.2 412.543 231.906 412.192 231.693 411.736C231.481 411.277 231.376 410.727 231.376 410.085C231.376 409.443 231.483 408.894 231.696 408.438C231.913 407.982 232.209 407.633 232.586 407.391C232.962 407.149 233.388 407.027 233.865 407.027C234.233 407.027 234.53 407.089 234.754 407.213C234.981 407.334 235.156 407.476 235.28 407.638C235.406 407.801 235.504 407.944 235.573 408.067H235.643L235.643 405.126H236.799L236.799 413.042H235.67L235.67 412.118H235.573C235.504 412.244 235.403 412.389 235.272 412.551C235.143 412.713 234.965 412.855 234.739 412.976C234.512 413.097 234.218 413.158 233.857 413.158ZM234.112 412.172C234.445 412.172 234.726 412.085 234.955 411.909C235.187 411.732 235.362 411.486 235.481 411.171C235.602 410.857 235.662 410.491 235.662 410.073C235.662 409.661 235.603 409.3 235.485 408.991C235.366 408.682 235.192 408.441 234.963 408.268C234.733 408.096 234.45 408.009 234.112 408.009C233.764 408.009 233.475 408.099 233.243 408.28C233.011 408.46 232.835 408.706 232.717 409.018C232.601 409.33 232.543 409.682 232.543 410.073C232.543 410.47 232.602 410.827 232.721 411.144C232.839 411.461 233.015 411.712 233.246 411.898C233.481 412.081 233.77 412.172 234.112 412.172ZM242.897 408.554L241.85 408.74C241.806 408.606 241.737 408.478 241.641 408.357C241.548 408.236 241.422 408.137 241.262 408.06C241.103 407.982 240.903 407.944 240.663 407.944C240.336 407.944 240.063 408.017 239.844 408.164C239.625 408.308 239.515 408.495 239.515 408.724C239.515 408.923 239.589 409.083 239.736 409.204C239.882 409.325 240.12 409.424 240.447 409.501L241.39 409.718C241.936 409.844 242.343 410.039 242.611 410.301C242.879 410.564 243.013 410.906 243.013 411.326C243.013 411.681 242.91 411.998 242.704 412.277C242.501 412.552 242.216 412.769 241.85 412.926C241.487 413.083 241.065 413.162 240.586 413.162C239.921 413.162 239.379 413.02 238.959 412.737C238.539 412.451 238.281 412.045 238.186 411.519L239.303 411.349C239.372 411.64 239.515 411.861 239.732 412.01C239.948 412.157 240.23 412.23 240.578 412.23C240.957 412.23 241.26 412.152 241.487 411.995C241.713 411.835 241.827 411.64 241.827 411.411C241.827 411.225 241.757 411.069 241.618 410.943C241.481 410.817 241.271 410.722 240.988 410.657L239.983 410.437C239.429 410.31 239.019 410.109 238.754 409.834C238.491 409.558 238.359 409.209 238.359 408.786C238.359 408.436 238.457 408.129 238.653 407.866C238.849 407.603 239.12 407.399 239.465 407.252C239.81 407.102 240.206 407.027 240.652 407.027C241.293 407.027 241.798 407.167 242.167 407.445C242.535 407.721 242.779 408.09 242.897 408.554Z" fill="#0070FA"/>
<defs>
<filter id="filter0_dd_530_115" x="161.597" y="151.896" width="132.177" height="151.587" filterUnits="userSpaceOnUse" color-interpolation-filters="sRGB">
<feFlood flood-opacity="0" result="BackgroundImageFix"/>
<feColorMatrix in="SourceAlpha" type="matrix" values="0 0 0 0 0 0 0 0 0 0 0 0 0 0 0 0 0 0 127 0" result="hardAlpha"/>
<feOffset dy="9.70527"/>
<feGaussianBlur stdDeviation="9.70527"/>
<feComposite in2="hardAlpha" operator="out"/>
<feColorMatrix type="matrix" values="0 0 0 0 1 0 0 0 0 0.262745 0 0 0 0 0.458824 0 0 0 0.1 0"/>
<feBlend mode="normal" in2="BackgroundImageFix" result="effect1_dropShadow_530_115"/>
<feColorMatrix in="SourceAlpha" type="matrix" values="0 0 0 0 0 0 0 0 0 0 0 0 0 0 0 0 0 0 127 0" result="hardAlpha"/>
<feOffset dy="-9.70527"/>
<feGaussianBlur stdDeviation="9.70527"/>
<feComposite in2="hardAlpha" operator="out"/>
<feColorMatrix type="matrix" values="0 0 0 0 1 0 0 0 0 0.258333 0 0 0 0 0.45492 0 0 0 0.1 0"/>
<feBlend mode="normal" in2="effect1_dropShadow_530_115" result="effect2_dropShadow_530_115"/>
<feBlend mode="normal" in="SourceGraphic" in2="effect2_dropShadow_530_115" result="shape"/>
</filter>
<filter id="filter1_ii_530_115" x="313.335" y="358.811" width="81.6394" height="88.5869" filterUnits="userSpaceOnUse" color-interpolation-filters="sRGB">
<feFlood flood-opacity="0" result="BackgroundImageFix"/>
<feBlend mode="normal" in="SourceGraphic" in2="BackgroundImageFix" result="shape"/>
<feColorMatrix in="SourceAlpha" type="matrix" values="0 0 0 0 0 0 0 0 0 0 0 0 0 0 0 0 0 0 127 0" result="hardAlpha"/>
<feOffset dy="-3.47368"/>
<feGaussianBlur stdDeviation="6.94735"/>
<feComposite in2="hardAlpha" operator="arithmetic" k2="-1" k3="1"/>
<feColorMatrix type="matrix" values="0 0 0 0 1 0 0 0 0 0.262745 0 0 0 0 0.458824 0 0 0 0.2 0"/>
<feBlend mode="normal" in2="shape" result="effect1_innerShadow_530_115"/>
<feColorMatrix in="SourceAlpha" type="matrix" values="0 0 0 0 0 0 0 0 0 0 0 0 0 0 0 0 0 0 127 0" result="hardAlpha"/>
<feOffset dy="3.47368"/>
<feGaussianBlur stdDeviation="3.47368"/>
<feComposite in2="hardAlpha" operator="arithmetic" k2="-1" k3="1"/>
<feColorMatrix type="matrix" values="0 0 0 0 1 0 0 0 0 1 0 0 0 0 1 0 0 0 0.05 0"/>
<feBlend mode="normal" in2="effect1_innerShadow_530_115" result="effect2_innerShadow_530_115"/>
</filter>
<filter id="filter2_ii_530_115" x="110.612" y="450.993" width="81.6394" height="86.6671" filterUnits="userSpaceOnUse" color-interpolation-filters="sRGB">
<feFlood flood-opacity="0" result="BackgroundImageFix"/>
<feBlend mode="normal" in="SourceGraphic" in2="BackgroundImageFix" result="shape"/>
<feColorMatrix in="SourceAlpha" type="matrix" values="0 0 0 0 0 0 0 0 0 0 0 0 0 0 0 0 0 0 127 0" result="hardAlpha"/>
<feOffset dy="-2.5138"/>
<feGaussianBlur stdDeviation="5.02759"/>
<feComposite in2="hardAlpha" operator="arithmetic" k2="-1" k3="1"/>
<feColorMatrix type="matrix" values="0 0 0 0 0 0 0 0 0 0.439216 0 0 0 0 0.980392 0 0 0 0.2 0"/>
<feBlend mode="normal" in2="shape" result="effect1_innerShadow_530_115"/>
<feColorMatrix in="SourceAlpha" type="matrix" values="0 0 0 0 0 0 0 0 0 0 0 0 0 0 0 0 0 0 127 0" result="hardAlpha"/>
<feOffset dy="2.5138"/>
<feGaussianBlur stdDeviation="2.5138"/>
<feComposite in2="hardAlpha" operator="arithmetic" k2="-1" k3="1"/>
<feColorMatrix type="matrix" values="0 0 0 0 1 0 0 0 0 1 0 0 0 0 1 0 0 0 0.05 0"/>
<feBlend mode="normal" in2="effect1_innerShadow_530_115" result="effect2_innerShadow_530_115"/>
</filter>
<filter id="filter3_ii_530_115" x="263.12" y="450.993" width="81.6395" height="86.6671" filterUnits="userSpaceOnUse" color-interpolation-filters="sRGB">
<feFlood flood-opacity="0" result="BackgroundImageFix"/>
<feBlend mode="normal" in="SourceGraphic" in2="BackgroundImageFix" result="shape"/>
<feColorMatrix in="SourceAlpha" type="matrix" values="0 0 0 0 0 0 0 0 0 0 0 0 0 0 0 0 0 0 127 0" result="hardAlpha"/>
<feOffset dy="-2.5138"/>
<feGaussianBlur stdDeviation="5.02759"/>
<feComposite in2="hardAlpha" operator="arithmetic" k2="-1" k3="1"/>
<feColorMatrix type="matrix" values="0 0 0 0 0.847059 0 0 0 0 0.886275 0 0 0 0 1 0 0 0 0.2 0"/>
<feBlend mode="normal" in2="shape" result="effect1_innerShadow_530_115"/>
<feColorMatrix in="SourceAlpha" type="matrix" values="0 0 0 0 0 0 0 0 0 0 0 0 0 0 0 0 0 0 127 0" result="hardAlpha"/>
<feOffset dy="2.5138"/>
<feGaussianBlur stdDeviation="2.5138"/>
<feComposite in2="hardAlpha" operator="arithmetic" k2="-1" k3="1"/>
<feColorMatrix type="matrix" values="0 0 0 0 1 0 0 0 0 1 0 0 0 0 1 0 0 0 0.05 0"/>
<feBlend mode="normal" in2="effect1_innerShadow_530_115" result="effect2_innerShadow_530_115"/>
</filter>
<filter id="filter4_ii_530_115" x="60.7178" y="359.771" width="81.6394" height="86.6671" filterUnits="userSpaceOnUse" color-interpolation-filters="sRGB">
<feFlood flood-opacity="0" result="BackgroundImageFix"/>
<feBlend mode="normal" in="SourceGraphic" in2="BackgroundImageFix" result="shape"/>
<feColorMatrix in="SourceAlpha" type="matrix" values="0 0 0 0 0 0 0 0 0 0 0 0 0 0 0 0 0 0 127 0" result="hardAlpha"/>
<feOffset dy="-2.5138"/>
<feGaussianBlur stdDeviation="5.02759"/>
<feComposite in2="hardAlpha" operator="arithmetic" k2="-1" k3="1"/>
<feColorMatrix type="matrix" values="0 0 0 0 0.172549 0 0 0 0 0.160784 0 0 0 0 0.466667 0 0 0 0.2 0"/>
<feBlend mode="normal" in2="shape" result="effect1_innerShadow_530_115"/>
<feColorMatrix in="SourceAlpha" type="matrix" values="0 0 0 0 0 0 0 0 0 0 0 0 0 0 0 0 0 0 127 0" result="hardAlpha"/>
<feOffset dy="2.5138"/>
<feGaussianBlur stdDeviation="2.5138"/>
<feComposite in2="hardAlpha" operator="arithmetic" k2="-1" k3="1"/>
<feColorMatrix type="matrix" values="0 0 0 0 1 0 0 0 0 1 0 0 0 0 1 0 0 0 0.05 0"/>
<feBlend mode="normal" in2="effect1_innerShadow_530_115" result="effect2_innerShadow_530_115"/>
</filter>
<filter id="filter5_ii_530_115" x="186.87" y="359.771" width="81.6394" height="86.6671" filterUnits="userSpaceOnUse" color-interpolation-filters="sRGB">
<feFlood flood-opacity="0" result="BackgroundImageFix"/>
<feBlend mode="normal" in="SourceGraphic" in2="BackgroundImageFix" result="shape"/>
<feColorMatrix in="SourceAlpha" type="matrix" values="0 0 0 0 0 0 0 0 0 0 0 0 0 0 0 0 0 0 127 0" result="hardAlpha"/>
<feOffset dy="-2.5138"/>
<feGaussianBlur stdDeviation="5.02759"/>
<feComposite in2="hardAlpha" operator="arithmetic" k2="-1" k3="1"/>
<feColorMatrix type="matrix" values="0 0 0 0 0 0 0 0 0 0.439216 0 0 0 0 0.980392 0 0 0 0.2 0"/>
<feBlend mode="normal" in2="shape" result="effect1_innerShadow_530_115"/>
<feColorMatrix in="SourceAlpha" type="matrix" values="0 0 0 0 0 0 0 0 0 0 0 0 0 0 0 0 0 0 127 0" result="hardAlpha"/>
<feOffset dy="2.5138"/>
<feGaussianBlur stdDeviation="2.5138"/>
<feComposite in2="hardAlpha" operator="arithmetic" k2="-1" k3="1"/>
<feColorMatrix type="matrix" values="0 0 0 0 1 0 0 0 0 1 0 0 0 0 1 0 0 0 0.05 0"/>
<feBlend mode="normal" in2="effect1_innerShadow_530_115" result="effect2_innerShadow_530_115"/>
</filter>
<linearGradient id="paint0_linear_530_115" x1="0" y1="0" x2="216.168" y2="219.356" gradientUnits="userSpaceOnUse">
<stop stop-color="#FF4375" stop-opacity="0"/>
<stop offset="0.526042" stop-color="#FF4375"/>
<stop offset="1" stop-color="#FF4375" stop-opacity="0"/>
</linearGradient>
<linearGradient id="paint1_linear_530_115" x1="0" y1="0" x2="316.63" y2="321.299" gradientUnits="userSpaceOnUse">
<stop stop-color="#FF4375" stop-opacity="0"/>
<stop offset="0.526042" stop-color="#FF4375"/>
<stop offset="1" stop-color="#FF4375" stop-opacity="0"/>
</linearGradient>
<linearGradient id="paint2_linear_530_115" x1="227.69" y1="332.862" x2="376.426" y2="481.598" gradientUnits="userSpaceOnUse">
<stop stop-color="#FF4375" stop-opacity="0"/>
<stop offset="0.526042" stop-color="#FF4375"/>
<stop offset="1" stop-color="#FF4375" stop-opacity="0"/>
</linearGradient>
<linearGradient id="paint3_linear_530_115" x1="125.966" y1="76.6939" x2="189.579" y2="205.873" gradientUnits="userSpaceOnUse">
<stop stop-color="#FF4274"/>
<stop offset="1" stop-color="#FF4375"/>
</linearGradient>
<linearGradient id="paint4_linear_530_115" x1="178.526" y1="82.3611" x2="159.673" y2="173.724" gradientUnits="userSpaceOnUse">
<stop stop-color="#D8E2FF"/>
<stop offset="1" stop-color="#FF4375"/>
</linearGradient>
<linearGradient id="paint5_linear_530_115" x1="276.857" y1="82.3611" x2="201.794" y2="163.927" gradientUnits="userSpaceOnUse">
<stop stop-color="#3E46C5"/>
<stop offset="1" stop-color="#FF4375"/>
</linearGradient>
<linearGradient id="paint6_linear_530_115" x1="326.023" y1="82.3611" x2="268.817" y2="206.683" gradientUnits="userSpaceOnUse">
<stop stop-color="#2C2977"/>
<stop offset="1" stop-color="#FF4375"/>
</linearGradient>
<linearGradient id="paint7_linear_530_115" x1="228.948" y1="82.3611" x2="228.948" y2="187.76" gradientUnits="userSpaceOnUse">
<stop stop-color="#0070FA"/>
<stop offset="1" stop-color="#FF4375"/>
</linearGradient>
<linearGradient id="paint8_linear_530_115" x1="362.068" y1="385.243" x2="300.401" y2="234.512" gradientUnits="userSpaceOnUse">
<stop stop-color="#FF4274"/>
<stop offset="1" stop-color="#FF4375"/>
</linearGradient>
<linearGradient id="paint9_linear_530_115" x1="362.068" y1="385.243" x2="300.401" y2="234.512" gradientUnits="userSpaceOnUse">
<stop stop-color="#FF4274"/>
<stop offset="1" stop-color="#FF4375"/>
</linearGradient>
<linearGradient id="paint10_linear_530_115" x1="304.637" y1="455.201" x2="343.998" y2="291.395" gradientUnits="userSpaceOnUse">
<stop stop-color="#D8E2FF"/>
<stop offset="1" stop-color="#FF4375"/>
</linearGradient>
<linearGradient id="paint11_linear_530_115" x1="304.637" y1="455.201" x2="343.998" y2="291.395" gradientUnits="userSpaceOnUse">
<stop stop-color="#D8E2FF"/>
<stop offset="1" stop-color="#FF4375"/>
</linearGradient>
<linearGradient id="paint12_linear_530_115" x1="97.7816" y1="378.559" x2="152.377" y2="234.819" gradientUnits="userSpaceOnUse">
<stop stop-color="#2C2977"/>
<stop offset="1" stop-color="#FF4375"/>
</linearGradient>
<linearGradient id="paint13_linear_530_115" x1="97.7816" y1="378.559" x2="152.377" y2="234.819" gradientUnits="userSpaceOnUse">
<stop stop-color="#2C2977"/>
<stop offset="1" stop-color="#FF4375"/>
</linearGradient>
<linearGradient id="paint14_linear_530_115" x1="151.055" y1="455.201" x2="287.737" y2="327.679" gradientUnits="userSpaceOnUse">
<stop stop-color="#3E46C5"/>
<stop offset="1" stop-color="#FF4375"/>
</linearGradient>
<linearGradient id="paint15_linear_530_115" x1="151.055" y1="455.201" x2="287.737" y2="327.679" gradientUnits="userSpaceOnUse">
<stop stop-color="#3E46C5"/>
<stop offset="1" stop-color="#FF4375"/>
</linearGradient>
<linearGradient id="paint16_linear_530_115" x1="101.856" y1="394.396" x2="101.856" y2="418.598" gradientUnits="userSpaceOnUse">
<stop stop-color="#2C2977"/>
<stop offset="0.479167" stop-color="#3F3BAB"/>
<stop offset="1" stop-color="#2A25AC"/>
</linearGradient>
<linearGradient id="paint17_linear_530_115" x1="228.842" y1="379.03" x2="228.842" y2="263.483" gradientUnits="userSpaceOnUse">
<stop stop-color="#0070FA"/>
<stop offset="1" stop-color="#FF4375"/>
</linearGradient>
<linearGradient id="paint18_linear_530_115" x1="228.842" y1="379.03" x2="228.842" y2="263.483" gradientUnits="userSpaceOnUse">
<stop stop-color="#0070FA"/>
<stop offset="1" stop-color="#FF4375"/>
</linearGradient>
<clipPath id="clip0_530_115">
<rect width="30.9063" height="30.9063" fill="white" transform="translate(212.232 207)"/>
</clipPath>
</defs>
</svg>
